<ttFont>
    <TTGlyph name="A" xMin="8" yMin="0" xMax="628" yMax="732">
      <contour>
        <pt x="413" y="611" on="1"/>
        <pt x="412" y="618" on="0"/>
        <pt x="410" y="632" on="0"/>
        <pt x="408" y="639" on="1"/>
        <pt x="406" y="634" on="0"/>
        <pt x="397" y="616" on="0"/>
        <pt x="395" y="611" on="1"/>
        <pt x="357" y="540" on="0"/>
        <pt x="282" y="410" on="0"/>
        <pt x="243" y="340" on="1"/>
        <pt x="489" y="340" on="1"/>
        <pt x="471" y="409" on="0"/>
        <pt x="433" y="543" on="0"/>
      </contour>
      <contour>
        <pt x="628" y="0" on="1"/>
        <pt x="586" y="0" on="1"/>
        <pt x="565" y="75" on="0"/>
        <pt x="523" y="225" on="0"/>
        <pt x="501" y="300" on="1"/>
        <pt x="220" y="300" on="1"/>
        <pt x="178" y="225" on="0"/>
        <pt x="93" y="75" on="0"/>
        <pt x="51" y="0" on="1"/>
        <pt x="8" y="0" on="1"/>
        <pt x="111" y="184" on="0"/>
        <pt x="318" y="548" on="0"/>
        <pt x="421" y="732" on="1"/>
      </contour>
    </TTGlyph>
    <TTGlyph name="AE" xMin="10" yMin="0" xMax="739" yMax="700">
      <contour>
        <pt x="359" y="335" on="1"/>
        <pt x="399" y="619" on="1"/>
        <pt x="364" y="547" on="0"/>
        <pt x="281" y="406" on="0"/>
        <pt x="242" y="335" on="1"/>
      </contour>
      <contour>
        <pt x="10" y="0" on="1"/>
        <pt x="110" y="176" on="0"/>
        <pt x="305" y="524" on="0"/>
        <pt x="405" y="700" on="1"/>
        <pt x="739" y="700" on="1"/>
        <pt x="734" y="660" on="1"/>
        <pt x="447" y="660" on="1"/>
        <pt x="406" y="373" on="1"/>
        <pt x="654" y="373" on="1"/>
        <pt x="648" y="333" on="1"/>
        <pt x="400" y="333" on="1"/>
        <pt x="359" y="40" on="1"/>
        <pt x="660" y="40" on="1"/>
        <pt x="654" y="0" on="1"/>
        <pt x="312" y="0" on="1"/>
        <pt x="353" y="295" on="1"/>
        <pt x="219" y="295" on="1"/>
        <pt x="177" y="221" on="0"/>
        <pt x="94" y="74" on="0"/>
        <pt x="52" y="0" on="1"/>
      </contour>
    </TTGlyph>
    <TTGlyph name="Aacute" xMin="8" yMin="0" xMax="628" yMax="883">
      <component glyphName="A" x="0" y="0" flags="0x204"/>
      <component glyphName="acute" x="315" y="271" flags="0x4"/>
    </TTGlyph>
    <TTGlyph name="Acircumflex" xMin="8" yMin="0" xMax="628" yMax="931">
      <component glyphName="A" x="0" y="0" flags="0x204"/>
      <component glyphName="asciicircum" x="204" y="271" flags="0x4"/>
    </TTGlyph>
    <TTGlyph name="Adieresis" xMin="8" yMin="0" xMax="628" yMax="831">
      <component glyphName="A" x="0" y="0" flags="0x204"/>
      <component glyphName="dieresis" x="248" y="290" flags="0x4"/>
    </TTGlyph>
    <TTGlyph name="Agrave" xMin="8" yMin="0" xMax="628" yMax="883">
      <component glyphName="A" x="0" y="0" flags="0x204"/>
      <component glyphName="grave" x="345" y="271" flags="0x4"/>
    </TTGlyph>
    <TTGlyph name="Aring" xMin="8" yMin="0" xMax="628" yMax="908">
      <contour>
        <pt x="397" y="835" on="1"/>
        <pt x="395" y="818" on="0"/>
        <pt x="417" y="793" on="0"/>
        <pt x="434" y="793" on="1"/>
        <pt x="451" y="793" on="0"/>
        <pt x="480" y="818" on="0"/>
        <pt x="482" y="835" on="1"/>
        <pt x="484" y="852" on="0"/>
        <pt x="462" y="878" on="0"/>
        <pt x="445" y="878" on="1"/>
        <pt x="428" y="878" on="0"/>
        <pt x="399" y="852" on="0"/>
      </contour>
      <contour>
        <pt x="367" y="836" on="1"/>
        <pt x="372" y="866" on="0"/>
        <pt x="419" y="908" on="0"/>
        <pt x="450" y="908" on="1"/>
        <pt x="480" y="908" on="0"/>
        <pt x="517" y="866" on="0"/>
        <pt x="513" y="836" on="1"/>
        <pt x="508" y="805" on="0"/>
        <pt x="460" y="763" on="0"/>
        <pt x="429" y="763" on="1"/>
        <pt x="399" y="763" on="0"/>
        <pt x="362" y="805" on="0"/>
      </contour>
      <contour>
        <pt x="413" y="611" on="1"/>
        <pt x="412" y="618" on="0"/>
        <pt x="410" y="632" on="0"/>
        <pt x="408" y="639" on="1"/>
        <pt x="406" y="634" on="0"/>
        <pt x="397" y="616" on="0"/>
        <pt x="395" y="611" on="1"/>
        <pt x="357" y="540" on="0"/>
        <pt x="282" y="410" on="0"/>
        <pt x="243" y="340" on="1"/>
        <pt x="489" y="340" on="1"/>
        <pt x="471" y="409" on="0"/>
        <pt x="433" y="543" on="0"/>
      </contour>
      <contour>
        <pt x="628" y="0" on="1"/>
        <pt x="586" y="0" on="1"/>
        <pt x="565" y="75" on="0"/>
        <pt x="523" y="225" on="0"/>
        <pt x="501" y="300" on="1"/>
        <pt x="220" y="300" on="1"/>
        <pt x="178" y="225" on="0"/>
        <pt x="93" y="75" on="0"/>
        <pt x="51" y="0" on="1"/>
        <pt x="8" y="0" on="1"/>
        <pt x="111" y="184" on="0"/>
        <pt x="318" y="548" on="0"/>
        <pt x="421" y="732" on="1"/>
      </contour>
    </TTGlyph>
    <TTGlyph name="Atilde" xMin="8" yMin="0" xMax="628" yMax="839">
      <component glyphName="A" x="0" y="0" flags="0x204"/>
      <component glyphName="asciitilde" x="154" y="294" flags="0x4"/>
    </TTGlyph>
    <TTGlyph name="B" xMin="24" yMin="0" xMax="474" yMax="700">
      <contour>
        <pt x="159" y="660" on="1"/>
        <pt x="118" y="372" on="1"/>
        <pt x="249" y="372" on="1"/>
        <pt x="321" y="372" on="0"/>
        <pt x="415" y="455" on="0"/>
        <pt x="425" y="522" on="1"/>
        <pt x="435" y="596" on="0"/>
        <pt x="357" y="660" on="0"/>
        <pt x="287" y="660" on="1"/>
      </contour>
      <contour>
        <pt x="112" y="332" on="1"/>
        <pt x="71" y="40" on="1"/>
        <pt x="204" y="40" on="1"/>
        <pt x="241" y="40" on="0"/>
        <pt x="309" y="58" on="0"/>
        <pt x="363" y="94" on="0"/>
        <pt x="399" y="147" on="0"/>
        <pt x="404" y="183" on="1"/>
        <pt x="411" y="232" on="0"/>
        <pt x="373" y="291" on="0"/>
        <pt x="314" y="323" on="0"/>
        <pt x="249" y="332" on="0"/>
        <pt x="228" y="332" on="1"/>
      </contour>
      <contour>
        <pt x="24" y="0" on="1"/>
        <pt x="123" y="700" on="1"/>
        <pt x="283" y="700" on="1"/>
        <pt x="330" y="700" on="0"/>
        <pt x="404" y="680" on="0"/>
        <pt x="453" y="638" on="0"/>
        <pt x="474" y="571" on="0"/>
        <pt x="467" y="525" on="1"/>
        <pt x="459" y="463" on="0"/>
        <pt x="385" y="369" on="0"/>
        <pt x="319" y="352" on="1"/>
        <pt x="347" y="346" on="0"/>
        <pt x="398" y="318" on="0"/>
        <pt x="433" y="274" on="0"/>
        <pt x="450" y="216" on="0"/>
        <pt x="445" y="180" on="1"/>
        <pt x="439" y="135" on="0"/>
        <pt x="393" y="68" on="0"/>
        <pt x="326" y="23" on="0"/>
        <pt x="244" y="0" on="0"/>
        <pt x="202" y="0" on="1"/>
      </contour>
    </TTGlyph>
    <TTGlyph name="C" xMin="51" yMin="-8" xMax="645" yMax="708">
      <contour>
        <pt x="538" y="76" on="1"/>
        <pt x="557" y="42" on="1"/>
        <pt x="514" y="19" on="0"/>
        <pt x="419" y="-8" on="0"/>
        <pt x="368" y="-8" on="1"/>
        <pt x="294" y="-8" on="0"/>
        <pt x="172" y="48" on="0"/>
        <pt x="89" y="145" on="0"/>
        <pt x="51" y="275" on="0"/>
        <pt x="61" y="349" on="1"/>
        <pt x="71" y="423" on="0"/>
        <pt x="146" y="554" on="0"/>
        <pt x="257" y="651" on="0"/>
        <pt x="395" y="708" on="0"/>
        <pt x="469" y="708" on="1"/>
        <pt x="520" y="708" on="0"/>
        <pt x="607" y="682" on="0"/>
        <pt x="645" y="658" on="1"/>
        <pt x="637" y="650" on="0"/>
        <pt x="624" y="632" on="0"/>
        <pt x="617" y="624" on="1"/>
        <pt x="585" y="645" on="0"/>
        <pt x="507" y="668" on="0"/>
        <pt x="463" y="668" on="1"/>
        <pt x="398" y="668" on="0"/>
        <pt x="276" y="617" on="0"/>
        <pt x="179" y="530" on="0"/>
        <pt x="112" y="414" on="0"/>
        <pt x="103" y="348" on="1"/>
        <pt x="94" y="283" on="0"/>
        <pt x="127" y="168" on="0"/>
        <pt x="200" y="82" on="0"/>
        <pt x="307" y="32" on="0"/>
        <pt x="372" y="32" on="1"/>
        <pt x="416" y="32" on="0"/>
        <pt x="500" y="55" on="0"/>
      </contour>
    </TTGlyph>
    <TTGlyph name="Ccedilla" xMin="67" yMin="-234" xMax="661" yMax="708">
      <contour>
        <pt x="554" y="76" on="1"/>
        <pt x="573" y="42" on="1"/>
        <pt x="531" y="19" on="0"/>
        <pt x="438" y="-7" on="0"/>
        <pt x="389" y="-8" on="1"/>
        <pt x="387" y="-34" on="0"/>
        <pt x="412" y="-53" on="0"/>
        <pt x="424" y="-61" on="1"/>
        <pt x="444" y="-76" on="0"/>
        <pt x="456" y="-115" on="0"/>
        <pt x="454" y="-133" on="1"/>
        <pt x="447" y="-181" on="0"/>
        <pt x="388" y="-234" on="0"/>
        <pt x="347" y="-234" on="1"/>
        <pt x="318" y="-234" on="0"/>
        <pt x="273" y="-202" on="0"/>
        <pt x="266" y="-169" on="1"/>
        <pt x="274" y="-166" on="0"/>
        <pt x="288" y="-160" on="0"/>
        <pt x="295" y="-157" on="1"/>
        <pt x="298" y="-176" on="0"/>
        <pt x="326" y="-201" on="0"/>
        <pt x="349" y="-201" on="1"/>
        <pt x="378" y="-201" on="0"/>
        <pt x="416" y="-163" on="0"/>
        <pt x="420" y="-135" on="1"/>
        <pt x="424" y="-110" on="0"/>
        <pt x="404" y="-83" on="0"/>
        <pt x="378" y="-63" on="0"/>
        <pt x="356" y="-42" on="0"/>
        <pt x="359" y="-23" on="1"/>
        <pt x="361" y="-7" on="1"/>
        <pt x="292" y="-3" on="0"/>
        <pt x="178" y="56" on="0"/>
        <pt x="101" y="152" on="0"/>
        <pt x="67" y="278" on="0"/>
        <pt x="77" y="349" on="1"/>
        <pt x="87" y="423" on="0"/>
        <pt x="162" y="554" on="0"/>
        <pt x="273" y="651" on="0"/>
        <pt x="411" y="708" on="0"/>
        <pt x="485" y="708" on="1"/>
        <pt x="536" y="708" on="0"/>
        <pt x="623" y="682" on="0"/>
        <pt x="661" y="658" on="1"/>
        <pt x="653" y="650" on="0"/>
        <pt x="640" y="632" on="0"/>
        <pt x="632" y="624" on="1"/>
        <pt x="600" y="645" on="0"/>
        <pt x="523" y="668" on="0"/>
        <pt x="479" y="668" on="1"/>
        <pt x="414" y="668" on="0"/>
        <pt x="292" y="617" on="0"/>
        <pt x="194" y="530" on="0"/>
        <pt x="127" y="414" on="0"/>
        <pt x="118" y="348" on="1"/>
        <pt x="109" y="283" on="0"/>
        <pt x="142" y="168" on="0"/>
        <pt x="216" y="82" on="0"/>
        <pt x="323" y="32" on="0"/>
        <pt x="388" y="32" on="1"/>
        <pt x="432" y="32" on="0"/>
        <pt x="516" y="55" on="0"/>
      </contour>
    </TTGlyph>
    <TTGlyph name="D" xMin="26" yMin="0" xMax="586" yMax="700">
      <contour>
        <pt x="125" y="700" on="1"/>
        <pt x="272" y="700" on="1"/>
        <pt x="344" y="700" on="0"/>
        <pt x="465" y="651" on="0"/>
        <pt x="548" y="560" on="0"/>
        <pt x="586" y="430" on="0"/>
        <pt x="575" y="350" on="1"/>
        <pt x="566" y="287" on="0"/>
        <pt x="510" y="162" on="0"/>
        <pt x="405" y="62" on="0"/>
        <pt x="248" y="0" on="0"/>
        <pt x="139" y="0" on="1"/>
        <pt x="26" y="0" on="1"/>
      </contour>
      <contour>
        <pt x="161" y="660" on="1"/>
        <pt x="138" y="505" on="0"/>
        <pt x="95" y="196" on="0"/>
        <pt x="73" y="41" on="1"/>
        <pt x="160" y="41" on="1"/>
        <pt x="245" y="41" on="0"/>
        <pt x="377" y="92" on="0"/>
        <pt x="470" y="177" on="0"/>
        <pt x="525" y="289" on="0"/>
        <pt x="534" y="350" on="1"/>
        <pt x="544" y="421" on="0"/>
        <pt x="511" y="536" on="0"/>
        <pt x="437" y="617" on="0"/>
        <pt x="330" y="660" on="0"/>
        <pt x="266" y="660" on="1"/>
      </contour>
    </TTGlyph>
    <TTGlyph name="E" xMin="35" yMin="0" xMax="549" yMax="700">
      <contour>
        <pt x="35" y="0" on="1"/>
        <pt x="134" y="700" on="1"/>
        <pt x="549" y="700" on="1"/>
        <pt x="543" y="660" on="1"/>
        <pt x="170" y="660" on="1"/>
        <pt x="129" y="373" on="1"/>
        <pt x="464" y="373" on="1"/>
        <pt x="458" y="333" on="1"/>
        <pt x="123" y="333" on="1"/>
        <pt x="82" y="40" on="1"/>
        <pt x="470" y="40" on="1"/>
        <pt x="464" y="0" on="1"/>
      </contour>
    </TTGlyph>
    <TTGlyph name="Eacute" xMin="35" yMin="0" xMax="549" yMax="883">
      <component glyphName="E" x="0" y="0" flags="0x204"/>
      <component glyphName="acute" x="222" y="271" flags="0x4"/>
    </TTGlyph>
    <TTGlyph name="Ecircumflex" xMin="35" yMin="0" xMax="549" yMax="931">
      <component glyphName="E" x="0" y="0" flags="0x204"/>
      <component glyphName="asciicircum" x="144" y="271" flags="0x4"/>
    </TTGlyph>
    <TTGlyph name="Edieresis" xMin="35" yMin="0" xMax="549" yMax="831">
      <component glyphName="E" x="0" y="0" flags="0x204"/>
      <component glyphName="dieresis" x="175" y="290" flags="0x4"/>
    </TTGlyph>
    <TTGlyph name="Egrave" xMin="35" yMin="0" xMax="549" yMax="883">
      <component glyphName="E" x="0" y="0" flags="0x204"/>
      <component glyphName="grave" x="262" y="271" flags="0x4"/>
    </TTGlyph>
    <TTGlyph name="Eth" xMin="19" yMin="0" xMax="597" yMax="700">
      <contour>
        <pt x="114" y="331" on="1"/>
        <pt x="73" y="40" on="1"/>
        <pt x="163" y="40" on="1"/>
        <pt x="237" y="40" on="0"/>
        <pt x="367" y="82" on="0"/>
        <pt x="468" y="162" on="0"/>
        <pt x="535" y="277" on="0"/>
        <pt x="545" y="350" on="1"/>
        <pt x="555" y="421" on="0"/>
        <pt x="521" y="536" on="0"/>
        <pt x="443" y="617" on="0"/>
        <pt x="326" y="660" on="0"/>
        <pt x="251" y="660" on="1"/>
        <pt x="161" y="660" on="1"/>
        <pt x="120" y="372" on="1"/>
        <pt x="327" y="372" on="1"/>
        <pt x="321" y="331" on="1"/>
      </contour>
      <contour>
        <pt x="78" y="372" on="1"/>
        <pt x="125" y="700" on="1"/>
        <pt x="268" y="700" on="1"/>
        <pt x="343" y="700" on="0"/>
        <pt x="469" y="651" on="0"/>
        <pt x="557" y="560" on="0"/>
        <pt x="597" y="430" on="0"/>
        <pt x="586" y="350" on="1"/>
        <pt x="577" y="287" on="0"/>
        <pt x="519" y="162" on="0"/>
        <pt x="410" y="62" on="0"/>
        <pt x="247" y="0" on="0"/>
        <pt x="133" y="0" on="1"/>
        <pt x="26" y="0" on="1"/>
        <pt x="73" y="331" on="1"/>
        <pt x="19" y="331" on="1"/>
        <pt x="25" y="372" on="1"/>
      </contour>
    </TTGlyph>
    <TTGlyph name="F" xMin="35" yMin="0" xMax="549" yMax="700">
      <contour>
        <pt x="35" y="0" on="1"/>
        <pt x="134" y="700" on="1"/>
        <pt x="549" y="700" on="1"/>
        <pt x="543" y="660" on="1"/>
        <pt x="170" y="660" on="1"/>
        <pt x="129" y="373" on="1"/>
        <pt x="464" y="373" on="1"/>
        <pt x="458" y="333" on="1"/>
        <pt x="123" y="333" on="1"/>
        <pt x="76" y="0" on="1"/>
      </contour>
    </TTGlyph>
    <TTGlyph name="G" xMin="51" yMin="-8" xMax="645" yMax="708">
      <contour>
        <pt x="402" y="260" on="1"/>
        <pt x="407" y="300" on="1"/>
        <pt x="539" y="300" on="1"/>
        <pt x="569" y="300" on="0"/>
        <pt x="591" y="278" on="0"/>
        <pt x="586" y="249" on="1"/>
        <pt x="557" y="42" on="1"/>
        <pt x="514" y="19" on="0"/>
        <pt x="419" y="-8" on="0"/>
        <pt x="368" y="-8" on="1"/>
        <pt x="294" y="-8" on="0"/>
        <pt x="172" y="48" on="0"/>
        <pt x="89" y="145" on="0"/>
        <pt x="51" y="275" on="0"/>
        <pt x="61" y="349" on="1"/>
        <pt x="71" y="423" on="0"/>
        <pt x="146" y="554" on="0"/>
        <pt x="257" y="651" on="0"/>
        <pt x="395" y="708" on="0"/>
        <pt x="469" y="708" on="1"/>
        <pt x="520" y="708" on="0"/>
        <pt x="607" y="682" on="0"/>
        <pt x="645" y="658" on="1"/>
        <pt x="637" y="650" on="0"/>
        <pt x="624" y="632" on="0"/>
        <pt x="617" y="624" on="1"/>
        <pt x="585" y="645" on="0"/>
        <pt x="507" y="668" on="0"/>
        <pt x="463" y="668" on="1"/>
        <pt x="398" y="668" on="0"/>
        <pt x="276" y="617" on="0"/>
        <pt x="179" y="530" on="0"/>
        <pt x="112" y="414" on="0"/>
        <pt x="103" y="348" on="1"/>
        <pt x="94" y="283" on="0"/>
        <pt x="127" y="168" on="0"/>
        <pt x="200" y="82" on="0"/>
        <pt x="307" y="32" on="0"/>
        <pt x="372" y="32" on="1"/>
        <pt x="448" y="32" on="0"/>
        <pt x="519" y="66" on="1"/>
        <pt x="536" y="192" on="1"/>
        <pt x="542" y="234" on="1"/>
        <pt x="544" y="246" on="0"/>
        <pt x="536" y="260" on="0"/>
        <pt x="519" y="260" on="1"/>
      </contour>
    </TTGlyph>
    <TTGlyph name="H" xMin="44" yMin="0" xMax="658" yMax="700">
      <contour>
        <pt x="44" y="0" on="1"/>
        <pt x="143" y="700" on="1"/>
        <pt x="184" y="700" on="1"/>
        <pt x="138" y="373" on="1"/>
        <pt x="567" y="373" on="1"/>
        <pt x="614" y="700" on="1"/>
        <pt x="658" y="700" on="1"/>
        <pt x="632" y="524" on="0"/>
        <pt x="582" y="176" on="0"/>
        <pt x="556" y="0" on="1"/>
        <pt x="515" y="0" on="1"/>
        <pt x="562" y="333" on="1"/>
        <pt x="132" y="333" on="1"/>
        <pt x="85" y="0" on="1"/>
      </contour>
    </TTGlyph>
    <TTGlyph name="I" xMin="54" yMin="0" xMax="194" yMax="700">
      <contour>
        <pt x="153" y="700" on="1"/>
        <pt x="194" y="700" on="1"/>
        <pt x="95" y="0" on="1"/>
        <pt x="54" y="0" on="1"/>
      </contour>
    </TTGlyph>
    <TTGlyph name="Iacute" xMin="54" yMin="0" xMax="308" yMax="883">
      <component glyphName="I" x="0" y="0" flags="0x4"/>
      <component glyphName="acute" x="66" y="271" flags="0x4"/>
    </TTGlyph>
    <TTGlyph name="Icircumflex" xMin="54" yMin="0" xMax="304" yMax="931">
      <component glyphName="I" x="0" y="0" flags="0x4"/>
      <component glyphName="asciicircum" x="-35" y="271" flags="0x4"/>
    </TTGlyph>
    <TTGlyph name="Idieresis" xMin="54" yMin="0" xMax="293" yMax="831">
      <component glyphName="I" x="0" y="0" flags="0x4"/>
      <component glyphName="dieresis" x="-8" y="290" flags="0x4"/>
    </TTGlyph>
    <TTGlyph name="Igrave" xMin="54" yMin="0" xMax="194" yMax="883">
      <component glyphName="I" x="0" y="0" flags="0x4"/>
      <component glyphName="grave" x="94" y="271" flags="0x4"/>
    </TTGlyph>
    <TTGlyph name="J" xMin="-41" yMin="-143" xMax="284" yMax="700">
      <contour>
        <pt x="-41" y="-143" on="1"/>
        <pt x="-36" y="-103" on="1"/>
        <pt x="0" y="-101" on="0"/>
        <pt x="64" y="-73" on="0"/>
        <pt x="115" y="-23" on="0"/>
        <pt x="150" y="48" on="0"/>
        <pt x="156" y="93" on="1"/>
        <pt x="242" y="700" on="1"/>
        <pt x="284" y="700" on="1"/>
        <pt x="198" y="90" on="1"/>
        <pt x="190" y="34" on="0"/>
        <pt x="146" y="-51" on="0"/>
        <pt x="82" y="-110" on="0"/>
        <pt x="2" y="-142" on="0"/>
      </contour>
    </TTGlyph>
    <TTGlyph name="K" xMin="17" yMin="0" xMax="566" yMax="700">
      <contour>
        <pt x="506" y="0" on="1"/>
        <pt x="455" y="0" on="1"/>
        <pt x="391" y="99" on="0"/>
        <pt x="264" y="294" on="0"/>
        <pt x="200" y="394" on="1"/>
        <pt x="175" y="373" on="0"/>
        <pt x="127" y="332" on="0"/>
        <pt x="102" y="311" on="1"/>
        <pt x="91" y="233" on="0"/>
        <pt x="69" y="78" on="0"/>
        <pt x="58" y="0" on="1"/>
        <pt x="17" y="0" on="1"/>
        <pt x="116" y="700" on="1"/>
        <pt x="157" y="700" on="1"/>
        <pt x="113" y="386" on="1"/>
        <pt x="111" y="378" on="0"/>
        <pt x="108" y="364" on="0"/>
        <pt x="107" y="356" on="1"/>
        <pt x="112" y="362" on="0"/>
        <pt x="123" y="372" on="0"/>
        <pt x="128" y="377" on="1"/>
        <pt x="224" y="458" on="0"/>
        <pt x="415" y="619" on="0"/>
        <pt x="512" y="700" on="1"/>
        <pt x="566" y="700" on="1"/>
        <pt x="481" y="630" on="0"/>
        <pt x="317" y="491" on="0"/>
        <pt x="233" y="421" on="1"/>
        <pt x="302" y="315" on="0"/>
        <pt x="437" y="106" on="0"/>
      </contour>
    </TTGlyph>
    <TTGlyph name="L" xMin="35" yMin="0" xMax="470" yMax="700">
      <contour>
        <pt x="35" y="0" on="1"/>
        <pt x="134" y="700" on="1"/>
        <pt x="175" y="700" on="1"/>
        <pt x="82" y="40" on="1"/>
        <pt x="470" y="40" on="1"/>
        <pt x="464" y="0" on="1"/>
      </contour>
    </TTGlyph>
    <TTGlyph name="M" xMin="48" yMin="0" xMax="883" yMax="732">
      <contour>
        <pt x="151" y="732" on="1"/>
        <pt x="226" y="613" on="0"/>
        <pt x="375" y="376" on="0"/>
        <pt x="450" y="257" on="1"/>
        <pt x="559" y="376" on="0"/>
        <pt x="774" y="613" on="0"/>
        <pt x="883" y="732" on="1"/>
        <pt x="780" y="0" on="1"/>
        <pt x="738" y="0" on="1"/>
        <pt x="801" y="446" on="1"/>
        <pt x="819" y="575" on="1"/>
        <pt x="821" y="585" on="0"/>
        <pt x="825" y="604" on="0"/>
        <pt x="827" y="615" on="1"/>
        <pt x="732" y="505" on="0"/>
        <pt x="537" y="294" on="0"/>
        <pt x="440" y="187" on="1"/>
        <pt x="384" y="277" on="0"/>
        <pt x="274" y="452" on="0"/>
        <pt x="218" y="542" on="1"/>
        <pt x="184" y="596" on="1"/>
        <pt x="182" y="601" on="0"/>
        <pt x="176" y="610" on="0"/>
        <pt x="174" y="615" on="1"/>
        <pt x="173" y="604" on="0"/>
        <pt x="172" y="585" on="0"/>
        <pt x="171" y="575" on="1"/>
        <pt x="90" y="0" on="1"/>
        <pt x="48" y="0" on="1"/>
      </contour>
    </TTGlyph>
    <TTGlyph name="N" xMin="50" yMin="-32" xMax="760" yMax="732">
      <contour>
        <pt x="760" y="700" on="1"/>
        <pt x="657" y="-32" on="1"/>
        <pt x="540" y="129" on="0"/>
        <pt x="310" y="446" on="0"/>
        <pt x="193" y="607" on="1"/>
        <pt x="190" y="614" on="0"/>
        <pt x="182" y="626" on="0"/>
        <pt x="178" y="633" on="1"/>
        <pt x="177" y="625" on="0"/>
        <pt x="177" y="609" on="0"/>
        <pt x="176" y="601" on="1"/>
        <pt x="92" y="0" on="1"/>
        <pt x="50" y="0" on="1"/>
        <pt x="153" y="732" on="1"/>
        <pt x="270" y="569" on="0"/>
        <pt x="499" y="250" on="0"/>
        <pt x="616" y="88" on="1"/>
        <pt x="620" y="81" on="0"/>
        <pt x="628" y="69" on="0"/>
        <pt x="632" y="62" on="1"/>
        <pt x="632" y="70" on="0"/>
        <pt x="632" y="86" on="0"/>
        <pt x="633" y="94" on="1"/>
        <pt x="718" y="700" on="1"/>
      </contour>
    </TTGlyph>
    <TTGlyph name="Ntilde" xMin="50" yMin="-32" xMax="760" yMax="838">
      <component glyphName="N" x="0" y="0" flags="0x204"/>
      <component glyphName="asciitilde" x="202" y="293" flags="0x4"/>
    </TTGlyph>
    <TTGlyph name="O" xMin="51" yMin="-8" xMax="787" yMax="708">
      <contour>
        <pt x="61" y="349" on="1"/>
        <pt x="71" y="423" on="0"/>
        <pt x="146" y="554" on="0"/>
        <pt x="257" y="651" on="0"/>
        <pt x="395" y="708" on="0"/>
        <pt x="469" y="708" on="1"/>
        <pt x="543" y="708" on="0"/>
        <pt x="665" y="651" on="0"/>
        <pt x="749" y="554" on="0"/>
        <pt x="787" y="423" on="0"/>
        <pt x="777" y="349" on="1"/>
        <pt x="767" y="275" on="0"/>
        <pt x="692" y="145" on="0"/>
        <pt x="581" y="48" on="0"/>
        <pt x="442" y="-8" on="0"/>
        <pt x="368" y="-8" on="1"/>
        <pt x="294" y="-8" on="0"/>
        <pt x="172" y="48" on="0"/>
        <pt x="89" y="145" on="0"/>
        <pt x="51" y="275" on="0"/>
      </contour>
      <contour>
        <pt x="103" y="348" on="1"/>
        <pt x="94" y="282" on="0"/>
        <pt x="127" y="167" on="0"/>
        <pt x="200" y="82" on="0"/>
        <pt x="307" y="32" on="0"/>
        <pt x="372" y="32" on="1"/>
        <pt x="438" y="32" on="0"/>
        <pt x="561" y="82" on="0"/>
        <pt x="660" y="168" on="0"/>
        <pt x="726" y="283" on="0"/>
        <pt x="735" y="349" on="1"/>
        <pt x="744" y="415" on="0"/>
        <pt x="711" y="531" on="0"/>
        <pt x="637" y="618" on="0"/>
        <pt x="529" y="668" on="0"/>
        <pt x="464" y="668" on="1"/>
        <pt x="399" y="668" on="0"/>
        <pt x="277" y="617" on="0"/>
        <pt x="179" y="530" on="0"/>
        <pt x="112" y="414" on="0"/>
      </contour>
    </TTGlyph>
    <TTGlyph name="Oacute" xMin="51" yMin="-8" xMax="787" yMax="883">
      <component glyphName="O" x="0" y="0" flags="0x204"/>
      <component glyphName="acute" x="373" y="271" flags="0x4"/>
    </TTGlyph>
    <TTGlyph name="Ocircumflex" xMin="51" yMin="-8" xMax="787" yMax="931">
      <component glyphName="O" x="0" y="0" flags="0x4"/>
      <component glyphName="asciicircum" x="259" y="271" flags="0x4"/>
    </TTGlyph>
    <TTGlyph name="Odieresis" xMin="51" yMin="-8" xMax="787" yMax="831">
      <component glyphName="O" x="0" y="0" flags="0x4"/>
      <component glyphName="dieresis" x="287" y="290" flags="0x4"/>
    </TTGlyph>
    <TTGlyph name="Ograve" xMin="51" yMin="-8" xMax="787" yMax="883">
      <component glyphName="O" x="0" y="0" flags="0x4"/>
      <component glyphName="grave" x="389" y="271" flags="0x4"/>
    </TTGlyph>
    <TTGlyph name="Oslash" xMin="50" yMin="-12" xMax="788" yMax="712">
      <contour>
        <pt x="103" y="348" on="1"/>
        <pt x="93" y="282" on="0"/>
        <pt x="127" y="166" on="0"/>
        <pt x="165" y="123" on="1"/>
        <pt x="284" y="245" on="0"/>
        <pt x="521" y="485" on="0"/>
        <pt x="640" y="606" on="1"/>
        <pt x="605" y="635" on="0"/>
        <pt x="515" y="668" on="0"/>
        <pt x="463" y="668" on="1"/>
        <pt x="398" y="668" on="0"/>
        <pt x="276" y="617" on="0"/>
        <pt x="179" y="530" on="0"/>
        <pt x="112" y="414" on="0"/>
      </contour>
      <contour>
        <pt x="372" y="32" on="1"/>
        <pt x="437" y="32" on="0"/>
        <pt x="560" y="82" on="0"/>
        <pt x="659" y="168" on="0"/>
        <pt x="726" y="283" on="0"/>
        <pt x="735" y="349" on="1"/>
        <pt x="745" y="418" on="0"/>
        <pt x="707" y="537" on="0"/>
        <pt x="665" y="581" on="1"/>
        <pt x="545" y="460" on="0"/>
        <pt x="309" y="219" on="0"/>
        <pt x="190" y="98" on="1"/>
        <pt x="225" y="66" on="0"/>
        <pt x="317" y="32" on="0"/>
      </contour>
      <contour>
        <pt x="61" y="349" on="1"/>
        <pt x="71" y="423" on="0"/>
        <pt x="146" y="554" on="0"/>
        <pt x="257" y="651" on="0"/>
        <pt x="395" y="708" on="0"/>
        <pt x="469" y="708" on="1"/>
        <pt x="529" y="708" on="0"/>
        <pt x="631" y="671" on="0"/>
        <pt x="672" y="637" on="1"/>
        <pt x="690" y="656" on="0"/>
        <pt x="727" y="693" on="0"/>
        <pt x="745" y="712" on="1"/>
        <pt x="751" y="706" on="0"/>
        <pt x="764" y="694" on="0"/>
        <pt x="770" y="687" on="1"/>
        <pt x="752" y="668" on="0"/>
        <pt x="716" y="632" on="0"/>
        <pt x="697" y="613" on="1"/>
        <pt x="745" y="564" on="0"/>
        <pt x="788" y="427" on="0"/>
        <pt x="777" y="349" on="1"/>
        <pt x="767" y="275" on="0"/>
        <pt x="692" y="145" on="0"/>
        <pt x="581" y="48" on="0"/>
        <pt x="442" y="-8" on="0"/>
        <pt x="368" y="-8" on="1"/>
        <pt x="305" y="-8" on="0"/>
        <pt x="200" y="32" on="0"/>
        <pt x="160" y="67" on="1"/>
        <pt x="140" y="47" on="0"/>
        <pt x="102" y="8" on="0"/>
        <pt x="82" y="-12" on="1"/>
        <pt x="76" y="-5" on="0"/>
        <pt x="63" y="7" on="0"/>
        <pt x="57" y="14" on="1"/>
        <pt x="77" y="34" on="0"/>
        <pt x="114" y="72" on="0"/>
        <pt x="134" y="92" on="1"/>
        <pt x="90" y="141" on="0"/>
        <pt x="50" y="273" on="0"/>
      </contour>
    </TTGlyph>
    <TTGlyph name="Otilde" xMin="51" yMin="-8" xMax="787" yMax="872">
      <component glyphName="O" x="0" y="0" flags="0x4"/>
      <component glyphName="asciitilde" x="196" y="327" flags="0x4"/>
    </TTGlyph>
    <TTGlyph name="P" xMin="24" yMin="0" xMax="469" yMax="700">
      <contour>
        <pt x="117" y="370" on="1"/>
        <pt x="221" y="370" on="1"/>
        <pt x="273" y="370" on="0"/>
        <pt x="346" y="398" on="0"/>
        <pt x="393" y="442" on="0"/>
        <pt x="417" y="493" on="0"/>
        <pt x="420" y="517" on="1"/>
        <pt x="424" y="545" on="0"/>
        <pt x="404" y="597" on="0"/>
        <pt x="362" y="637" on="0"/>
        <pt x="301" y="660" on="0"/>
        <pt x="263" y="660" on="1"/>
        <pt x="159" y="660" on="1"/>
      </contour>
      <contour>
        <pt x="24" y="0" on="1"/>
        <pt x="123" y="700" on="1"/>
        <pt x="273" y="700" on="1"/>
        <pt x="304" y="700" on="0"/>
        <pt x="376" y="680" on="0"/>
        <pt x="434" y="636" on="0"/>
        <pt x="469" y="566" on="0"/>
        <pt x="462" y="517" on="1"/>
        <pt x="449" y="431" on="0"/>
        <pt x="325" y="329" on="0"/>
        <pt x="222" y="329" on="1"/>
        <pt x="112" y="329" on="1"/>
        <pt x="65" y="0" on="1"/>
      </contour>
    </TTGlyph>
    <TTGlyph name="Q" xMin="51" yMin="-8" xMax="787" yMax="708">
      <contour>
        <pt x="103" y="348" on="1"/>
        <pt x="94" y="283" on="0"/>
        <pt x="127" y="168" on="0"/>
        <pt x="200" y="82" on="0"/>
        <pt x="307" y="32" on="0"/>
        <pt x="372" y="32" on="1"/>
        <pt x="437" y="32" on="0"/>
        <pt x="560" y="82" on="0"/>
        <pt x="659" y="168" on="0"/>
        <pt x="726" y="283" on="0"/>
        <pt x="735" y="349" on="1"/>
        <pt x="744" y="415" on="0"/>
        <pt x="711" y="531" on="0"/>
        <pt x="637" y="618" on="0"/>
        <pt x="528" y="668" on="0"/>
        <pt x="463" y="668" on="1"/>
        <pt x="398" y="668" on="0"/>
        <pt x="276" y="617" on="0"/>
        <pt x="179" y="530" on="0"/>
        <pt x="112" y="414" on="0"/>
      </contour>
      <contour>
        <pt x="61" y="349" on="1"/>
        <pt x="71" y="423" on="0"/>
        <pt x="146" y="554" on="0"/>
        <pt x="257" y="651" on="0"/>
        <pt x="395" y="708" on="0"/>
        <pt x="469" y="708" on="1"/>
        <pt x="543" y="708" on="0"/>
        <pt x="666" y="651" on="0"/>
        <pt x="750" y="554" on="0"/>
        <pt x="787" y="423" on="0"/>
        <pt x="777" y="349" on="1"/>
        <pt x="770" y="298" on="0"/>
        <pt x="729" y="204" on="0"/>
        <pt x="667" y="125" on="0"/>
        <pt x="588" y="61" on="0"/>
        <pt x="543" y="40" on="1"/>
        <pt x="756" y="40" on="1"/>
        <pt x="750" y="0" on="1"/>
        <pt x="443" y="0" on="1"/>
        <pt x="405" y="-8" on="0"/>
        <pt x="368" y="-8" on="1"/>
        <pt x="294" y="-8" on="0"/>
        <pt x="172" y="48" on="0"/>
        <pt x="89" y="145" on="0"/>
        <pt x="51" y="275" on="0"/>
      </contour>
    </TTGlyph>
    <TTGlyph name="R" xMin="24" yMin="0" xMax="469" yMax="700">
      <contour>
        <pt x="117" y="370" on="1"/>
        <pt x="221" y="370" on="1"/>
        <pt x="273" y="370" on="0"/>
        <pt x="346" y="398" on="0"/>
        <pt x="393" y="442" on="0"/>
        <pt x="417" y="493" on="0"/>
        <pt x="420" y="517" on="1"/>
        <pt x="424" y="545" on="0"/>
        <pt x="404" y="597" on="0"/>
        <pt x="362" y="637" on="0"/>
        <pt x="301" y="660" on="0"/>
        <pt x="263" y="660" on="1"/>
        <pt x="159" y="660" on="1"/>
      </contour>
      <contour>
        <pt x="24" y="0" on="1"/>
        <pt x="123" y="700" on="1"/>
        <pt x="273" y="700" on="1"/>
        <pt x="304" y="700" on="0"/>
        <pt x="376" y="680" on="0"/>
        <pt x="434" y="636" on="0"/>
        <pt x="469" y="566" on="0"/>
        <pt x="462" y="517" on="1"/>
        <pt x="451" y="445" on="0"/>
        <pt x="361" y="350" on="0"/>
        <pt x="286" y="335" on="1"/>
        <pt x="314" y="250" on="0"/>
        <pt x="368" y="84" on="0"/>
        <pt x="396" y="0" on="1"/>
        <pt x="351" y="0" on="1"/>
        <pt x="324" y="84" on="0"/>
        <pt x="269" y="248" on="0"/>
        <pt x="242" y="331" on="1"/>
        <pt x="233" y="330" on="0"/>
        <pt x="215" y="329" on="0"/>
        <pt x="206" y="329" on="1"/>
        <pt x="112" y="329" on="1"/>
        <pt x="65" y="0" on="1"/>
      </contour>
    </TTGlyph>
    <TTGlyph name="S" xMin="30" yMin="-8" xMax="472" yMax="704">
      <contour>
        <pt x="472" y="641" on="1"/>
        <pt x="464" y="633" on="0"/>
        <pt x="452" y="618" on="0"/>
        <pt x="445" y="610" on="1"/>
        <pt x="437" y="618" on="0"/>
        <pt x="414" y="637" on="0"/>
        <pt x="382" y="653" on="0"/>
        <pt x="340" y="664" on="0"/>
        <pt x="314" y="664" on="1"/>
        <pt x="279" y="664" on="0"/>
        <pt x="224" y="640" on="0"/>
        <pt x="184" y="601" on="0"/>
        <pt x="159" y="551" on="0"/>
        <pt x="155" y="524" on="1"/>
        <pt x="151" y="495" on="0"/>
        <pt x="163" y="455" on="0"/>
        <pt x="192" y="427" on="0"/>
        <pt x="235" y="407" on="0"/>
        <pt x="262" y="397" on="1"/>
        <pt x="292" y="386" on="0"/>
        <pt x="368" y="358" on="0"/>
        <pt x="431" y="311" on="0"/>
        <pt x="468" y="240" on="0"/>
        <pt x="461" y="186" on="1"/>
        <pt x="455" y="142" on="0"/>
        <pt x="411" y="70" on="0"/>
        <pt x="346" y="19" on="0"/>
        <pt x="266" y="-8" on="0"/>
        <pt x="223" y="-8" on="1"/>
        <pt x="184" y="-8" on="0"/>
        <pt x="120" y="12" on="0"/>
        <pt x="72" y="42" on="0"/>
        <pt x="39" y="76" on="0"/>
        <pt x="30" y="89" on="1"/>
        <pt x="61" y="117" on="1"/>
        <pt x="73" y="102" on="0"/>
        <pt x="105" y="71" on="0"/>
        <pt x="144" y="47" on="0"/>
        <pt x="194" y="32" on="0"/>
        <pt x="224" y="32" on="1"/>
        <pt x="258" y="32" on="0"/>
        <pt x="323" y="53" on="0"/>
        <pt x="377" y="93" on="0"/>
        <pt x="414" y="149" on="0"/>
        <pt x="419" y="184" on="1"/>
        <pt x="425" y="229" on="0"/>
        <pt x="394" y="287" on="0"/>
        <pt x="339" y="324" on="0"/>
        <pt x="272" y="347" on="0"/>
        <pt x="244" y="357" on="1"/>
        <pt x="223" y="365" on="0"/>
        <pt x="174" y="388" on="0"/>
        <pt x="133" y="424" on="0"/>
        <pt x="109" y="478" on="0"/>
        <pt x="113" y="517" on="1"/>
        <pt x="116" y="550" on="0"/>
        <pt x="144" y="617" on="0"/>
        <pt x="196" y="670" on="0"/>
        <pt x="271" y="704" on="0"/>
        <pt x="321" y="704" on="1"/>
        <pt x="359" y="704" on="0"/>
        <pt x="434" y="678" on="0"/>
      </contour>
    </TTGlyph>
    <TTGlyph name="T" xMin="43" yMin="0" xMax="602" yMax="700">
      <contour>
        <pt x="602" y="700" on="1"/>
        <pt x="596" y="660" on="1"/>
        <pt x="341" y="660" on="1"/>
        <pt x="247" y="0" on="1"/>
        <pt x="206" y="0" on="1"/>
        <pt x="299" y="660" on="1"/>
        <pt x="43" y="660" on="1"/>
        <pt x="49" y="700" on="1"/>
      </contour>
    </TTGlyph>
    <TTGlyph name="Thorn" xMin="50" yMin="0" xMax="471" yMax="700">
      <contour>
        <pt x="121" y="205" on="1"/>
        <pt x="224" y="205" on="1"/>
        <pt x="276" y="205" on="0"/>
        <pt x="349" y="233" on="0"/>
        <pt x="396" y="277" on="0"/>
        <pt x="420" y="328" on="0"/>
        <pt x="423" y="352" on="1"/>
        <pt x="427" y="380" on="0"/>
        <pt x="408" y="432" on="0"/>
        <pt x="366" y="472" on="0"/>
        <pt x="304" y="495" on="0"/>
        <pt x="267" y="495" on="1"/>
        <pt x="162" y="495" on="1"/>
      </contour>
      <contour>
        <pt x="92" y="0" on="1"/>
        <pt x="50" y="0" on="1"/>
        <pt x="149" y="700" on="1"/>
        <pt x="191" y="700" on="1"/>
        <pt x="168" y="535" on="1"/>
        <pt x="276" y="535" on="1"/>
        <pt x="307" y="535" on="0"/>
        <pt x="379" y="515" on="0"/>
        <pt x="437" y="471" on="0"/>
        <pt x="471" y="401" on="0"/>
        <pt x="464" y="352" on="1"/>
        <pt x="453" y="266" on="0"/>
        <pt x="329" y="164" on="0"/>
        <pt x="226" y="164" on="1"/>
        <pt x="115" y="164" on="1"/>
      </contour>
    </TTGlyph>
    <TTGlyph name="U" xMin="67" yMin="-8" xMax="613" yMax="700">
      <contour>
        <pt x="277" y="-8" on="1"/>
        <pt x="226" y="-8" on="0"/>
        <pt x="144" y="22" on="0"/>
        <pt x="90" y="81" on="0"/>
        <pt x="67" y="169" on="0"/>
        <pt x="75" y="226" on="1"/>
        <pt x="141" y="700" on="1"/>
        <pt x="182" y="700" on="1"/>
        <pt x="116" y="229" on="1"/>
        <pt x="110" y="181" on="0"/>
        <pt x="128" y="108" on="0"/>
        <pt x="173" y="58" on="0"/>
        <pt x="241" y="32" on="0"/>
        <pt x="283" y="32" on="1"/>
        <pt x="325" y="32" on="0"/>
        <pt x="400" y="58" on="0"/>
        <pt x="459" y="108" on="0"/>
        <pt x="498" y="181" on="0"/>
        <pt x="505" y="229" on="1"/>
        <pt x="571" y="700" on="1"/>
        <pt x="613" y="700" on="1"/>
        <pt x="547" y="226" on="1"/>
        <pt x="539" y="169" on="0"/>
        <pt x="490" y="81" on="0"/>
        <pt x="418" y="22" on="0"/>
        <pt x="327" y="-8" on="0"/>
      </contour>
    </TTGlyph>
    <TTGlyph name="Uacute" xMin="68" yMin="-8" xMax="614" yMax="883">
      <component glyphName="U" x="1" y="0" flags="0x204"/>
      <component glyphName="acute" x="271" y="271" flags="0x4"/>
    </TTGlyph>
    <TTGlyph name="Ucircumflex" xMin="68" yMin="-8" xMax="614" yMax="932">
      <component glyphName="U" x="1" y="0" flags="0x204"/>
      <component glyphName="asciicircum" x="167" y="272" flags="0x4"/>
    </TTGlyph>
    <TTGlyph name="Udieresis" xMin="68" yMin="-8" xMax="614" yMax="831">
      <component glyphName="U" x="1" y="0" flags="0x204"/>
      <component glyphName="dieresis" x="212" y="290" flags="0x4"/>
    </TTGlyph>
    <TTGlyph name="Ugrave" xMin="68" yMin="-8" xMax="614" yMax="883">
      <component glyphName="U" x="1" y="0" flags="0x204"/>
      <component glyphName="grave" x="293" y="271" flags="0x4"/>
    </TTGlyph>
    <TTGlyph name="V" xMin="105" yMin="-32" xMax="725" yMax="700">
      <contour>
        <pt x="683" y="700" on="1"/>
        <pt x="725" y="700" on="1"/>
        <pt x="622" y="516" on="0"/>
        <pt x="415" y="152" on="0"/>
        <pt x="312" y="-32" on="1"/>
        <pt x="105" y="700" on="1"/>
        <pt x="147" y="700" on="1"/>
        <pt x="191" y="546" on="0"/>
        <pt x="277" y="243" on="0"/>
        <pt x="320" y="89" on="1"/>
        <pt x="322" y="82" on="0"/>
        <pt x="323" y="68" on="0"/>
        <pt x="325" y="61" on="1"/>
        <pt x="328" y="68" on="0"/>
        <pt x="335" y="82" on="0"/>
        <pt x="338" y="89" on="1"/>
        <pt x="425" y="243" on="0"/>
        <pt x="596" y="546" on="0"/>
      </contour>
    </TTGlyph>
    <TTGlyph name="W" xMin="105" yMin="-32" xMax="1097" yMax="700">
      <contour>
        <pt x="1055" y="700" on="1"/>
        <pt x="1097" y="700" on="1"/>
        <pt x="994" y="516" on="0"/>
        <pt x="787" y="152" on="0"/>
        <pt x="684" y="-32" on="1"/>
        <pt x="566" y="385" on="1"/>
        <pt x="564" y="392" on="0"/>
        <pt x="562" y="405" on="0"/>
        <pt x="561" y="412" on="1"/>
        <pt x="505" y="301" on="0"/>
        <pt x="374" y="77" on="0"/>
        <pt x="312" y="-32" on="1"/>
        <pt x="105" y="700" on="1"/>
        <pt x="147" y="700" on="1"/>
        <pt x="190" y="546" on="0"/>
        <pt x="275" y="242" on="0"/>
        <pt x="320" y="89" on="1"/>
        <pt x="322" y="82" on="0"/>
        <pt x="323" y="68" on="0"/>
        <pt x="325" y="61" on="1"/>
        <pt x="373" y="161" on="0"/>
        <pt x="491" y="359" on="0"/>
        <pt x="546" y="457" on="1"/>
        <pt x="529" y="519" on="0"/>
        <pt x="494" y="639" on="0"/>
        <pt x="477" y="700" on="1"/>
        <pt x="520" y="700" on="1"/>
        <pt x="562" y="546" on="0"/>
        <pt x="648" y="242" on="0"/>
        <pt x="693" y="89" on="1"/>
        <pt x="694" y="82" on="0"/>
        <pt x="696" y="68" on="0"/>
        <pt x="698" y="61" on="1"/>
        <pt x="701" y="68" on="0"/>
        <pt x="707" y="82" on="0"/>
        <pt x="711" y="89" on="1"/>
        <pt x="798" y="243" on="0"/>
        <pt x="968" y="546" on="0"/>
      </contour>
    </TTGlyph>
    <TTGlyph name="X" xMin="43" yMin="0" xMax="650" yMax="700">
      <contour>
        <pt x="325" y="359" on="1"/>
        <pt x="282" y="444" on="0"/>
        <pt x="195" y="615" on="0"/>
        <pt x="152" y="700" on="1"/>
        <pt x="202" y="700" on="1"/>
        <pt x="277" y="555" on="0"/>
        <pt x="351" y="408" on="1"/>
        <pt x="353" y="403" on="0"/>
        <pt x="357" y="395" on="0"/>
        <pt x="359" y="390" on="1"/>
        <pt x="371" y="408" on="1"/>
        <pt x="428" y="481" on="0"/>
        <pt x="543" y="627" on="0"/>
        <pt x="600" y="700" on="1"/>
        <pt x="650" y="700" on="1"/>
        <pt x="582" y="613" on="0"/>
        <pt x="447" y="441" on="0"/>
        <pt x="379" y="354" on="1"/>
        <pt x="424" y="265" on="0"/>
        <pt x="514" y="89" on="0"/>
        <pt x="559" y="0" on="1"/>
        <pt x="508" y="0" on="1"/>
        <pt x="370" y="271" on="1"/>
        <pt x="363" y="283" on="0"/>
        <pt x="352" y="311" on="0"/>
        <pt x="345" y="323" on="1"/>
        <pt x="342" y="318" on="0"/>
        <pt x="335" y="309" on="0"/>
        <pt x="332" y="304" on="1"/>
        <pt x="272" y="228" on="0"/>
        <pt x="154" y="77" on="0"/>
        <pt x="94" y="0" on="1"/>
        <pt x="43" y="0" on="1"/>
        <pt x="114" y="91" on="0"/>
        <pt x="254" y="268" on="0"/>
      </contour>
    </TTGlyph>
    <TTGlyph name="Y" xMin="83" yMin="0" xMax="650" yMax="700">
      <contour>
        <pt x="330" y="265" on="1"/>
        <pt x="293" y="0" on="1"/>
        <pt x="243" y="0" on="1"/>
        <pt x="281" y="265" on="1"/>
        <pt x="83" y="700" on="1"/>
        <pt x="134" y="700" on="1"/>
        <pt x="176" y="606" on="0"/>
        <pt x="260" y="424" on="0"/>
        <pt x="302" y="330" on="1"/>
        <pt x="304" y="322" on="0"/>
        <pt x="309" y="309" on="0"/>
        <pt x="311" y="302" on="1"/>
        <pt x="312" y="302" on="1"/>
        <pt x="316" y="309" on="0"/>
        <pt x="322" y="322" on="0"/>
        <pt x="326" y="330" on="1"/>
        <pt x="395" y="423" on="0"/>
        <pt x="530" y="606" on="0"/>
        <pt x="599" y="700" on="1"/>
        <pt x="650" y="700" on="1"/>
        <pt x="569" y="591" on="0"/>
        <pt x="411" y="374" on="0"/>
      </contour>
    </TTGlyph>
    <TTGlyph name="Yacute" xMin="83" yMin="0" xMax="650" yMax="883">
      <component glyphName="Y" x="0" y="0" flags="0x204"/>
      <component glyphName="acute" x="264" y="271" flags="0x4"/>
    </TTGlyph>
    <TTGlyph name="Z" xMin="81" yMin="0" xMax="709" yMax="735">
      <contour>
        <pt x="268" y="700" on="1"/>
        <pt x="709" y="700" on="1"/>
        <pt x="703" y="660" on="1"/>
        <pt x="561" y="505" on="0"/>
        <pt x="281" y="196" on="0"/>
        <pt x="139" y="40" on="1"/>
        <pt x="645" y="40" on="1"/>
        <pt x="640" y="0" on="1"/>
        <pt x="81" y="0" on="1"/>
        <pt x="86" y="40" on="1"/>
        <pt x="228" y="196" on="0"/>
        <pt x="508" y="505" on="0"/>
        <pt x="651" y="660" on="1"/>
        <pt x="256" y="660" on="1"/>
        <pt x="225" y="660" on="0"/>
        <pt x="193" y="684" on="0"/>
        <pt x="197" y="713" on="1"/>
        <pt x="201" y="735" on="1"/>
        <pt x="243" y="735" on="1"/>
        <pt x="241" y="723" on="1"/>
        <pt x="239" y="711" on="0"/>
        <pt x="251" y="700" on="0"/>
      </contour>
    </TTGlyph>
    <TTGlyph name="a" xMin="69" yMin="-7" xMax="495" yMax="383">
      <contour>
        <pt x="117" y="188" on="1"/>
        <pt x="112" y="156" on="0"/>
        <pt x="128" y="100" on="0"/>
        <pt x="164" y="58" on="0"/>
        <pt x="217" y="34" on="0"/>
        <pt x="250" y="34" on="1"/>
        <pt x="283" y="34" on="0"/>
        <pt x="343" y="58" on="0"/>
        <pt x="391" y="100" on="0"/>
        <pt x="422" y="156" on="0"/>
        <pt x="427" y="188" on="1"/>
        <pt x="431" y="220" on="0"/>
        <pt x="415" y="277" on="0"/>
        <pt x="379" y="319" on="0"/>
        <pt x="326" y="343" on="0"/>
        <pt x="293" y="343" on="1"/>
        <pt x="260" y="343" on="0"/>
        <pt x="201" y="319" on="0"/>
        <pt x="153" y="277" on="0"/>
        <pt x="121" y="220" on="0"/>
      </contour>
      <contour>
        <pt x="75" y="188" on="1"/>
        <pt x="81" y="231" on="0"/>
        <pt x="122" y="303" on="0"/>
        <pt x="183" y="354" on="0"/>
        <pt x="258" y="383" on="0"/>
        <pt x="299" y="383" on="1"/>
        <pt x="328" y="383" on="0"/>
        <pt x="378" y="366" on="0"/>
        <pt x="416" y="339" on="0"/>
        <pt x="441" y="304" on="0"/>
        <pt x="445" y="287" on="1"/>
        <pt x="448" y="309" on="0"/>
        <pt x="457" y="353" on="0"/>
        <pt x="461" y="375" on="1"/>
        <pt x="495" y="375" on="1"/>
        <pt x="443" y="0" on="1"/>
        <pt x="405" y="0" on="1"/>
        <pt x="411" y="45" on="1"/>
        <pt x="413" y="56" on="0"/>
        <pt x="416" y="76" on="0"/>
        <pt x="417" y="87" on="1"/>
        <pt x="408" y="70" on="0"/>
        <pt x="375" y="36" on="0"/>
        <pt x="330" y="9" on="0"/>
        <pt x="275" y="-7" on="0"/>
        <pt x="244" y="-7" on="1"/>
        <pt x="203" y="-7" on="0"/>
        <pt x="135" y="24" on="0"/>
        <pt x="90" y="76" on="0"/>
        <pt x="69" y="147" on="0"/>
      </contour>
    </TTGlyph>
    <TTGlyph name="aacute" xMin="69" yMin="-7" xMax="495" yMax="612">
      <component glyphName="a" x="0" y="0" flags="0x4"/>
      <component glyphName="acute" x="209" y="0" flags="0x4"/>
    </TTGlyph>
    <TTGlyph name="acircumflex" xMin="69" yMin="-7" xMax="495" yMax="660">
      <component glyphName="a" x="0" y="0" flags="0x4"/>
      <component glyphName="asciicircum" x="106" y="0" flags="0x4"/>
    </TTGlyph>
    <TTGlyph name="acute" xMin="90" yMin="479" xMax="242" yMax="612">
      <contour>
        <pt x="90" y="479" on="1"/>
        <pt x="117" y="512" on="0"/>
        <pt x="172" y="579" on="0"/>
        <pt x="199" y="612" on="1"/>
        <pt x="242" y="612" on="1"/>
        <pt x="213" y="579" on="0"/>
        <pt x="152" y="512" on="0"/>
        <pt x="123" y="479" on="1"/>
      </contour>
    </TTGlyph>
    <TTGlyph name="adieresis" xMin="69" yMin="-7" xMax="495" yMax="541">
      <component glyphName="a" x="0" y="0" flags="0x4"/>
      <component glyphName="dieresis" x="141" y="0" flags="0x4"/>
    </TTGlyph>
    <TTGlyph name="ae" xMin="29" yMin="-8" xMax="577" yMax="384">
      <contour>
        <pt x="367" y="243" on="1"/>
        <pt x="362" y="205" on="1"/>
        <pt x="404" y="220" on="0"/>
        <pt x="485" y="251" on="0"/>
        <pt x="527" y="266" on="1"/>
        <pt x="514" y="301" on="0"/>
        <pt x="457" y="343" on="0"/>
        <pt x="419" y="343" on="1"/>
        <pt x="402" y="343" on="0"/>
        <pt x="371" y="336" on="0"/>
        <pt x="357" y="331" on="1"/>
        <pt x="368" y="317" on="0"/>
        <pt x="372" y="274" on="0"/>
      </contour>
      <contour>
        <pt x="314" y="162" on="1"/>
        <pt x="235" y="162" on="1"/>
        <pt x="220" y="162" on="0"/>
        <pt x="169" y="162" on="0"/>
        <pt x="118" y="151" on="0"/>
        <pt x="79" y="127" on="0"/>
        <pt x="76" y="103" on="1"/>
        <pt x="73" y="81" on="0"/>
        <pt x="91" y="54" on="0"/>
        <pt x="123" y="39" on="0"/>
        <pt x="164" y="33" on="0"/>
        <pt x="183" y="33" on="1"/>
        <pt x="202" y="33" on="0"/>
        <pt x="243" y="39" on="0"/>
        <pt x="278" y="55" on="0"/>
        <pt x="303" y="84" on="0"/>
        <pt x="306" y="108" on="1"/>
      </contour>
      <contour>
        <pt x="114" y="311" on="1"/>
        <pt x="109" y="318" on="0"/>
        <pt x="98" y="332" on="0"/>
        <pt x="93" y="339" on="1"/>
        <pt x="104" y="348" on="0"/>
        <pt x="138" y="365" on="0"/>
        <pt x="175" y="377" on="0"/>
        <pt x="215" y="384" on="0"/>
        <pt x="232" y="384" on="1"/>
        <pt x="305" y="384" on="0"/>
        <pt x="337" y="365" on="1"/>
        <pt x="380" y="384" on="0"/>
        <pt x="425" y="384" on="1"/>
        <pt x="455" y="384" on="0"/>
        <pt x="506" y="363" on="0"/>
        <pt x="545" y="325" on="0"/>
        <pt x="572" y="274" on="0"/>
        <pt x="577" y="243" on="1"/>
        <pt x="522" y="223" on="0"/>
        <pt x="411" y="181" on="0"/>
        <pt x="356" y="161" on="1"/>
        <pt x="353" y="145" on="1"/>
        <pt x="351" y="130" on="1"/>
        <pt x="347" y="101" on="0"/>
        <pt x="330" y="62" on="0"/>
        <pt x="313" y="47" on="1"/>
        <pt x="340" y="34" on="0"/>
        <pt x="376" y="34" on="1"/>
        <pt x="406" y="34" on="0"/>
        <pt x="464" y="56" on="0"/>
        <pt x="487" y="76" on="1"/>
        <pt x="508" y="46" on="1"/>
        <pt x="479" y="21" on="0"/>
        <pt x="408" y="-7" on="0"/>
        <pt x="370" y="-7" on="1"/>
        <pt x="320" y="-7" on="0"/>
        <pt x="283" y="14" on="1"/>
        <pt x="245" y="-8" on="0"/>
        <pt x="177" y="-8" on="1"/>
        <pt x="141" y="-8" on="0"/>
        <pt x="84" y="3" on="0"/>
        <pt x="46" y="28" on="0"/>
        <pt x="29" y="71" on="0"/>
        <pt x="34" y="104" on="1"/>
        <pt x="38" y="132" on="0"/>
        <pt x="69" y="171" on="0"/>
        <pt x="113" y="195" on="0"/>
        <pt x="168" y="205" on="0"/>
        <pt x="196" y="205" on="1"/>
        <pt x="320" y="205" on="1"/>
        <pt x="326" y="245" on="1"/>
        <pt x="329" y="270" on="0"/>
        <pt x="326" y="307" on="0"/>
        <pt x="305" y="331" on="0"/>
        <pt x="262" y="343" on="0"/>
        <pt x="225" y="343" on="1"/>
        <pt x="212" y="343" on="0"/>
        <pt x="180" y="337" on="0"/>
        <pt x="150" y="328" on="0"/>
        <pt x="123" y="317" on="0"/>
      </contour>
    </TTGlyph>
    <TTGlyph name="agrave" xMin="69" yMin="-7" xMax="495" yMax="612">
      <component glyphName="a" x="0" y="0" flags="0x4"/>
      <component glyphName="grave" x="231" y="0" flags="0x4"/>
    </TTGlyph>
    <TTGlyph name="ampersand" xMin="73" yMin="-19" xMax="602" yMax="750">
      <contour>
        <pt x="120" y="187" on="1"/>
        <pt x="115" y="155" on="0"/>
        <pt x="131" y="99" on="0"/>
        <pt x="167" y="57" on="0"/>
        <pt x="221" y="33" on="0"/>
        <pt x="254" y="33" on="1"/>
        <pt x="297" y="33" on="0"/>
        <pt x="372" y="74" on="0"/>
        <pt x="396" y="107" on="1"/>
        <pt x="369" y="166" on="0"/>
        <pt x="314" y="282" on="0"/>
        <pt x="286" y="341" on="1"/>
        <pt x="254" y="338" on="0"/>
        <pt x="198" y="313" on="0"/>
        <pt x="154" y="273" on="0"/>
        <pt x="124" y="218" on="0"/>
      </contour>
      <contour>
        <pt x="478" y="227" on="1"/>
        <pt x="472" y="187" on="1"/>
        <pt x="470" y="165" on="0"/>
        <pt x="453" y="126" on="0"/>
        <pt x="442" y="108" on="1"/>
        <pt x="455" y="82" on="0"/>
        <pt x="480" y="29" on="0"/>
        <pt x="492" y="3" on="1"/>
        <pt x="483" y="-2" on="0"/>
        <pt x="466" y="-14" on="0"/>
        <pt x="457" y="-19" on="1"/>
        <pt x="446" y="3" on="0"/>
        <pt x="426" y="47" on="0"/>
        <pt x="415" y="68" on="1"/>
        <pt x="383" y="33" on="0"/>
        <pt x="296" y="-8" on="0"/>
        <pt x="248" y="-8" on="1"/>
        <pt x="207" y="-8" on="0"/>
        <pt x="139" y="23" on="0"/>
        <pt x="94" y="75" on="0"/>
        <pt x="73" y="146" on="0"/>
        <pt x="79" y="187" on="1"/>
        <pt x="84" y="223" on="0"/>
        <pt x="117" y="288" on="0"/>
        <pt x="168" y="339" on="0"/>
        <pt x="232" y="373" on="0"/>
        <pt x="268" y="379" on="1"/>
        <pt x="254" y="408" on="0"/>
        <pt x="227" y="467" on="0"/>
        <pt x="213" y="496" on="1"/>
        <pt x="199" y="526" on="0"/>
        <pt x="194" y="590" on="0"/>
        <pt x="212" y="652" on="0"/>
        <pt x="256" y="706" on="0"/>
        <pt x="292" y="726" on="1"/>
        <pt x="323" y="743" on="0"/>
        <pt x="382" y="750" on="0"/>
        <pt x="436" y="740" on="0"/>
        <pt x="483" y="718" on="0"/>
        <pt x="500" y="706" on="1"/>
        <pt x="489" y="687" on="0"/>
        <pt x="478" y="672" on="1"/>
        <pt x="462" y="682" on="0"/>
        <pt x="423" y="701" on="0"/>
        <pt x="381" y="710" on="0"/>
        <pt x="336" y="706" on="0"/>
        <pt x="314" y="693" on="1"/>
        <pt x="255" y="659" on="0"/>
        <pt x="229" y="557" on="0"/>
        <pt x="252" y="508" on="1"/>
        <pt x="293" y="423" on="0"/>
        <pt x="372" y="253" on="0"/>
        <pt x="413" y="168" on="1"/>
        <pt x="423" y="186" on="0"/>
        <pt x="437" y="223" on="0"/>
        <pt x="441" y="243" on="1"/>
        <pt x="447" y="285" on="1"/>
        <pt x="455" y="321" on="0"/>
        <pt x="480" y="358" on="0"/>
        <pt x="510" y="374" on="0"/>
        <pt x="543" y="375" on="0"/>
        <pt x="561" y="375" on="1"/>
        <pt x="602" y="375" on="1"/>
        <pt x="596" y="334" on="1"/>
        <pt x="544" y="334" on="1"/>
        <pt x="529" y="334" on="0"/>
        <pt x="508" y="324" on="0"/>
        <pt x="493" y="299" on="0"/>
        <pt x="482" y="258" on="0"/>
      </contour>
    </TTGlyph>
    <TTGlyph name="aring" xMin="69" yMin="-7" xMax="495" yMax="613">
      <contour>
        <pt x="283" y="540" on="1"/>
        <pt x="281" y="523" on="0"/>
        <pt x="303" y="497" on="0"/>
        <pt x="320" y="497" on="1"/>
        <pt x="337" y="497" on="0"/>
        <pt x="366" y="523" on="0"/>
        <pt x="368" y="540" on="1"/>
        <pt x="370" y="557" on="0"/>
        <pt x="348" y="582" on="0"/>
        <pt x="331" y="582" on="1"/>
        <pt x="314" y="582" on="0"/>
        <pt x="285" y="557" on="0"/>
      </contour>
      <contour>
        <pt x="252" y="540" on="1"/>
        <pt x="257" y="570" on="0"/>
        <pt x="305" y="613" on="0"/>
        <pt x="336" y="613" on="1"/>
        <pt x="366" y="613" on="0"/>
        <pt x="402" y="570" on="0"/>
        <pt x="398" y="540" on="1"/>
        <pt x="393" y="510" on="0"/>
        <pt x="346" y="467" on="0"/>
        <pt x="315" y="467" on="1"/>
        <pt x="285" y="467" on="0"/>
        <pt x="248" y="510" on="0"/>
      </contour>
      <contour>
        <pt x="117" y="188" on="1"/>
        <pt x="112" y="156" on="0"/>
        <pt x="128" y="100" on="0"/>
        <pt x="164" y="58" on="0"/>
        <pt x="217" y="34" on="0"/>
        <pt x="250" y="34" on="1"/>
        <pt x="283" y="34" on="0"/>
        <pt x="343" y="58" on="0"/>
        <pt x="391" y="100" on="0"/>
        <pt x="422" y="156" on="0"/>
        <pt x="427" y="188" on="1"/>
        <pt x="431" y="220" on="0"/>
        <pt x="415" y="277" on="0"/>
        <pt x="379" y="319" on="0"/>
        <pt x="326" y="343" on="0"/>
        <pt x="293" y="343" on="1"/>
        <pt x="260" y="343" on="0"/>
        <pt x="201" y="319" on="0"/>
        <pt x="153" y="277" on="0"/>
        <pt x="121" y="220" on="0"/>
      </contour>
      <contour>
        <pt x="75" y="188" on="1"/>
        <pt x="81" y="231" on="0"/>
        <pt x="122" y="303" on="0"/>
        <pt x="183" y="354" on="0"/>
        <pt x="258" y="383" on="0"/>
        <pt x="299" y="383" on="1"/>
        <pt x="328" y="383" on="0"/>
        <pt x="378" y="366" on="0"/>
        <pt x="416" y="339" on="0"/>
        <pt x="441" y="304" on="0"/>
        <pt x="445" y="287" on="1"/>
        <pt x="448" y="309" on="0"/>
        <pt x="457" y="353" on="0"/>
        <pt x="461" y="375" on="1"/>
        <pt x="495" y="375" on="1"/>
        <pt x="443" y="0" on="1"/>
        <pt x="405" y="0" on="1"/>
        <pt x="411" y="45" on="1"/>
        <pt x="413" y="56" on="0"/>
        <pt x="416" y="76" on="0"/>
        <pt x="417" y="87" on="1"/>
        <pt x="408" y="70" on="0"/>
        <pt x="375" y="36" on="0"/>
        <pt x="330" y="9" on="0"/>
        <pt x="275" y="-7" on="0"/>
        <pt x="244" y="-7" on="1"/>
        <pt x="203" y="-7" on="0"/>
        <pt x="135" y="24" on="0"/>
        <pt x="90" y="76" on="0"/>
        <pt x="69" y="147" on="0"/>
      </contour>
    </TTGlyph>
    <TTGlyph name="asciicircum" xMin="99" yMin="479" xMax="339" yMax="660">
      <contour>
        <pt x="244" y="660" on="1"/>
        <pt x="268" y="615" on="0"/>
        <pt x="315" y="524" on="0"/>
        <pt x="339" y="479" on="1"/>
        <pt x="306" y="479" on="1"/>
        <pt x="288" y="509" on="0"/>
        <pt x="253" y="570" on="0"/>
        <pt x="236" y="600" on="1"/>
        <pt x="210" y="570" on="0"/>
        <pt x="158" y="509" on="0"/>
        <pt x="132" y="479" on="1"/>
        <pt x="99" y="479" on="1"/>
        <pt x="135" y="524" on="0"/>
        <pt x="208" y="615" on="0"/>
      </contour>
    </TTGlyph>
    <TTGlyph name="asciitilde" xMin="123" yMin="455" xMax="429" yMax="545">
      <contour>
        <pt x="267" y="491" on="1"/>
        <pt x="253" y="508" on="0"/>
        <pt x="230" y="519" on="0"/>
        <pt x="216" y="519" on="1"/>
        <pt x="208" y="519" on="0"/>
        <pt x="188" y="515" on="0"/>
        <pt x="169" y="504" on="0"/>
        <pt x="153" y="484" on="0"/>
        <pt x="149" y="468" on="1"/>
        <pt x="142" y="469" on="0"/>
        <pt x="129" y="469" on="0"/>
        <pt x="123" y="470" on="1"/>
        <pt x="131" y="508" on="0"/>
        <pt x="190" y="545" on="0"/>
        <pt x="219" y="545" on="1"/>
        <pt x="240" y="545" on="0"/>
        <pt x="271" y="526" on="0"/>
        <pt x="285" y="509" on="1"/>
        <pt x="299" y="492" on="0"/>
        <pt x="321" y="481" on="0"/>
        <pt x="335" y="481" on="1"/>
        <pt x="342" y="481" on="0"/>
        <pt x="363" y="485" on="0"/>
        <pt x="383" y="496" on="0"/>
        <pt x="399" y="516" on="0"/>
        <pt x="403" y="532" on="1"/>
        <pt x="410" y="531" on="0"/>
        <pt x="423" y="531" on="0"/>
        <pt x="429" y="530" on="1"/>
        <pt x="421" y="492" on="0"/>
        <pt x="362" y="455" on="0"/>
        <pt x="333" y="455" on="1"/>
        <pt x="312" y="455" on="0"/>
        <pt x="281" y="474" on="0"/>
      </contour>
    </TTGlyph>
    <TTGlyph name="asterisk" xMin="26" yMin="434" xMax="309" yMax="720">
      <contour>
        <pt x="208" y="575" on="1"/>
        <pt x="230" y="562" on="0"/>
        <pt x="272" y="536" on="0"/>
        <pt x="293" y="522" on="1"/>
        <pt x="287" y="513" on="0"/>
        <pt x="273" y="494" on="0"/>
        <pt x="266" y="484" on="1"/>
        <pt x="182" y="538" on="1"/>
        <pt x="177" y="512" on="0"/>
        <pt x="170" y="460" on="0"/>
        <pt x="165" y="434" on="1"/>
        <pt x="125" y="434" on="1"/>
        <pt x="140" y="538" on="1"/>
        <pt x="92" y="513" on="0"/>
        <pt x="42" y="486" on="1"/>
        <pt x="38" y="496" on="0"/>
        <pt x="30" y="515" on="0"/>
        <pt x="26" y="525" on="1"/>
        <pt x="50" y="538" on="0"/>
        <pt x="99" y="563" on="0"/>
        <pt x="124" y="576" on="1"/>
        <pt x="103" y="590" on="0"/>
        <pt x="62" y="616" on="0"/>
        <pt x="41" y="630" on="1"/>
        <pt x="47" y="639" on="0"/>
        <pt x="60" y="657" on="0"/>
        <pt x="65" y="665" on="1"/>
        <pt x="87" y="651" on="0"/>
        <pt x="129" y="625" on="0"/>
        <pt x="150" y="611" on="1"/>
        <pt x="166" y="720" on="1"/>
        <pt x="210" y="720" on="1"/>
        <pt x="205" y="693" on="0"/>
        <pt x="198" y="639" on="0"/>
        <pt x="193" y="611" on="1"/>
        <pt x="219" y="625" on="0"/>
        <pt x="269" y="651" on="0"/>
        <pt x="294" y="664" on="1"/>
        <pt x="303" y="648" on="0"/>
        <pt x="309" y="629" on="1"/>
        <pt x="284" y="615" on="0"/>
        <pt x="234" y="589" on="0"/>
      </contour>
    </TTGlyph>
    <TTGlyph name="at" xMin="70" yMin="-217" xMax="906" yMax="595">
      <contour>
        <pt x="332" y="188" on="1"/>
        <pt x="327" y="156" on="0"/>
        <pt x="343" y="100" on="0"/>
        <pt x="379" y="58" on="0"/>
        <pt x="433" y="34" on="0"/>
        <pt x="466" y="34" on="1"/>
        <pt x="499" y="34" on="0"/>
        <pt x="558" y="58" on="0"/>
        <pt x="606" y="100" on="0"/>
        <pt x="637" y="156" on="0"/>
        <pt x="642" y="188" on="1"/>
        <pt x="647" y="220" on="0"/>
        <pt x="631" y="277" on="0"/>
        <pt x="595" y="319" on="0"/>
        <pt x="542" y="343" on="0"/>
        <pt x="509" y="343" on="1"/>
        <pt x="476" y="343" on="0"/>
        <pt x="417" y="319" on="0"/>
        <pt x="369" y="277" on="0"/>
        <pt x="337" y="220" on="0"/>
      </contour>
      <contour>
        <pt x="894" y="188" on="1"/>
        <pt x="883" y="131" on="0"/>
        <pt x="843" y="58" on="0"/>
        <pt x="792" y="16" on="0"/>
        <pt x="736" y="0" on="0"/>
        <pt x="710" y="0" on="1"/>
        <pt x="620" y="0" on="1"/>
        <pt x="626" y="40" on="1"/>
        <pt x="628" y="52" on="0"/>
        <pt x="631" y="75" on="0"/>
        <pt x="633" y="86" on="1"/>
        <pt x="624" y="69" on="0"/>
        <pt x="590" y="35" on="0"/>
        <pt x="545" y="9" on="0"/>
        <pt x="490" y="-7" on="0"/>
        <pt x="460" y="-7" on="1"/>
        <pt x="419" y="-7" on="0"/>
        <pt x="351" y="24" on="0"/>
        <pt x="305" y="76" on="0"/>
        <pt x="284" y="147" on="0"/>
        <pt x="290" y="188" on="1"/>
        <pt x="296" y="228" on="0"/>
        <pt x="337" y="299" on="0"/>
        <pt x="398" y="352" on="0"/>
        <pt x="474" y="383" on="0"/>
        <pt x="515" y="383" on="1"/>
        <pt x="544" y="383" on="0"/>
        <pt x="593" y="366" on="0"/>
        <pt x="631" y="339" on="0"/>
        <pt x="655" y="305" on="0"/>
        <pt x="660" y="287" on="1"/>
        <pt x="664" y="309" on="0"/>
        <pt x="672" y="353" on="0"/>
        <pt x="677" y="375" on="1"/>
        <pt x="711" y="375" on="1"/>
        <pt x="664" y="40" on="1"/>
        <pt x="719" y="40" on="1"/>
        <pt x="768" y="40" on="0"/>
        <pt x="838" y="110" on="0"/>
        <pt x="852" y="188" on="1"/>
        <pt x="863" y="264" on="0"/>
        <pt x="825" y="398" on="0"/>
        <pt x="740" y="497" on="0"/>
        <pt x="615" y="554" on="0"/>
        <pt x="540" y="554" on="1"/>
        <pt x="464" y="554" on="0"/>
        <pt x="323" y="497" on="0"/>
        <pt x="210" y="398" on="0"/>
        <pt x="134" y="264" on="0"/>
        <pt x="123" y="188" on="1"/>
        <pt x="113" y="112" on="0"/>
        <pt x="152" y="-20" on="0"/>
        <pt x="237" y="-119" on="0"/>
        <pt x="362" y="-176" on="0"/>
        <pt x="437" y="-176" on="1"/>
        <pt x="498" y="-176" on="0"/>
        <pt x="611" y="-140" on="0"/>
        <pt x="662" y="-108" on="1"/>
        <pt x="683" y="-138" on="1"/>
        <pt x="628" y="-176" on="0"/>
        <pt x="497" y="-217" on="0"/>
        <pt x="431" y="-217" on="1"/>
        <pt x="347" y="-217" on="0"/>
        <pt x="208" y="-153" on="0"/>
        <pt x="114" y="-43" on="0"/>
        <pt x="70" y="105" on="0"/>
        <pt x="82" y="189" on="1"/>
        <pt x="94" y="273" on="0"/>
        <pt x="178" y="421" on="0"/>
        <pt x="304" y="531" on="0"/>
        <pt x="462" y="595" on="0"/>
        <pt x="546" y="595" on="1"/>
        <pt x="630" y="595" on="0"/>
        <pt x="769" y="531" on="0"/>
        <pt x="863" y="421" on="0"/>
        <pt x="906" y="273" on="0"/>
      </contour>
    </TTGlyph>
    <TTGlyph name="atilde" xMin="69" yMin="-7" xMax="495" yMax="545">
      <component glyphName="a" x="0" y="0" flags="0x4"/>
      <component glyphName="asciitilde" x="50" y="0" flags="0x4"/>
    </TTGlyph>
    <TTGlyph name="b" xMin="82" yMin="-7" xMax="508" yMax="750">
      <contour>
        <pt x="460" y="188" on="1"/>
        <pt x="464" y="220" on="0"/>
        <pt x="448" y="277" on="0"/>
        <pt x="412" y="319" on="0"/>
        <pt x="359" y="343" on="0"/>
        <pt x="326" y="343" on="1"/>
        <pt x="293" y="343" on="0"/>
        <pt x="234" y="319" on="0"/>
        <pt x="186" y="277" on="0"/>
        <pt x="154" y="220" on="0"/>
        <pt x="150" y="188" on="1"/>
        <pt x="145" y="156" on="0"/>
        <pt x="161" y="100" on="0"/>
        <pt x="197" y="58" on="0"/>
        <pt x="251" y="34" on="0"/>
        <pt x="284" y="34" on="1"/>
        <pt x="317" y="34" on="0"/>
        <pt x="376" y="58" on="0"/>
        <pt x="424" y="100" on="0"/>
        <pt x="455" y="156" on="0"/>
      </contour>
      <contour>
        <pt x="502" y="188" on="1"/>
        <pt x="496" y="146" on="0"/>
        <pt x="456" y="75" on="0"/>
        <pt x="396" y="23" on="0"/>
        <pt x="320" y="-7" on="0"/>
        <pt x="278" y="-7" on="1"/>
        <pt x="247" y="-7" on="0"/>
        <pt x="196" y="9" on="0"/>
        <pt x="159" y="36" on="0"/>
        <pt x="135" y="70" on="0"/>
        <pt x="131" y="87" on="1"/>
        <pt x="125" y="45" on="1"/>
        <pt x="120" y="0" on="1"/>
        <pt x="82" y="0" on="1"/>
        <pt x="187" y="750" on="1"/>
        <pt x="229" y="750" on="1"/>
        <pt x="170" y="333" on="1"/>
        <pt x="168" y="322" on="0"/>
        <pt x="162" y="299" on="0"/>
        <pt x="160" y="288" on="1"/>
        <pt x="169" y="305" on="0"/>
        <pt x="203" y="339" on="0"/>
        <pt x="248" y="366" on="0"/>
        <pt x="303" y="383" on="0"/>
        <pt x="332" y="383" on="1"/>
        <pt x="373" y="383" on="0"/>
        <pt x="441" y="352" on="0"/>
        <pt x="487" y="299" on="0"/>
        <pt x="508" y="228" on="0"/>
      </contour>
    </TTGlyph>
    <TTGlyph name="backslash" xMin="63" yMin="-19" xMax="280" yMax="736">
      <contour>
        <pt x="109" y="736" on="1"/>
        <pt x="152" y="546" on="0"/>
        <pt x="237" y="171" on="0"/>
        <pt x="280" y="-19" on="1"/>
        <pt x="234" y="-19" on="1"/>
        <pt x="191" y="171" on="0"/>
        <pt x="106" y="546" on="0"/>
        <pt x="63" y="736" on="1"/>
      </contour>
    </TTGlyph>
    <TTGlyph name="bar" xMin="30" yMin="-232" xMax="203" yMax="700">
      <contour>
        <pt x="30" y="-232" on="1"/>
        <pt x="161" y="700" on="1"/>
        <pt x="203" y="700" on="1"/>
        <pt x="72" y="-232" on="1"/>
      </contour>
    </TTGlyph>
    <TTGlyph name="braceleft" xMin="26" yMin="-148" xMax="317" yMax="746">
      <contour>
        <pt x="26" y="275" on="1"/>
        <pt x="33" y="321" on="1"/>
        <pt x="57" y="322" on="0"/>
        <pt x="92" y="349" on="0"/>
        <pt x="115" y="389" on="0"/>
        <pt x="128" y="436" on="0"/>
        <pt x="131" y="456" on="1"/>
        <pt x="155" y="628" on="1"/>
        <pt x="161" y="674" on="0"/>
        <pt x="184" y="722" on="0"/>
        <pt x="214" y="743" on="0"/>
        <pt x="250" y="746" on="0"/>
        <pt x="270" y="746" on="1"/>
        <pt x="317" y="746" on="1"/>
        <pt x="312" y="705" on="1"/>
        <pt x="260" y="705" on="1"/>
        <pt x="245" y="705" on="0"/>
        <pt x="223" y="694" on="0"/>
        <pt x="208" y="669" on="0"/>
        <pt x="197" y="628" on="0"/>
        <pt x="193" y="597" on="1"/>
        <pt x="173" y="455" on="1"/>
        <pt x="167" y="414" on="0"/>
        <pt x="148" y="361" on="0"/>
        <pt x="124" y="326" on="0"/>
        <pt x="98" y="306" on="0"/>
        <pt x="86" y="299" on="1"/>
        <pt x="96" y="292" on="0"/>
        <pt x="117" y="271" on="0"/>
        <pt x="130" y="235" on="0"/>
        <pt x="135" y="182" on="0"/>
        <pt x="129" y="142" on="1"/>
        <pt x="109" y="1" on="1"/>
        <pt x="100" y="-61" on="0"/>
        <pt x="115" y="-108" on="0"/>
        <pt x="146" y="-108" on="1"/>
        <pt x="198" y="-108" on="1"/>
        <pt x="192" y="-148" on="1"/>
        <pt x="145" y="-148" on="1"/>
        <pt x="124" y="-148" on="0"/>
        <pt x="88" y="-145" on="0"/>
        <pt x="65" y="-120" on="0"/>
        <pt x="57" y="-63" on="0"/>
        <pt x="65" y="-9" on="1"/>
        <pt x="86" y="140" on="1"/>
        <pt x="89" y="160" on="0"/>
        <pt x="89" y="207" on="0"/>
        <pt x="77" y="247" on="0"/>
        <pt x="50" y="274" on="0"/>
      </contour>
    </TTGlyph>
    <TTGlyph name="braceright" xMin="2" yMin="-148" xMax="293" yMax="746">
      <contour>
        <pt x="293" y="321" on="1"/>
        <pt x="286" y="275" on="1"/>
        <pt x="257" y="273" on="0"/>
        <pt x="220" y="238" on="0"/>
        <pt x="198" y="189" on="0"/>
        <pt x="188" y="136" on="0"/>
        <pt x="185" y="118" on="1"/>
        <pt x="164" y="-30" on="1"/>
        <pt x="158" y="-77" on="0"/>
        <pt x="135" y="-125" on="0"/>
        <pt x="105" y="-146" on="0"/>
        <pt x="68" y="-148" on="0"/>
        <pt x="49" y="-148" on="1"/>
        <pt x="2" y="-148" on="1"/>
        <pt x="8" y="-108" on="1"/>
        <pt x="59" y="-108" on="1"/>
        <pt x="74" y="-108" on="0"/>
        <pt x="96" y="-97" on="0"/>
        <pt x="111" y="-72" on="0"/>
        <pt x="121" y="-30" on="0"/>
        <pt x="126" y="1" on="1"/>
        <pt x="150" y="165" on="1"/>
        <pt x="154" y="197" on="0"/>
        <pt x="174" y="243" on="0"/>
        <pt x="198" y="274" on="0"/>
        <pt x="224" y="293" on="0"/>
        <pt x="234" y="299" on="1"/>
        <pt x="223" y="306" on="0"/>
        <pt x="202" y="326" on="0"/>
        <pt x="189" y="361" on="0"/>
        <pt x="184" y="414" on="0"/>
        <pt x="190" y="455" on="1"/>
        <pt x="210" y="597" on="1"/>
        <pt x="219" y="659" on="0"/>
        <pt x="204" y="705" on="0"/>
        <pt x="173" y="705" on="1"/>
        <pt x="121" y="705" on="1"/>
        <pt x="127" y="746" on="1"/>
        <pt x="174" y="746" on="1"/>
        <pt x="193" y="746" on="0"/>
        <pt x="229" y="744" on="0"/>
        <pt x="253" y="723" on="0"/>
        <pt x="263" y="674" on="0"/>
        <pt x="257" y="628" on="1"/>
        <pt x="236" y="478" on="1"/>
        <pt x="233" y="460" on="0"/>
        <pt x="229" y="407" on="0"/>
        <pt x="238" y="358" on="0"/>
        <pt x="264" y="322" on="0"/>
      </contour>
    </TTGlyph>
    <TTGlyph name="bracketleft" xMin="20" yMin="-149" xMax="320" yMax="746">
      <contour>
        <pt x="20" y="-149" on="1"/>
        <pt x="145" y="746" on="1"/>
        <pt x="320" y="746" on="1"/>
        <pt x="314" y="705" on="1"/>
        <pt x="182" y="705" on="1"/>
        <pt x="68" y="-108" on="1"/>
        <pt x="200" y="-108" on="1"/>
        <pt x="195" y="-149" on="1"/>
      </contour>
    </TTGlyph>
    <TTGlyph name="bracketright" xMin="14" yMin="-149" xMax="313" yMax="746">
      <contour>
        <pt x="313" y="746" on="1"/>
        <pt x="188" y="-149" on="1"/>
        <pt x="14" y="-149" on="1"/>
        <pt x="19" y="-108" on="1"/>
        <pt x="151" y="-108" on="1"/>
        <pt x="265" y="705" on="1"/>
        <pt x="133" y="705" on="1"/>
        <pt x="138" y="746" on="1"/>
      </contour>
    </TTGlyph>
    <TTGlyph name="brokenbar" xMin="23" yMin="-233" xMax="196" yMax="700">
      <contour>
        <pt x="65" y="-233" on="1"/>
        <pt x="23" y="-233" on="1"/>
        <pt x="72" y="117" on="1"/>
        <pt x="114" y="117" on="1"/>
      </contour>
      <contour>
        <pt x="147" y="350" on="1"/>
        <pt x="105" y="350" on="1"/>
        <pt x="154" y="700" on="1"/>
        <pt x="196" y="700" on="1"/>
      </contour>
    </TTGlyph>
    <TTGlyph name="bullet" xMin="144" yMin="211" xMax="334" yMax="391">
      <contour>
        <pt x="149" y="300" on="1"/>
        <pt x="152" y="319" on="0"/>
        <pt x="170" y="352" on="0"/>
        <pt x="198" y="377" on="0"/>
        <pt x="233" y="391" on="0"/>
        <pt x="251" y="391" on="1"/>
        <pt x="289" y="391" on="0"/>
        <pt x="334" y="338" on="0"/>
        <pt x="329" y="300" on="1"/>
        <pt x="326" y="281" on="0"/>
        <pt x="308" y="249" on="0"/>
        <pt x="280" y="225" on="0"/>
        <pt x="245" y="211" on="0"/>
        <pt x="226" y="211" on="1"/>
        <pt x="188" y="211" on="0"/>
        <pt x="144" y="262" on="0"/>
      </contour>
    </TTGlyph>
    <TTGlyph name="c" xMin="56" yMin="-7" xMax="404" yMax="383">
      <contour>
        <pt x="339" y="67" on="1"/>
        <pt x="344" y="59" on="0"/>
        <pt x="355" y="44" on="0"/>
        <pt x="361" y="36" on="1"/>
        <pt x="332" y="16" on="0"/>
        <pt x="266" y="-7" on="0"/>
        <pt x="231" y="-7" on="1"/>
        <pt x="190" y="-7" on="0"/>
        <pt x="123" y="24" on="0"/>
        <pt x="77" y="76" on="0"/>
        <pt x="56" y="147" on="0"/>
        <pt x="62" y="188" on="1"/>
        <pt x="68" y="232" on="0"/>
        <pt x="108" y="304" on="0"/>
        <pt x="168" y="355" on="0"/>
        <pt x="244" y="383" on="0"/>
        <pt x="285" y="383" on="1"/>
        <pt x="321" y="383" on="0"/>
        <pt x="382" y="360" on="0"/>
        <pt x="404" y="340" on="1"/>
        <pt x="396" y="332" on="0"/>
        <pt x="381" y="317" on="0"/>
        <pt x="373" y="309" on="1"/>
        <pt x="355" y="325" on="0"/>
        <pt x="308" y="343" on="0"/>
        <pt x="280" y="343" on="1"/>
        <pt x="247" y="343" on="0"/>
        <pt x="187" y="319" on="0"/>
        <pt x="140" y="277" on="0"/>
        <pt x="108" y="220" on="0"/>
        <pt x="104" y="188" on="1"/>
        <pt x="99" y="156" on="0"/>
        <pt x="115" y="100" on="0"/>
        <pt x="151" y="58" on="0"/>
        <pt x="204" y="34" on="0"/>
        <pt x="237" y="34" on="1"/>
        <pt x="266" y="34" on="0"/>
        <pt x="317" y="51" on="0"/>
      </contour>
    </TTGlyph>
    <TTGlyph name="ccedilla" xMin="47" yMin="-234" xMax="394" yMax="383">
      <contour>
        <pt x="329" y="67" on="1"/>
        <pt x="334" y="59" on="0"/>
        <pt x="345" y="44" on="0"/>
        <pt x="350" y="36" on="1"/>
        <pt x="295" y="-4" on="0"/>
        <pt x="226" y="-7" on="1"/>
        <pt x="224" y="-21" on="0"/>
        <pt x="230" y="-38" on="0"/>
        <pt x="241" y="-49" on="0"/>
        <pt x="254" y="-57" on="0"/>
        <pt x="260" y="-61" on="1"/>
        <pt x="280" y="-76" on="0"/>
        <pt x="293" y="-115" on="0"/>
        <pt x="290" y="-133" on="1"/>
        <pt x="284" y="-178" on="0"/>
        <pt x="233" y="-226" on="0"/>
        <pt x="199" y="-231" on="1"/>
        <pt x="180" y="-234" on="0"/>
        <pt x="164" y="-230" on="1"/>
        <pt x="141" y="-226" on="0"/>
        <pt x="107" y="-196" on="0"/>
        <pt x="102" y="-169" on="1"/>
        <pt x="132" y="-157" on="1"/>
        <pt x="135" y="-176" on="0"/>
        <pt x="163" y="-201" on="0"/>
        <pt x="186" y="-201" on="1"/>
        <pt x="214" y="-201" on="0"/>
        <pt x="252" y="-163" on="0"/>
        <pt x="257" y="-135" on="1"/>
        <pt x="260" y="-110" on="0"/>
        <pt x="240" y="-83" on="0"/>
        <pt x="214" y="-63" on="0"/>
        <pt x="192" y="-42" on="0"/>
        <pt x="195" y="-23" on="1"/>
        <pt x="197" y="-4" on="1"/>
        <pt x="161" y="0" on="0"/>
        <pt x="103" y="32" on="0"/>
        <pt x="64" y="83" on="0"/>
        <pt x="47" y="150" on="0"/>
        <pt x="52" y="188" on="1"/>
        <pt x="58" y="228" on="0"/>
        <pt x="98" y="300" on="0"/>
        <pt x="158" y="352" on="0"/>
        <pt x="234" y="383" on="0"/>
        <pt x="275" y="383" on="1"/>
        <pt x="311" y="383" on="0"/>
        <pt x="371" y="360" on="0"/>
        <pt x="394" y="340" on="1"/>
        <pt x="386" y="332" on="0"/>
        <pt x="370" y="317" on="0"/>
        <pt x="362" y="309" on="1"/>
        <pt x="345" y="325" on="0"/>
        <pt x="298" y="343" on="0"/>
        <pt x="270" y="343" on="1"/>
        <pt x="237" y="343" on="0"/>
        <pt x="177" y="319" on="0"/>
        <pt x="129" y="277" on="0"/>
        <pt x="97" y="220" on="0"/>
        <pt x="93" y="188" on="1"/>
        <pt x="88" y="156" on="0"/>
        <pt x="104" y="100" on="0"/>
        <pt x="140" y="58" on="0"/>
        <pt x="193" y="34" on="0"/>
        <pt x="226" y="34" on="1"/>
        <pt x="282" y="34" on="0"/>
      </contour>
    </TTGlyph>
    <TTGlyph name="cedilla" xMin="109" yMin="-234" xMax="300" yMax="0">
      <contour>
        <pt x="205" y="0" on="1"/>
        <pt x="234" y="0" on="1"/>
        <pt x="233" y="-6" on="1"/>
        <pt x="231" y="-20" on="0"/>
        <pt x="237" y="-37" on="0"/>
        <pt x="247" y="-49" on="0"/>
        <pt x="261" y="-57" on="0"/>
        <pt x="267" y="-61" on="1"/>
        <pt x="287" y="-76" on="0"/>
        <pt x="300" y="-115" on="0"/>
        <pt x="297" y="-133" on="1"/>
        <pt x="290" y="-181" on="0"/>
        <pt x="232" y="-234" on="0"/>
        <pt x="191" y="-234" on="1"/>
        <pt x="162" y="-234" on="0"/>
        <pt x="116" y="-202" on="0"/>
        <pt x="109" y="-169" on="1"/>
        <pt x="139" y="-157" on="1"/>
        <pt x="142" y="-176" on="0"/>
        <pt x="170" y="-201" on="0"/>
        <pt x="193" y="-201" on="1"/>
        <pt x="221" y="-201" on="0"/>
        <pt x="259" y="-163" on="0"/>
        <pt x="264" y="-135" on="1"/>
        <pt x="267" y="-110" on="0"/>
        <pt x="247" y="-83" on="0"/>
        <pt x="221" y="-63" on="0"/>
        <pt x="199" y="-42" on="0"/>
        <pt x="202" y="-23" on="1"/>
      </contour>
    </TTGlyph>
    <TTGlyph name="cent" xMin="31" yMin="-68" xMax="378" yMax="438">
      <contour>
        <pt x="78" y="188" on="1"/>
        <pt x="70" y="131" on="0"/>
        <pt x="128" y="49" on="0"/>
        <pt x="180" y="39" on="1"/>
        <pt x="221" y="336" on="1"/>
        <pt x="194" y="332" on="0"/>
        <pt x="145" y="306" on="0"/>
        <pt x="107" y="266" on="0"/>
        <pt x="82" y="216" on="0"/>
      </contour>
      <contour>
        <pt x="313" y="67" on="1"/>
        <pt x="318" y="59" on="0"/>
        <pt x="329" y="44" on="0"/>
        <pt x="335" y="36" on="1"/>
        <pt x="281" y="-4" on="0"/>
        <pt x="216" y="-6" on="1"/>
        <pt x="207" y="-68" on="1"/>
        <pt x="165" y="-68" on="1"/>
        <pt x="174" y="-3" on="1"/>
        <pt x="139" y="2" on="0"/>
        <pt x="84" y="36" on="0"/>
        <pt x="47" y="87" on="0"/>
        <pt x="31" y="152" on="0"/>
        <pt x="36" y="188" on="1"/>
        <pt x="41" y="224" on="0"/>
        <pt x="75" y="290" on="0"/>
        <pt x="126" y="341" on="0"/>
        <pt x="191" y="375" on="0"/>
        <pt x="227" y="380" on="1"/>
        <pt x="236" y="438" on="1"/>
        <pt x="278" y="438" on="1"/>
        <pt x="270" y="383" on="1"/>
        <pt x="302" y="381" on="0"/>
        <pt x="358" y="359" on="0"/>
        <pt x="378" y="340" on="1"/>
        <pt x="370" y="332" on="0"/>
        <pt x="355" y="317" on="0"/>
        <pt x="347" y="309" on="1"/>
        <pt x="330" y="323" on="0"/>
        <pt x="288" y="340" on="0"/>
        <pt x="264" y="341" on="1"/>
        <pt x="221" y="34" on="1"/>
        <pt x="272" y="37" on="0"/>
      </contour>
    </TTGlyph>
    <TTGlyph name="colon" xMin="32" yMin="0" xMax="136" yMax="316">
      <contour>
        <pt x="69" y="283" on="1"/>
        <pt x="71" y="297" on="0"/>
        <pt x="94" y="316" on="0"/>
        <pt x="107" y="316" on="1"/>
        <pt x="119" y="316" on="0"/>
        <pt x="136" y="297" on="0"/>
        <pt x="134" y="283" on="1"/>
        <pt x="132" y="269" on="0"/>
        <pt x="110" y="250" on="0"/>
        <pt x="97" y="250" on="1"/>
        <pt x="84" y="250" on="0"/>
        <pt x="67" y="269" on="0"/>
      </contour>
      <contour>
        <pt x="34" y="33" on="1"/>
        <pt x="36" y="47" on="0"/>
        <pt x="59" y="66" on="0"/>
        <pt x="72" y="66" on="1"/>
        <pt x="84" y="66" on="0"/>
        <pt x="101" y="47" on="0"/>
        <pt x="99" y="33" on="1"/>
        <pt x="97" y="19" on="0"/>
        <pt x="75" y="0" on="0"/>
        <pt x="62" y="0" on="1"/>
        <pt x="49" y="0" on="0"/>
        <pt x="32" y="19" on="0"/>
      </contour>
    </TTGlyph>
    <TTGlyph name="comma" xMin="2" yMin="-120" xMax="155" yMax="86">
      <contour>
        <pt x="155" y="86" on="1"/>
        <pt x="126" y="34" on="0"/>
        <pt x="69" y="-68" on="0"/>
        <pt x="40" y="-120" on="1"/>
        <pt x="2" y="-120" on="1"/>
        <pt x="29" y="-68" on="0"/>
        <pt x="81" y="34" on="0"/>
        <pt x="108" y="86" on="1"/>
      </contour>
    </TTGlyph>
    <TTGlyph name="copyright" xMin="133" yMin="115" xMax="665" yMax="630">
      <contour>
        <pt x="366" y="138" on="1"/>
        <pt x="415" y="138" on="0"/>
        <pt x="505" y="173" on="0"/>
        <pt x="577" y="236" on="0"/>
        <pt x="626" y="321" on="0"/>
        <pt x="633" y="371" on="1"/>
        <pt x="640" y="422" on="0"/>
        <pt x="616" y="508" on="0"/>
        <pt x="561" y="571" on="0"/>
        <pt x="481" y="607" on="0"/>
        <pt x="432" y="607" on="1"/>
        <pt x="384" y="607" on="0"/>
        <pt x="294" y="571" on="0"/>
        <pt x="222" y="508" on="0"/>
        <pt x="172" y="422" on="0"/>
        <pt x="165" y="371" on="1"/>
        <pt x="158" y="321" on="0"/>
        <pt x="183" y="236" on="0"/>
        <pt x="238" y="173" on="0"/>
        <pt x="318" y="138" on="0"/>
      </contour>
      <contour>
        <pt x="364" y="115" on="1"/>
        <pt x="310" y="115" on="0"/>
        <pt x="221" y="154" on="0"/>
        <pt x="160" y="223" on="0"/>
        <pt x="133" y="317" on="0"/>
        <pt x="141" y="372" on="1"/>
        <pt x="149" y="428" on="0"/>
        <pt x="202" y="522" on="0"/>
        <pt x="282" y="591" on="0"/>
        <pt x="381" y="630" on="0"/>
        <pt x="435" y="630" on="1"/>
        <pt x="489" y="630" on="0"/>
        <pt x="578" y="591" on="0"/>
        <pt x="638" y="522" on="0"/>
        <pt x="665" y="428" on="0"/>
        <pt x="657" y="372" on="1"/>
        <pt x="649" y="317" on="0"/>
        <pt x="597" y="223" on="0"/>
        <pt x="517" y="154" on="0"/>
        <pt x="418" y="115" on="0"/>
      </contour>
      <contour>
        <pt x="459" y="251" on="1"/>
        <pt x="468" y="236" on="1"/>
        <pt x="448" y="225" on="0"/>
        <pt x="405" y="213" on="0"/>
        <pt x="382" y="213" on="1"/>
        <pt x="349" y="213" on="0"/>
        <pt x="293" y="239" on="0"/>
        <pt x="256" y="283" on="0"/>
        <pt x="239" y="342" on="0"/>
        <pt x="244" y="375" on="1"/>
        <pt x="248" y="409" on="0"/>
        <pt x="282" y="468" on="0"/>
        <pt x="332" y="512" on="0"/>
        <pt x="395" y="537" on="0"/>
        <pt x="428" y="537" on="1"/>
        <pt x="472" y="537" on="0"/>
        <pt x="507" y="515" on="1"/>
        <pt x="504" y="511" on="0"/>
        <pt x="498" y="503" on="0"/>
        <pt x="495" y="499" on="1"/>
        <pt x="464" y="519" on="0"/>
        <pt x="425" y="519" on="1"/>
        <pt x="396" y="519" on="0"/>
        <pt x="341" y="496" on="0"/>
        <pt x="297" y="457" on="0"/>
        <pt x="267" y="404" on="0"/>
        <pt x="263" y="374" on="1"/>
        <pt x="259" y="345" on="0"/>
        <pt x="274" y="293" on="0"/>
        <pt x="307" y="254" on="0"/>
        <pt x="355" y="231" on="0"/>
        <pt x="384" y="231" on="1"/>
        <pt x="404" y="231" on="0"/>
        <pt x="442" y="242" on="0"/>
      </contour>
    </TTGlyph>
    <TTGlyph name="currency" xMin="82" yMin="210" xMax="411" yMax="506">
      <contour>
        <pt x="146" y="361" on="1"/>
        <pt x="143" y="340" on="0"/>
        <pt x="154" y="302" on="0"/>
        <pt x="177" y="274" on="0"/>
        <pt x="212" y="258" on="0"/>
        <pt x="233" y="258" on="1"/>
        <pt x="254" y="258" on="0"/>
        <pt x="294" y="274" on="0"/>
        <pt x="325" y="302" on="0"/>
        <pt x="346" y="340" on="0"/>
        <pt x="349" y="361" on="1"/>
        <pt x="352" y="382" on="0"/>
        <pt x="341" y="419" on="0"/>
        <pt x="318" y="447" on="0"/>
        <pt x="283" y="463" on="0"/>
        <pt x="262" y="463" on="1"/>
        <pt x="241" y="463" on="0"/>
        <pt x="202" y="447" on="0"/>
        <pt x="170" y="419" on="0"/>
        <pt x="149" y="382" on="0"/>
      </contour>
      <contour>
        <pt x="104" y="361" on="1"/>
        <pt x="107" y="384" on="0"/>
        <pt x="128" y="427" on="0"/>
        <pt x="143" y="444" on="1"/>
        <pt x="116" y="477" on="1"/>
        <pt x="149" y="506" on="1"/>
        <pt x="177" y="474" on="1"/>
        <pt x="197" y="488" on="0"/>
        <pt x="243" y="504" on="0"/>
        <pt x="267" y="504" on="1"/>
        <pt x="292" y="504" on="0"/>
        <pt x="333" y="487" on="0"/>
        <pt x="348" y="473" on="1"/>
        <pt x="386" y="506" on="1"/>
        <pt x="411" y="476" on="1"/>
        <pt x="375" y="445" on="1"/>
        <pt x="398" y="407" on="0"/>
        <pt x="391" y="361" on="1"/>
        <pt x="388" y="336" on="0"/>
        <pt x="366" y="293" on="0"/>
        <pt x="349" y="275" on="1"/>
        <pt x="379" y="240" on="1"/>
        <pt x="345" y="211" on="1"/>
        <pt x="337" y="219" on="0"/>
        <pt x="322" y="237" on="0"/>
        <pt x="314" y="245" on="1"/>
        <pt x="295" y="232" on="0"/>
        <pt x="250" y="218" on="0"/>
        <pt x="226" y="218" on="1"/>
        <pt x="203" y="218" on="0"/>
        <pt x="163" y="232" on="0"/>
        <pt x="147" y="244" on="1"/>
        <pt x="108" y="210" on="1"/>
        <pt x="82" y="239" on="1"/>
        <pt x="121" y="274" on="1"/>
        <pt x="110" y="292" on="0"/>
        <pt x="100" y="336" on="0"/>
      </contour>
    </TTGlyph>
    <TTGlyph name="d" xMin="73" yMin="-7" xMax="551" yMax="750">
      <contour>
        <pt x="121" y="188" on="1"/>
        <pt x="116" y="156" on="0"/>
        <pt x="132" y="100" on="0"/>
        <pt x="168" y="58" on="0"/>
        <pt x="221" y="34" on="0"/>
        <pt x="254" y="34" on="1"/>
        <pt x="287" y="34" on="0"/>
        <pt x="347" y="58" on="0"/>
        <pt x="395" y="100" on="0"/>
        <pt x="426" y="156" on="0"/>
        <pt x="431" y="188" on="1"/>
        <pt x="435" y="220" on="0"/>
        <pt x="419" y="277" on="0"/>
        <pt x="383" y="319" on="0"/>
        <pt x="330" y="343" on="0"/>
        <pt x="297" y="343" on="1"/>
        <pt x="264" y="343" on="0"/>
        <pt x="204" y="319" on="0"/>
        <pt x="157" y="277" on="0"/>
        <pt x="125" y="220" on="0"/>
      </contour>
      <contour>
        <pt x="79" y="188" on="1"/>
        <pt x="85" y="230" on="0"/>
        <pt x="125" y="301" on="0"/>
        <pt x="185" y="353" on="0"/>
        <pt x="261" y="383" on="0"/>
        <pt x="302" y="383" on="1"/>
        <pt x="332" y="383" on="0"/>
        <pt x="382" y="366" on="0"/>
        <pt x="420" y="339" on="0"/>
        <pt x="445" y="305" on="0"/>
        <pt x="449" y="288" on="1"/>
        <pt x="450" y="299" on="0"/>
        <pt x="450" y="322" on="0"/>
        <pt x="451" y="333" on="1"/>
        <pt x="510" y="750" on="1"/>
        <pt x="551" y="750" on="1"/>
        <pt x="446" y="0" on="1"/>
        <pt x="409" y="0" on="1"/>
        <pt x="415" y="45" on="1"/>
        <pt x="416" y="56" on="0"/>
        <pt x="419" y="76" on="0"/>
        <pt x="421" y="87" on="1"/>
        <pt x="412" y="70" on="0"/>
        <pt x="379" y="36" on="0"/>
        <pt x="334" y="9" on="0"/>
        <pt x="279" y="-7" on="0"/>
        <pt x="248" y="-7" on="1"/>
        <pt x="207" y="-7" on="0"/>
        <pt x="139" y="24" on="0"/>
        <pt x="94" y="76" on="0"/>
        <pt x="73" y="147" on="0"/>
      </contour>
    </TTGlyph>
    <TTGlyph name="degree" xMin="45" yMin="474" xMax="228" yMax="646">
      <contour>
        <pt x="130" y="503" on="1"/>
        <pt x="153" y="503" on="0"/>
        <pt x="191" y="536" on="0"/>
        <pt x="194" y="560" on="1"/>
        <pt x="197" y="583" on="0"/>
        <pt x="168" y="616" on="0"/>
        <pt x="145" y="616" on="1"/>
        <pt x="121" y="616" on="0"/>
        <pt x="84" y="583" on="0"/>
        <pt x="81" y="560" on="1"/>
        <pt x="77" y="536" on="0"/>
        <pt x="106" y="503" on="0"/>
      </contour>
      <contour>
        <pt x="50" y="559" on="1"/>
        <pt x="55" y="596" on="0"/>
        <pt x="112" y="646" on="0"/>
        <pt x="150" y="646" on="1"/>
        <pt x="185" y="646" on="0"/>
        <pt x="228" y="596" on="0"/>
        <pt x="223" y="559" on="1"/>
        <pt x="218" y="523" on="0"/>
        <pt x="161" y="474" on="0"/>
        <pt x="125" y="474" on="1"/>
        <pt x="88" y="474" on="0"/>
        <pt x="45" y="523" on="0"/>
      </contour>
    </TTGlyph>
    <TTGlyph name="dieresis" xMin="66" yMin="475" xMax="301" yMax="541">
      <contour>
        <pt x="234" y="508" on="1"/>
        <pt x="236" y="522" on="0"/>
        <pt x="258" y="541" on="0"/>
        <pt x="271" y="541" on="1"/>
        <pt x="284" y="541" on="0"/>
        <pt x="301" y="522" on="0"/>
        <pt x="299" y="508" on="1"/>
        <pt x="297" y="494" on="0"/>
        <pt x="275" y="475" on="0"/>
        <pt x="262" y="475" on="1"/>
        <pt x="249" y="475" on="0"/>
        <pt x="232" y="494" on="0"/>
      </contour>
      <contour>
        <pt x="68" y="508" on="1"/>
        <pt x="70" y="522" on="0"/>
        <pt x="93" y="541" on="0"/>
        <pt x="106" y="541" on="1"/>
        <pt x="118" y="541" on="0"/>
        <pt x="136" y="522" on="0"/>
        <pt x="134" y="508" on="1"/>
        <pt x="132" y="494" on="0"/>
        <pt x="109" y="475" on="0"/>
        <pt x="97" y="475" on="1"/>
        <pt x="84" y="475" on="0"/>
        <pt x="66" y="494" on="0"/>
      </contour>
    </TTGlyph>
    <TTGlyph name="divide" xMin="65" yMin="71" xMax="430" yMax="387">
      <contour>
        <pt x="425" y="208" on="1"/>
        <pt x="65" y="208" on="1"/>
        <pt x="70" y="249" on="1"/>
        <pt x="430" y="249" on="1"/>
      </contour>
      <contour>
        <pt x="235" y="354" on="1"/>
        <pt x="237" y="368" on="0"/>
        <pt x="260" y="387" on="0"/>
        <pt x="273" y="387" on="1"/>
        <pt x="285" y="387" on="0"/>
        <pt x="302" y="368" on="0"/>
        <pt x="300" y="354" on="1"/>
        <pt x="298" y="340" on="0"/>
        <pt x="276" y="321" on="0"/>
        <pt x="263" y="321" on="1"/>
        <pt x="250" y="321" on="0"/>
        <pt x="233" y="340" on="0"/>
      </contour>
      <contour>
        <pt x="200" y="104" on="1"/>
        <pt x="202" y="118" on="0"/>
        <pt x="225" y="137" on="0"/>
        <pt x="238" y="137" on="1"/>
        <pt x="250" y="137" on="0"/>
        <pt x="267" y="118" on="0"/>
        <pt x="265" y="104" on="1"/>
        <pt x="263" y="90" on="0"/>
        <pt x="241" y="71" on="0"/>
        <pt x="228" y="71" on="1"/>
        <pt x="215" y="71" on="0"/>
        <pt x="198" y="90" on="0"/>
      </contour>
    </TTGlyph>
    <TTGlyph name="dollar" xMin="30" yMin="-68" xMax="472" yMax="764">
      <contour>
        <pt x="155" y="524" on="1"/>
        <pt x="148" y="473" on="0"/>
        <pt x="196" y="422" on="0"/>
        <pt x="240" y="406" on="1"/>
        <pt x="249" y="400" on="0"/>
        <pt x="258" y="399" on="1"/>
        <pt x="295" y="662" on="1"/>
        <pt x="264" y="659" on="0"/>
        <pt x="216" y="634" on="0"/>
        <pt x="180" y="596" on="0"/>
        <pt x="159" y="549" on="0"/>
      </contour>
      <contour>
        <pt x="419" y="184" on="1"/>
        <pt x="424" y="220" on="0"/>
        <pt x="405" y="271" on="0"/>
        <pt x="367" y="306" on="0"/>
        <pt x="317" y="330" on="0"/>
        <pt x="292" y="339" on="1"/>
        <pt x="249" y="35" on="1"/>
        <pt x="279" y="38" on="0"/>
        <pt x="336" y="61" on="0"/>
        <pt x="383" y="99" on="0"/>
        <pt x="414" y="152" on="0"/>
      </contour>
      <contour>
        <pt x="472" y="641" on="1"/>
        <pt x="464" y="633" on="0"/>
        <pt x="452" y="617" on="0"/>
        <pt x="444" y="609" on="1"/>
        <pt x="430" y="623" on="0"/>
        <pt x="377" y="657" on="0"/>
        <pt x="337" y="662" on="1"/>
        <pt x="298" y="383" on="1"/>
        <pt x="327" y="372" on="0"/>
        <pt x="390" y="343" on="0"/>
        <pt x="440" y="298" on="0"/>
        <pt x="467" y="233" on="0"/>
        <pt x="461" y="186" on="1"/>
        <pt x="455" y="144" on="0"/>
        <pt x="415" y="76" on="0"/>
        <pt x="357" y="26" on="0"/>
        <pt x="283" y="-4" on="0"/>
        <pt x="243" y="-7" on="1"/>
        <pt x="234" y="-68" on="1"/>
        <pt x="192" y="-68" on="1"/>
        <pt x="201" y="-6" on="1"/>
        <pt x="166" y="-3" on="0"/>
        <pt x="110" y="18" on="0"/>
        <pt x="67" y="46" on="0"/>
        <pt x="38" y="77" on="0"/>
        <pt x="30" y="89" on="1"/>
        <pt x="61" y="117" on="1"/>
        <pt x="72" y="104" on="0"/>
        <pt x="101" y="76" on="0"/>
        <pt x="136" y="52" on="0"/>
        <pt x="180" y="35" on="0"/>
        <pt x="206" y="33" on="1"/>
        <pt x="251" y="354" on="1"/>
        <pt x="248" y="356" on="0"/>
        <pt x="238" y="360" on="1"/>
        <pt x="220" y="366" on="0"/>
        <pt x="174" y="387" on="0"/>
        <pt x="134" y="423" on="0"/>
        <pt x="109" y="478" on="0"/>
        <pt x="113" y="517" on="1"/>
        <pt x="116" y="548" on="0"/>
        <pt x="141" y="612" on="0"/>
        <pt x="188" y="664" on="0"/>
        <pt x="256" y="700" on="0"/>
        <pt x="301" y="703" on="1"/>
        <pt x="309" y="764" on="1"/>
        <pt x="351" y="764" on="1"/>
        <pt x="343" y="702" on="1"/>
        <pt x="375" y="700" on="0"/>
        <pt x="440" y="672" on="0"/>
      </contour>
    </TTGlyph>
    <TTGlyph name="e" xMin="56" yMin="-7" xMax="438" yMax="383">
      <contour>
        <pt x="280" y="343" on="1"/>
        <pt x="248" y="343" on="0"/>
        <pt x="191" y="323" on="0"/>
        <pt x="146" y="287" on="0"/>
        <pt x="115" y="236" on="0"/>
        <pt x="109" y="205" on="1"/>
        <pt x="103" y="181" on="0"/>
        <pt x="103" y="159" on="1"/>
        <pt x="175" y="186" on="0"/>
        <pt x="317" y="239" on="0"/>
        <pt x="388" y="266" on="1"/>
        <pt x="375" y="300" on="0"/>
        <pt x="318" y="343" on="0"/>
      </contour>
      <contour>
        <pt x="438" y="243" on="1"/>
        <pt x="356" y="212" on="0"/>
        <pt x="192" y="151" on="0"/>
        <pt x="110" y="120" on="1"/>
        <pt x="122" y="82" on="0"/>
        <pt x="189" y="34" on="0"/>
        <pt x="237" y="34" on="1"/>
        <pt x="268" y="34" on="0"/>
        <pt x="325" y="56" on="0"/>
        <pt x="348" y="76" on="1"/>
        <pt x="353" y="68" on="0"/>
        <pt x="364" y="53" on="0"/>
        <pt x="369" y="45" on="1"/>
        <pt x="340" y="21" on="0"/>
        <pt x="269" y="-7" on="0"/>
        <pt x="231" y="-7" on="1"/>
        <pt x="190" y="-7" on="0"/>
        <pt x="123" y="24" on="0"/>
        <pt x="77" y="76" on="0"/>
        <pt x="56" y="147" on="0"/>
        <pt x="62" y="188" on="1"/>
        <pt x="68" y="233" on="0"/>
        <pt x="107" y="305" on="0"/>
        <pt x="166" y="356" on="0"/>
        <pt x="242" y="383" on="0"/>
        <pt x="285" y="383" on="1"/>
        <pt x="315" y="383" on="0"/>
        <pt x="366" y="362" on="0"/>
        <pt x="406" y="325" on="0"/>
        <pt x="433" y="274" on="0"/>
      </contour>
    </TTGlyph>
    <TTGlyph name="eacute" xMin="56" yMin="-7" xMax="438" yMax="612">
      <component glyphName="e" x="0" y="0" flags="0x204"/>
      <component glyphName="acute" x="192" y="0" flags="0x4"/>
    </TTGlyph>
    <TTGlyph name="ecircumflex" xMin="56" yMin="-7" xMax="438" yMax="660">
      <component glyphName="e" x="0" y="0" flags="0x204"/>
      <component glyphName="asciicircum" x="80" y="0" flags="0x4"/>
    </TTGlyph>
    <TTGlyph name="edieresis" xMin="56" yMin="-7" xMax="438" yMax="541">
      <component glyphName="e" x="0" y="0" flags="0x204"/>
      <component glyphName="dieresis" x="110" y="0" flags="0x4"/>
    </TTGlyph>
    <TTGlyph name="egrave" xMin="56" yMin="-7" xMax="438" yMax="612">
      <component glyphName="e" x="0" y="0" flags="0x204"/>
      <component glyphName="grave" x="206" y="0" flags="0x4"/>
    </TTGlyph>
    <TTGlyph name="eight" xMin="22" yMin="-8" xMax="456" yMax="658">
      <contour>
        <pt x="170" y="506" on="1"/>
        <pt x="164" y="463" on="0"/>
        <pt x="219" y="407" on="0"/>
        <pt x="265" y="407" on="1"/>
        <pt x="311" y="407" on="0"/>
        <pt x="380" y="463" on="0"/>
        <pt x="386" y="506" on="1"/>
        <pt x="389" y="528" on="0"/>
        <pt x="379" y="568" on="0"/>
        <pt x="355" y="599" on="0"/>
        <pt x="318" y="617" on="0"/>
        <pt x="295" y="617" on="1"/>
        <pt x="272" y="617" on="0"/>
        <pt x="230" y="599" on="0"/>
        <pt x="196" y="568" on="0"/>
        <pt x="173" y="528" on="0"/>
      </contour>
      <contour>
        <pt x="71" y="201" on="1"/>
        <pt x="66" y="167" on="0"/>
        <pt x="83" y="106" on="0"/>
        <pt x="121" y="59" on="0"/>
        <pt x="177" y="32" on="0"/>
        <pt x="212" y="32" on="1"/>
        <pt x="247" y="32" on="0"/>
        <pt x="313" y="59" on="0"/>
        <pt x="365" y="106" on="0"/>
        <pt x="400" y="167" on="0"/>
        <pt x="405" y="201" on="1"/>
        <pt x="410" y="235" on="0"/>
        <pt x="392" y="294" on="0"/>
        <pt x="352" y="339" on="0"/>
        <pt x="294" y="366" on="0"/>
        <pt x="260" y="366" on="1"/>
        <pt x="225" y="366" on="0"/>
        <pt x="161" y="340" on="0"/>
        <pt x="110" y="295" on="0"/>
        <pt x="76" y="235" on="0"/>
      </contour>
      <contour>
        <pt x="28" y="201" on="1"/>
        <pt x="37" y="267" on="0"/>
        <pt x="125" y="368" on="0"/>
        <pt x="186" y="390" on="1"/>
        <pt x="155" y="406" on="0"/>
        <pt x="123" y="470" on="0"/>
        <pt x="129" y="510" on="1"/>
        <pt x="133" y="540" on="0"/>
        <pt x="163" y="594" on="0"/>
        <pt x="210" y="635" on="0"/>
        <pt x="267" y="658" on="0"/>
        <pt x="298" y="658" on="1"/>
        <pt x="329" y="658" on="0"/>
        <pt x="381" y="634" on="0"/>
        <pt x="416" y="593" on="0"/>
        <pt x="432" y="539" on="0"/>
        <pt x="428" y="508" on="1"/>
        <pt x="423" y="469" on="0"/>
        <pt x="373" y="407" on="0"/>
        <pt x="338" y="390" on="1"/>
        <pt x="395" y="369" on="0"/>
        <pt x="456" y="267" on="0"/>
        <pt x="447" y="201" on="1"/>
        <pt x="441" y="158" on="0"/>
        <pt x="396" y="82" on="0"/>
        <pt x="331" y="25" on="0"/>
        <pt x="250" y="-8" on="0"/>
        <pt x="207" y="-8" on="1"/>
        <pt x="164" y="-8" on="0"/>
        <pt x="93" y="25" on="0"/>
        <pt x="44" y="82" on="0"/>
        <pt x="22" y="158" on="0"/>
      </contour>
    </TTGlyph>
    <TTGlyph name="emdash" xMin="96" yMin="177" xMax="603" yMax="218">
      <contour>
        <pt x="96" y="177" on="1"/>
        <pt x="101" y="218" on="1"/>
        <pt x="603" y="218" on="1"/>
        <pt x="598" y="177" on="1"/>
      </contour>
    </TTGlyph>
    <TTGlyph name="endash" xMin="97" yMin="177" xMax="403" yMax="218">
      <contour>
        <pt x="97" y="177" on="1"/>
        <pt x="102" y="218" on="1"/>
        <pt x="403" y="218" on="1"/>
        <pt x="398" y="177" on="1"/>
      </contour>
    </TTGlyph>
    <TTGlyph name="equal" xMin="83" yMin="135" xMax="622" yMax="370">
      <contour>
        <pt x="595" y="176" on="1"/>
        <pt x="589" y="135" on="1"/>
        <pt x="83" y="135" on="1"/>
        <pt x="89" y="176" on="1"/>
      </contour>
      <contour>
        <pt x="622" y="370" on="1"/>
        <pt x="616" y="329" on="1"/>
        <pt x="110" y="329" on="1"/>
        <pt x="116" y="370" on="1"/>
      </contour>
    </TTGlyph>
    <TTGlyph name="eth" xMin="24" yMin="-6" xMax="428" yMax="731">
      <contour>
        <pt x="69" y="188" on="1"/>
        <pt x="64" y="156" on="0"/>
        <pt x="81" y="100" on="0"/>
        <pt x="117" y="58" on="0"/>
        <pt x="171" y="35" on="0"/>
        <pt x="204" y="35" on="1"/>
        <pt x="237" y="35" on="0"/>
        <pt x="296" y="60" on="0"/>
        <pt x="344" y="102" on="0"/>
        <pt x="375" y="158" on="0"/>
        <pt x="380" y="190" on="1"/>
        <pt x="384" y="223" on="0"/>
        <pt x="367" y="279" on="0"/>
        <pt x="331" y="321" on="0"/>
        <pt x="278" y="344" on="0"/>
        <pt x="245" y="344" on="1"/>
        <pt x="212" y="344" on="0"/>
        <pt x="152" y="319" on="0"/>
        <pt x="104" y="277" on="0"/>
        <pt x="73" y="220" on="0"/>
      </contour>
      <contour>
        <pt x="165" y="541" on="1"/>
        <pt x="185" y="559" on="0"/>
        <pt x="223" y="596" on="0"/>
        <pt x="243" y="614" on="1"/>
        <pt x="206" y="664" on="0"/>
        <pt x="162" y="703" on="1"/>
        <pt x="170" y="710" on="0"/>
        <pt x="186" y="724" on="0"/>
        <pt x="194" y="731" on="1"/>
        <pt x="237" y="693" on="0"/>
        <pt x="275" y="644" on="1"/>
        <pt x="293" y="661" on="0"/>
        <pt x="328" y="693" on="0"/>
        <pt x="345" y="710" on="1"/>
        <pt x="351" y="704" on="0"/>
        <pt x="364" y="692" on="0"/>
        <pt x="369" y="686" on="1"/>
        <pt x="351" y="668" on="0"/>
        <pt x="314" y="633" on="0"/>
        <pt x="295" y="615" on="1"/>
        <pt x="326" y="570" on="0"/>
        <pt x="378" y="465" on="0"/>
        <pt x="414" y="355" on="0"/>
        <pt x="428" y="244" on="0"/>
        <pt x="421" y="192" on="1"/>
        <pt x="416" y="151" on="0"/>
        <pt x="377" y="80" on="0"/>
        <pt x="318" y="26" on="0"/>
        <pt x="242" y="-5" on="0"/>
        <pt x="201" y="-6" on="1"/>
        <pt x="160" y="-6" on="0"/>
        <pt x="92" y="23" on="0"/>
        <pt x="46" y="76" on="0"/>
        <pt x="24" y="146" on="0"/>
        <pt x="29" y="187" on="1"/>
        <pt x="34" y="227" on="0"/>
        <pt x="74" y="299" on="0"/>
        <pt x="134" y="352" on="0"/>
        <pt x="210" y="384" on="0"/>
        <pt x="251" y="384" on="1"/>
        <pt x="289" y="385" on="0"/>
        <pt x="348" y="354" on="0"/>
        <pt x="366" y="328" on="1"/>
        <pt x="361" y="378" on="0"/>
        <pt x="314" y="511" on="0"/>
        <pt x="263" y="583" on="1"/>
        <pt x="244" y="566" on="0"/>
        <pt x="207" y="532" on="0"/>
        <pt x="189" y="515" on="1"/>
        <pt x="183" y="522" on="0"/>
        <pt x="170" y="534" on="0"/>
      </contour>
    </TTGlyph>
    <TTGlyph name="exclam" xMin="19" yMin="22" xMax="170" yMax="750">
      <contour>
        <pt x="47" y="22" on="1"/>
        <pt x="35" y="22" on="0"/>
        <pt x="19" y="41" on="0"/>
        <pt x="20" y="55" on="1"/>
        <pt x="21" y="69" on="0"/>
        <pt x="45" y="88" on="0"/>
        <pt x="57" y="88" on="1"/>
        <pt x="69" y="88" on="0"/>
        <pt x="86" y="69" on="0"/>
        <pt x="84" y="55" on="1"/>
        <pt x="82" y="41" on="0"/>
        <pt x="60" y="22" on="0"/>
        <pt x="47" y="22" on="1"/>
      </contour>
      <contour>
        <pt x="129" y="750" on="1"/>
        <pt x="170" y="750" on="1"/>
        <pt x="88" y="166" on="1"/>
        <pt x="47" y="166" on="1"/>
      </contour>
    </TTGlyph>
    <TTGlyph name="exclamdown" xMin="26" yMin="-210" xMax="179" yMax="518">
      <contour>
        <pt x="150" y="518" on="1"/>
        <pt x="162" y="518" on="0"/>
        <pt x="179" y="499" on="0"/>
        <pt x="178" y="485" on="1"/>
        <pt x="176" y="471" on="0"/>
        <pt x="153" y="452" on="0"/>
        <pt x="140" y="452" on="1"/>
        <pt x="128" y="452" on="0"/>
        <pt x="111" y="471" on="0"/>
        <pt x="113" y="485" on="1"/>
        <pt x="115" y="499" on="0"/>
        <pt x="138" y="518" on="0"/>
      </contour>
      <contour>
        <pt x="108" y="374" on="1"/>
        <pt x="150" y="374" on="1"/>
        <pt x="68" y="-210" on="1"/>
        <pt x="26" y="-210" on="1"/>
      </contour>
    </TTGlyph>
    <TTGlyph name="f" xMin="69" yMin="0" xMax="399" yMax="750">
      <contour>
        <pt x="69" y="336" on="1"/>
        <pt x="74" y="377" on="1"/>
        <pt x="139" y="377" on="1"/>
        <pt x="159" y="518" on="1"/>
        <pt x="167" y="573" on="0"/>
        <pt x="211" y="659" on="0"/>
        <pt x="276" y="717" on="0"/>
        <pt x="355" y="748" on="0"/>
        <pt x="399" y="750" on="1"/>
        <pt x="393" y="710" on="1"/>
        <pt x="359" y="709" on="0"/>
        <pt x="295" y="683" on="0"/>
        <pt x="243" y="633" on="0"/>
        <pt x="207" y="563" on="0"/>
        <pt x="201" y="519" on="1"/>
        <pt x="181" y="377" on="1"/>
        <pt x="305" y="377" on="1"/>
        <pt x="300" y="336" on="1"/>
        <pt x="175" y="336" on="1"/>
        <pt x="128" y="0" on="1"/>
        <pt x="87" y="0" on="1"/>
        <pt x="133" y="336" on="1"/>
      </contour>
    </TTGlyph>
    <TTGlyph name="five" xMin="72" yMin="-8" xMax="476" yMax="650">
      <contour>
        <pt x="142" y="321" on="1"/>
        <pt x="189" y="650" on="1"/>
        <pt x="476" y="650" on="1"/>
        <pt x="470" y="609" on="1"/>
        <pt x="225" y="609" on="1"/>
        <pt x="195" y="392" on="1"/>
        <pt x="212" y="399" on="0"/>
        <pt x="247" y="407" on="0"/>
        <pt x="266" y="407" on="1"/>
        <pt x="309" y="407" on="0"/>
        <pt x="381" y="375" on="0"/>
        <pt x="431" y="319" on="0"/>
        <pt x="454" y="244" on="0"/>
        <pt x="448" y="201" on="1"/>
        <pt x="442" y="158" on="0"/>
        <pt x="397" y="82" on="0"/>
        <pt x="331" y="25" on="0"/>
        <pt x="250" y="-8" on="0"/>
        <pt x="207" y="-8" on="1"/>
        <pt x="165" y="-8" on="0"/>
        <pt x="96" y="23" on="0"/>
        <pt x="72" y="50" on="1"/>
        <pt x="81" y="57" on="0"/>
        <pt x="98" y="71" on="0"/>
        <pt x="107" y="78" on="1"/>
        <pt x="125" y="57" on="0"/>
        <pt x="179" y="33" on="0"/>
        <pt x="212" y="33" on="1"/>
        <pt x="247" y="33" on="0"/>
        <pt x="313" y="60" on="0"/>
        <pt x="365" y="106" on="0"/>
        <pt x="401" y="167" on="0"/>
        <pt x="406" y="201" on="1"/>
        <pt x="410" y="235" on="0"/>
        <pt x="392" y="295" on="0"/>
        <pt x="352" y="340" on="0"/>
        <pt x="294" y="366" on="0"/>
        <pt x="259" y="366" on="1"/>
        <pt x="224" y="366" on="0"/>
        <pt x="162" y="342" on="0"/>
      </contour>
    </TTGlyph>
    <TTGlyph name="four" xMin="16" yMin="0" xMax="485" yMax="658">
      <contour>
        <pt x="389" y="535" on="1"/>
        <pt x="318" y="457" on="0"/>
        <pt x="178" y="302" on="0"/>
        <pt x="107" y="224" on="1"/>
        <pt x="346" y="224" on="1"/>
      </contour>
      <contour>
        <pt x="16" y="183" on="1"/>
        <pt x="125" y="302" on="0"/>
        <pt x="340" y="539" on="0"/>
        <pt x="449" y="658" on="1"/>
        <pt x="388" y="224" on="1"/>
        <pt x="485" y="224" on="1"/>
        <pt x="479" y="183" on="1"/>
        <pt x="382" y="183" on="1"/>
        <pt x="356" y="0" on="1"/>
        <pt x="314" y="0" on="1"/>
        <pt x="340" y="183" on="1"/>
      </contour>
    </TTGlyph>
    <TTGlyph name="g" xMin="69" yMin="-250" xMax="495" yMax="383">
      <contour>
        <pt x="117" y="188" on="1"/>
        <pt x="112" y="156" on="0"/>
        <pt x="128" y="100" on="0"/>
        <pt x="164" y="58" on="0"/>
        <pt x="217" y="34" on="0"/>
        <pt x="250" y="34" on="1"/>
        <pt x="283" y="34" on="0"/>
        <pt x="343" y="58" on="0"/>
        <pt x="391" y="100" on="0"/>
        <pt x="422" y="156" on="0"/>
        <pt x="427" y="188" on="1"/>
        <pt x="431" y="220" on="0"/>
        <pt x="415" y="277" on="0"/>
        <pt x="379" y="319" on="0"/>
        <pt x="326" y="343" on="0"/>
        <pt x="293" y="343" on="1"/>
        <pt x="260" y="343" on="0"/>
        <pt x="201" y="319" on="0"/>
        <pt x="153" y="277" on="0"/>
        <pt x="121" y="220" on="0"/>
      </contour>
      <contour>
        <pt x="461" y="375" on="1"/>
        <pt x="495" y="375" on="1"/>
        <pt x="440" y="-17" on="1"/>
        <pt x="437" y="-35" on="1"/>
        <pt x="430" y="-84" on="0"/>
        <pt x="389" y="-163" on="0"/>
        <pt x="329" y="-219" on="0"/>
        <pt x="256" y="-249" on="0"/>
        <pt x="216" y="-250" on="1"/>
        <pt x="174" y="-249" on="0"/>
        <pt x="94" y="-219" on="0"/>
        <pt x="71" y="-190" on="1"/>
        <pt x="79" y="-182" on="0"/>
        <pt x="97" y="-167" on="0"/>
        <pt x="105" y="-159" on="1"/>
        <pt x="124" y="-183" on="0"/>
        <pt x="188" y="-207" on="0"/>
        <pt x="221" y="-207" on="1"/>
        <pt x="252" y="-207" on="0"/>
        <pt x="311" y="-182" on="0"/>
        <pt x="358" y="-136" on="0"/>
        <pt x="391" y="-71" on="0"/>
        <pt x="396" y="-32" on="1"/>
        <pt x="406" y="40" on="1"/>
        <pt x="409" y="51" on="0"/>
        <pt x="415" y="75" on="0"/>
        <pt x="417" y="86" on="1"/>
        <pt x="407" y="68" on="0"/>
        <pt x="373" y="35" on="0"/>
        <pt x="328" y="9" on="0"/>
        <pt x="274" y="-7" on="0"/>
        <pt x="244" y="-7" on="1"/>
        <pt x="203" y="-7" on="0"/>
        <pt x="135" y="24" on="0"/>
        <pt x="90" y="76" on="0"/>
        <pt x="69" y="147" on="0"/>
        <pt x="75" y="188" on="1"/>
        <pt x="81" y="232" on="0"/>
        <pt x="121" y="304" on="0"/>
        <pt x="182" y="355" on="0"/>
        <pt x="258" y="383" on="0"/>
        <pt x="299" y="383" on="1"/>
        <pt x="328" y="383" on="0"/>
        <pt x="378" y="366" on="0"/>
        <pt x="416" y="339" on="0"/>
        <pt x="441" y="304" on="0"/>
        <pt x="445" y="287" on="1"/>
        <pt x="448" y="309" on="0"/>
        <pt x="457" y="353" on="0"/>
      </contour>
    </TTGlyph>
    <TTGlyph name="germandbls" xMin="26" yMin="-8" xMax="478" yMax="658">
      <contour>
        <pt x="139" y="17" on="1"/>
        <pt x="145" y="26" on="0"/>
        <pt x="156" y="44" on="0"/>
        <pt x="162" y="53" on="1"/>
        <pt x="193" y="32" on="0"/>
        <pt x="239" y="32" on="1"/>
        <pt x="274" y="32" on="0"/>
        <pt x="340" y="59" on="0"/>
        <pt x="392" y="105" on="0"/>
        <pt x="427" y="166" on="0"/>
        <pt x="432" y="200" on="1"/>
        <pt x="437" y="234" on="0"/>
        <pt x="419" y="294" on="0"/>
        <pt x="379" y="339" on="0"/>
        <pt x="321" y="365" on="0"/>
        <pt x="286" y="365" on="1"/>
        <pt x="287" y="370" on="0"/>
        <pt x="288" y="380" on="0"/>
        <pt x="289" y="386" on="1"/>
        <pt x="291" y="407" on="1"/>
        <pt x="313" y="407" on="0"/>
        <pt x="355" y="421" on="0"/>
        <pt x="388" y="447" on="0"/>
        <pt x="410" y="483" on="0"/>
        <pt x="413" y="505" on="1"/>
        <pt x="416" y="527" on="0"/>
        <pt x="406" y="568" on="0"/>
        <pt x="382" y="599" on="0"/>
        <pt x="346" y="617" on="0"/>
        <pt x="323" y="617" on="1"/>
        <pt x="291" y="616" on="0"/>
        <pt x="231" y="589" on="0"/>
        <pt x="183" y="540" on="0"/>
        <pt x="148" y="469" on="0"/>
        <pt x="142" y="425" on="1"/>
        <pt x="82" y="0" on="1"/>
        <pt x="41" y="0" on="1"/>
        <pt x="91" y="356" on="1"/>
        <pt x="26" y="356" on="1"/>
        <pt x="32" y="396" on="1"/>
        <pt x="96" y="396" on="1"/>
        <pt x="100" y="425" on="1"/>
        <pt x="108" y="480" on="0"/>
        <pt x="152" y="566" on="0"/>
        <pt x="213" y="625" on="0"/>
        <pt x="289" y="657" on="0"/>
        <pt x="328" y="658" on="1"/>
        <pt x="359" y="657" on="0"/>
        <pt x="409" y="633" on="0"/>
        <pt x="444" y="592" on="0"/>
        <pt x="459" y="538" on="0"/>
        <pt x="455" y="507" on="1"/>
        <pt x="450" y="469" on="0"/>
        <pt x="400" y="406" on="0"/>
        <pt x="365" y="389" on="1"/>
        <pt x="393" y="379" on="0"/>
        <pt x="438" y="342" on="0"/>
        <pt x="467" y="293" on="0"/>
        <pt x="478" y="233" on="0"/>
        <pt x="474" y="200" on="1"/>
        <pt x="468" y="157" on="0"/>
        <pt x="423" y="81" on="0"/>
        <pt x="358" y="25" on="0"/>
        <pt x="277" y="-8" on="0"/>
        <pt x="234" y="-8" on="1"/>
        <pt x="181" y="-8" on="0"/>
      </contour>
    </TTGlyph>
    <TTGlyph name="grave" xMin="-19" yMin="479" xMax="94" yMax="612">
      <contour>
        <pt x="23" y="612" on="1"/>
        <pt x="41" y="579" on="0"/>
        <pt x="76" y="512" on="0"/>
        <pt x="94" y="479" on="1"/>
        <pt x="61" y="479" on="1"/>
        <pt x="41" y="512" on="0"/>
        <pt x="1" y="579" on="0"/>
        <pt x="-19" y="612" on="1"/>
      </contour>
    </TTGlyph>
    <TTGlyph name="greater" xMin="79" yMin="-15" xMax="553" yMax="491">
      <contour>
        <pt x="79" y="-15" on="1"/>
        <pt x="87" y="40" on="1"/>
        <pt x="180" y="90" on="0"/>
        <pt x="365" y="188" on="0"/>
        <pt x="459" y="238" on="1"/>
        <pt x="380" y="288" on="0"/>
        <pt x="222" y="386" on="0"/>
        <pt x="143" y="436" on="1"/>
        <pt x="150" y="491" on="1"/>
        <pt x="251" y="428" on="0"/>
        <pt x="451" y="301" on="0"/>
        <pt x="553" y="238" on="1"/>
        <pt x="434" y="175" on="0"/>
        <pt x="198" y="48" on="0"/>
      </contour>
    </TTGlyph>
    <TTGlyph name="guillemotleft" xMin="117" yMin="77" xMax="481" yMax="400">
      <contour>
        <pt x="436" y="77" on="1"/>
        <pt x="288" y="239" on="1"/>
        <pt x="336" y="280" on="0"/>
        <pt x="433" y="359" on="0"/>
        <pt x="481" y="400" on="1"/>
        <pt x="475" y="352" on="1"/>
        <pt x="443" y="324" on="0"/>
        <pt x="380" y="268" on="0"/>
        <pt x="348" y="239" on="1"/>
        <pt x="371" y="210" on="0"/>
        <pt x="419" y="154" on="0"/>
        <pt x="442" y="125" on="1"/>
      </contour>
      <contour>
        <pt x="265" y="77" on="1"/>
        <pt x="117" y="239" on="1"/>
        <pt x="165" y="280" on="0"/>
        <pt x="262" y="359" on="0"/>
        <pt x="310" y="400" on="1"/>
        <pt x="304" y="352" on="1"/>
        <pt x="272" y="323" on="0"/>
        <pt x="209" y="268" on="0"/>
        <pt x="177" y="239" on="1"/>
        <pt x="200" y="210" on="0"/>
        <pt x="248" y="154" on="0"/>
        <pt x="271" y="125" on="1"/>
      </contour>
    </TTGlyph>
    <TTGlyph name="guillemotright" xMin="94" yMin="77" xMax="459" yMax="400">
      <contour>
        <pt x="100" y="125" on="1"/>
        <pt x="132" y="154" on="0"/>
        <pt x="196" y="210" on="0"/>
        <pt x="228" y="239" on="1"/>
        <pt x="204" y="268" on="0"/>
        <pt x="156" y="324" on="0"/>
        <pt x="133" y="352" on="1"/>
        <pt x="139" y="400" on="1"/>
        <pt x="177" y="359" on="0"/>
        <pt x="250" y="280" on="0"/>
        <pt x="288" y="239" on="1"/>
        <pt x="94" y="77" on="1"/>
      </contour>
      <contour>
        <pt x="271" y="125" on="1"/>
        <pt x="303" y="154" on="0"/>
        <pt x="367" y="210" on="0"/>
        <pt x="399" y="239" on="1"/>
        <pt x="375" y="268" on="0"/>
        <pt x="327" y="323" on="0"/>
        <pt x="304" y="352" on="1"/>
        <pt x="310" y="400" on="1"/>
        <pt x="348" y="359" on="0"/>
        <pt x="421" y="280" on="0"/>
        <pt x="459" y="239" on="1"/>
        <pt x="265" y="77" on="1"/>
      </contour>
    </TTGlyph>
    <TTGlyph name="guilsinglleft" xMin="117" yMin="77" xMax="310" yMax="400">
      <contour>
        <pt x="265" y="77" on="1"/>
        <pt x="117" y="239" on="1"/>
        <pt x="165" y="280" on="0"/>
        <pt x="262" y="359" on="0"/>
        <pt x="310" y="400" on="1"/>
        <pt x="304" y="352" on="1"/>
        <pt x="272" y="323" on="0"/>
        <pt x="209" y="268" on="0"/>
        <pt x="177" y="239" on="1"/>
        <pt x="200" y="210" on="0"/>
        <pt x="248" y="154" on="0"/>
        <pt x="271" y="125" on="1"/>
      </contour>
    </TTGlyph>
    <TTGlyph name="guilsinglright" xMin="94" yMin="77" xMax="288" yMax="400">
      <contour>
        <pt x="100" y="125" on="1"/>
        <pt x="132" y="154" on="0"/>
        <pt x="196" y="210" on="0"/>
        <pt x="228" y="239" on="1"/>
        <pt x="204" y="268" on="0"/>
        <pt x="156" y="323" on="0"/>
        <pt x="133" y="352" on="1"/>
        <pt x="139" y="400" on="1"/>
        <pt x="177" y="359" on="0"/>
        <pt x="250" y="280" on="0"/>
        <pt x="288" y="239" on="1"/>
        <pt x="94" y="77" on="1"/>
      </contour>
    </TTGlyph>
    <TTGlyph name="h" xMin="103" yMin="0" xMax="470" yMax="750">
      <contour>
        <pt x="208" y="750" on="1"/>
        <pt x="250" y="750" on="1"/>
        <pt x="190" y="323" on="1"/>
        <pt x="180" y="278" on="1"/>
        <pt x="208" y="326" on="0"/>
        <pt x="302" y="381" on="0"/>
        <pt x="359" y="383" on="1"/>
        <pt x="414" y="383" on="0"/>
        <pt x="470" y="321" on="0"/>
        <pt x="464" y="271" on="1"/>
        <pt x="427" y="0" on="1"/>
        <pt x="385" y="0" on="1"/>
        <pt x="421" y="260" on="1"/>
        <pt x="424" y="292" on="0"/>
        <pt x="388" y="340" on="0"/>
        <pt x="346" y="342" on="1"/>
        <pt x="315" y="342" on="0"/>
        <pt x="257" y="321" on="0"/>
        <pt x="209" y="285" on="0"/>
        <pt x="177" y="235" on="0"/>
        <pt x="173" y="205" on="1"/>
        <pt x="145" y="0" on="1"/>
        <pt x="103" y="0" on="1"/>
      </contour>
    </TTGlyph>
    <TTGlyph name="hyphen" xMin="50" yMin="169" xMax="239" yMax="210">
      <contour>
        <pt x="50" y="169" on="1"/>
        <pt x="55" y="210" on="1"/>
        <pt x="239" y="210" on="1"/>
        <pt x="234" y="169" on="1"/>
      </contour>
    </TTGlyph>
    <TTGlyph name="i" xMin="75" yMin="0" xMax="202" yMax="541">
      <contour>
        <pt x="135" y="508" on="1"/>
        <pt x="137" y="522" on="0"/>
        <pt x="159" y="541" on="0"/>
        <pt x="172" y="541" on="1"/>
        <pt x="185" y="541" on="0"/>
        <pt x="202" y="522" on="0"/>
        <pt x="200" y="508" on="1"/>
        <pt x="198" y="494" on="0"/>
        <pt x="175" y="475" on="0"/>
        <pt x="162" y="475" on="1"/>
        <pt x="149" y="475" on="0"/>
        <pt x="132" y="494" on="0"/>
      </contour>
      <contour>
        <pt x="116" y="0" on="1"/>
        <pt x="75" y="0" on="1"/>
        <pt x="127" y="375" on="1"/>
        <pt x="168" y="375" on="1"/>
      </contour>
    </TTGlyph>
    <TTGlyph name="iacute" xMin="71" yMin="0" xMax="291" yMax="612">
      <contour>
        <pt x="112" y="0" on="1"/>
        <pt x="71" y="0" on="1"/>
        <pt x="123" y="375" on="1"/>
        <pt x="164" y="375" on="1"/>
      </contour>
      <contour>
        <pt x="139" y="479" on="1"/>
        <pt x="166" y="512" on="0"/>
        <pt x="221" y="579" on="0"/>
        <pt x="248" y="612" on="1"/>
        <pt x="291" y="612" on="1"/>
        <pt x="262" y="579" on="0"/>
        <pt x="201" y="512" on="0"/>
        <pt x="172" y="479" on="1"/>
      </contour>
    </TTGlyph>
    <TTGlyph name="icircumflex" xMin="57" yMin="0" xMax="297" yMax="660">
      <contour>
        <pt x="137" y="0" on="1"/>
        <pt x="95" y="0" on="1"/>
        <pt x="147" y="375" on="1"/>
        <pt x="189" y="375" on="1"/>
      </contour>
      <contour>
        <pt x="202" y="660" on="1"/>
        <pt x="226" y="615" on="0"/>
        <pt x="273" y="524" on="0"/>
        <pt x="297" y="479" on="1"/>
        <pt x="264" y="479" on="1"/>
        <pt x="246" y="509" on="0"/>
        <pt x="211" y="570" on="0"/>
        <pt x="194" y="600" on="1"/>
        <pt x="168" y="570" on="0"/>
        <pt x="116" y="509" on="0"/>
        <pt x="90" y="479" on="1"/>
        <pt x="57" y="479" on="1"/>
        <pt x="93" y="524" on="0"/>
        <pt x="166" y="615" on="0"/>
      </contour>
    </TTGlyph>
    <TTGlyph name="idieresis" xMin="87" yMin="0" xMax="322" yMax="541">
      <contour>
        <pt x="165" y="0" on="1"/>
        <pt x="123" y="0" on="1"/>
        <pt x="175" y="375" on="1"/>
        <pt x="217" y="375" on="1"/>
      </contour>
      <contour>
        <pt x="255" y="508" on="1"/>
        <pt x="257" y="522" on="0"/>
        <pt x="279" y="541" on="0"/>
        <pt x="292" y="541" on="1"/>
        <pt x="305" y="541" on="0"/>
        <pt x="322" y="522" on="0"/>
        <pt x="320" y="508" on="1"/>
        <pt x="318" y="494" on="0"/>
        <pt x="296" y="475" on="0"/>
        <pt x="283" y="475" on="1"/>
        <pt x="270" y="475" on="0"/>
        <pt x="253" y="494" on="0"/>
      </contour>
      <contour>
        <pt x="89" y="508" on="1"/>
        <pt x="91" y="522" on="0"/>
        <pt x="114" y="541" on="0"/>
        <pt x="127" y="541" on="1"/>
        <pt x="139" y="541" on="0"/>
        <pt x="157" y="522" on="0"/>
        <pt x="155" y="508" on="1"/>
        <pt x="153" y="494" on="0"/>
        <pt x="130" y="475" on="0"/>
        <pt x="118" y="475" on="1"/>
        <pt x="105" y="475" on="0"/>
        <pt x="87" y="494" on="0"/>
      </contour>
    </TTGlyph>
    <TTGlyph name="igrave" xMin="53" yMin="0" xMax="168" yMax="612">
      <contour>
        <pt x="116" y="0" on="1"/>
        <pt x="75" y="0" on="1"/>
        <pt x="127" y="375" on="1"/>
        <pt x="168" y="375" on="1"/>
      </contour>
      <contour>
        <pt x="95" y="612" on="1"/>
        <pt x="113" y="579" on="0"/>
        <pt x="148" y="512" on="0"/>
        <pt x="166" y="479" on="1"/>
        <pt x="133" y="479" on="1"/>
        <pt x="113" y="512" on="0"/>
        <pt x="73" y="579" on="0"/>
        <pt x="53" y="612" on="1"/>
      </contour>
    </TTGlyph>
    <TTGlyph name="j" xMin="20" yMin="-180" xMax="224" yMax="541">
      <contour>
        <pt x="157" y="508" on="1"/>
        <pt x="159" y="522" on="0"/>
        <pt x="182" y="541" on="0"/>
        <pt x="195" y="541" on="1"/>
        <pt x="207" y="541" on="0"/>
        <pt x="224" y="522" on="0"/>
        <pt x="222" y="508" on="1"/>
        <pt x="220" y="494" on="0"/>
        <pt x="198" y="475" on="0"/>
        <pt x="185" y="475" on="1"/>
        <pt x="172" y="475" on="0"/>
        <pt x="155" y="494" on="0"/>
      </contour>
      <contour>
        <pt x="46" y="-180" on="1"/>
        <pt x="40" y="-172" on="0"/>
        <pt x="27" y="-158" on="0"/>
        <pt x="20" y="-150" on="1"/>
        <pt x="49" y="-125" on="0"/>
        <pt x="88" y="-53" on="0"/>
        <pt x="95" y="-5" on="1"/>
        <pt x="149" y="375" on="1"/>
        <pt x="190" y="375" on="1"/>
        <pt x="138" y="-4" on="1"/>
        <pt x="129" y="-63" on="0"/>
        <pt x="81" y="-151" on="0"/>
      </contour>
    </TTGlyph>
    <TTGlyph name="k" xMin="77" yMin="0" xMax="402" yMax="750">
      <contour>
        <pt x="380" y="384" on="1"/>
        <pt x="385" y="378" on="0"/>
        <pt x="397" y="365" on="0"/>
        <pt x="402" y="358" on="1"/>
        <pt x="360" y="324" on="0"/>
        <pt x="286" y="261" on="0"/>
        <pt x="245" y="227" on="1"/>
        <pt x="278" y="170" on="0"/>
        <pt x="344" y="57" on="0"/>
        <pt x="379" y="0" on="1"/>
        <pt x="330" y="0" on="1"/>
        <pt x="300" y="50" on="0"/>
        <pt x="240" y="149" on="0"/>
        <pt x="210" y="199" on="1"/>
        <pt x="192" y="184" on="0"/>
        <pt x="156" y="153" on="0"/>
        <pt x="138" y="139" on="1"/>
        <pt x="119" y="0" on="1"/>
        <pt x="77" y="0" on="1"/>
        <pt x="182" y="750" on="1"/>
        <pt x="224" y="750" on="1"/>
        <pt x="145" y="190" on="1"/>
        <pt x="206" y="241" on="0"/>
        <pt x="320" y="333" on="0"/>
      </contour>
    </TTGlyph>
    <TTGlyph name="l" xMin="75" yMin="0" xMax="221" yMax="750">
      <contour>
        <pt x="116" y="0" on="1"/>
        <pt x="75" y="0" on="1"/>
        <pt x="180" y="750" on="1"/>
        <pt x="221" y="750" on="1"/>
      </contour>
    </TTGlyph>
    <TTGlyph name="less" xMin="115" yMin="-15" xMax="588" yMax="491">
      <contour>
        <pt x="525" y="40" on="1"/>
        <pt x="517" y="-15" on="1"/>
        <pt x="416" y="48" on="0"/>
        <pt x="216" y="175" on="0"/>
        <pt x="115" y="238" on="1"/>
        <pt x="233" y="301" on="0"/>
        <pt x="469" y="428" on="0"/>
        <pt x="588" y="491" on="1"/>
        <pt x="580" y="436" on="1"/>
        <pt x="487" y="386" on="0"/>
        <pt x="303" y="288" on="0"/>
        <pt x="209" y="238" on="1"/>
        <pt x="288" y="188" on="0"/>
        <pt x="445" y="90" on="0"/>
      </contour>
    </TTGlyph>
    <TTGlyph name="logicalnot" xMin="102" yMin="148" xMax="466" yMax="244">
      <contour>
        <pt x="411" y="148" on="1"/>
        <pt x="420" y="211" on="1"/>
        <pt x="102" y="211" on="1"/>
        <pt x="106" y="244" on="1"/>
        <pt x="466" y="244" on="1"/>
        <pt x="453" y="148" on="1"/>
      </contour>
    </TTGlyph>
    <TTGlyph name="m" xMin="103" yMin="0" xMax="752" yMax="383">
      <contour>
        <pt x="155" y="375" on="1"/>
        <pt x="193" y="375" on="1"/>
        <pt x="188" y="340" on="1"/>
        <pt x="186" y="323" on="0"/>
        <pt x="182" y="295" on="0"/>
        <pt x="180" y="278" on="1"/>
        <pt x="207" y="326" on="0"/>
        <pt x="302" y="382" on="0"/>
        <pt x="359" y="383" on="1"/>
        <pt x="410" y="383" on="0"/>
        <pt x="466" y="328" on="0"/>
        <pt x="465" y="283" on="1"/>
        <pt x="493" y="328" on="0"/>
        <pt x="586" y="382" on="0"/>
        <pt x="641" y="383" on="1"/>
        <pt x="696" y="383" on="0"/>
        <pt x="752" y="321" on="0"/>
        <pt x="747" y="271" on="1"/>
        <pt x="709" y="0" on="1"/>
        <pt x="668" y="0" on="1"/>
        <pt x="703" y="260" on="1"/>
        <pt x="707" y="292" on="0"/>
        <pt x="670" y="340" on="0"/>
        <pt x="628" y="342" on="1"/>
        <pt x="598" y="342" on="0"/>
        <pt x="540" y="322" on="0"/>
        <pt x="493" y="286" on="0"/>
        <pt x="461" y="237" on="0"/>
        <pt x="456" y="208" on="1"/>
        <pt x="427" y="0" on="1"/>
        <pt x="385" y="0" on="1"/>
        <pt x="421" y="260" on="1"/>
        <pt x="424" y="292" on="0"/>
        <pt x="388" y="340" on="0"/>
        <pt x="346" y="342" on="1"/>
        <pt x="315" y="342" on="0"/>
        <pt x="257" y="321" on="0"/>
        <pt x="209" y="285" on="0"/>
        <pt x="177" y="235" on="0"/>
        <pt x="173" y="205" on="1"/>
        <pt x="145" y="0" on="1"/>
        <pt x="103" y="0" on="1"/>
      </contour>
    </TTGlyph>
    <TTGlyph name="macron" xMin="83" yMin="486" xMax="316" yMax="516">
      <contour>
        <pt x="83" y="486" on="1"/>
        <pt x="86" y="516" on="1"/>
        <pt x="316" y="516" on="1"/>
        <pt x="313" y="486" on="1"/>
      </contour>
    </TTGlyph>
    <TTGlyph name="mu" xMin="62" yMin="-201" xMax="467" yMax="375">
      <contour>
        <pt x="414" y="-4" on="1"/>
        <pt x="372" y="-4" on="1"/>
        <pt x="380" y="52" on="1"/>
        <pt x="389" y="97" on="1"/>
        <pt x="362" y="49" on="0"/>
        <pt x="267" y="-7" on="0"/>
        <pt x="210" y="-8" on="1"/>
        <pt x="184" y="-8" on="0"/>
        <pt x="146" y="11" on="0"/>
        <pt x="136" y="28" on="1"/>
        <pt x="104" y="-201" on="1"/>
        <pt x="62" y="-201" on="1"/>
        <pt x="143" y="375" on="1"/>
        <pt x="185" y="375" on="1"/>
        <pt x="148" y="115" on="1"/>
        <pt x="145" y="83" on="0"/>
        <pt x="182" y="35" on="0"/>
        <pt x="224" y="33" on="1"/>
        <pt x="254" y="33" on="0"/>
        <pt x="313" y="54" on="0"/>
        <pt x="360" y="90" on="0"/>
        <pt x="392" y="140" on="0"/>
        <pt x="396" y="170" on="1"/>
        <pt x="425" y="375" on="1"/>
        <pt x="467" y="375" on="1"/>
      </contour>
    </TTGlyph>
    <TTGlyph name="multiply" xMin="106" yMin="0" xMax="421" yMax="284">
      <contour>
        <pt x="356" y="0" on="1"/>
        <pt x="332" y="29" on="0"/>
        <pt x="283" y="84" on="0"/>
        <pt x="258" y="113" on="1"/>
        <pt x="226" y="85" on="0"/>
        <pt x="163" y="29" on="0"/>
        <pt x="131" y="0" on="1"/>
        <pt x="124" y="8" on="0"/>
        <pt x="112" y="22" on="0"/>
        <pt x="106" y="29" on="1"/>
        <pt x="138" y="58" on="0"/>
        <pt x="202" y="113" on="0"/>
        <pt x="234" y="142" on="1"/>
        <pt x="138" y="254" on="1"/>
        <pt x="171" y="284" on="1"/>
        <pt x="268" y="172" on="1"/>
        <pt x="300" y="201" on="0"/>
        <pt x="364" y="255" on="0"/>
        <pt x="396" y="284" on="1"/>
        <pt x="403" y="277" on="0"/>
        <pt x="415" y="262" on="0"/>
        <pt x="421" y="255" on="1"/>
        <pt x="389" y="227" on="0"/>
        <pt x="325" y="171" on="0"/>
        <pt x="293" y="143" on="1"/>
        <pt x="317" y="114" on="0"/>
        <pt x="365" y="58" on="0"/>
        <pt x="390" y="30" on="1"/>
      </contour>
    </TTGlyph>
    <TTGlyph name="n" xMin="103" yMin="0" xMax="470" yMax="383">
      <contour>
        <pt x="155" y="375" on="1"/>
        <pt x="193" y="375" on="1"/>
        <pt x="188" y="340" on="1"/>
        <pt x="186" y="323" on="0"/>
        <pt x="182" y="295" on="0"/>
        <pt x="180" y="278" on="1"/>
        <pt x="207" y="325" on="0"/>
        <pt x="303" y="383" on="0"/>
        <pt x="359" y="383" on="1"/>
        <pt x="414" y="383" on="0"/>
        <pt x="470" y="321" on="0"/>
        <pt x="464" y="271" on="1"/>
        <pt x="427" y="0" on="1"/>
        <pt x="385" y="0" on="1"/>
        <pt x="421" y="260" on="1"/>
        <pt x="424" y="292" on="0"/>
        <pt x="388" y="340" on="0"/>
        <pt x="346" y="342" on="1"/>
        <pt x="315" y="342" on="0"/>
        <pt x="257" y="321" on="0"/>
        <pt x="209" y="285" on="0"/>
        <pt x="177" y="235" on="0"/>
        <pt x="173" y="205" on="1"/>
        <pt x="145" y="0" on="1"/>
        <pt x="103" y="0" on="1"/>
      </contour>
    </TTGlyph>
    <TTGlyph name="nine" xMin="53" yMin="-8" xMax="484" yMax="634">
      <contour>
        <pt x="436" y="427" on="1"/>
        <pt x="441" y="461" on="0"/>
        <pt x="423" y="522" on="0"/>
        <pt x="384" y="567" on="0"/>
        <pt x="327" y="593" on="0"/>
        <pt x="293" y="593" on="1"/>
        <pt x="258" y="593" on="0"/>
        <pt x="193" y="567" on="0"/>
        <pt x="141" y="522" on="0"/>
        <pt x="105" y="461" on="0"/>
        <pt x="100" y="427" on="1"/>
        <pt x="95" y="392" on="0"/>
        <pt x="114" y="332" on="0"/>
        <pt x="153" y="286" on="0"/>
        <pt x="211" y="260" on="0"/>
        <pt x="246" y="260" on="1"/>
        <pt x="280" y="260" on="0"/>
        <pt x="345" y="286" on="0"/>
        <pt x="396" y="332" on="0"/>
        <pt x="431" y="392" on="0"/>
      </contour>
      <contour>
        <pt x="478" y="427" on="1"/>
        <pt x="468" y="356" on="0"/>
        <pt x="389" y="232" on="0"/>
        <pt x="276" y="124" on="0"/>
        <pt x="146" y="32" on="0"/>
        <pt x="85" y="-8" on="1"/>
        <pt x="74" y="8" on="0"/>
        <pt x="63" y="25" on="1"/>
        <pt x="180" y="96" on="0"/>
        <pt x="320" y="222" on="0"/>
        <pt x="353" y="269" on="1"/>
        <pt x="330" y="246" on="0"/>
        <pt x="272" y="220" on="0"/>
        <pt x="240" y="220" on="1"/>
        <pt x="196" y="220" on="0"/>
        <pt x="125" y="252" on="0"/>
        <pt x="75" y="308" on="0"/>
        <pt x="53" y="384" on="0"/>
        <pt x="59" y="427" on="1"/>
        <pt x="65" y="470" on="0"/>
        <pt x="109" y="545" on="0"/>
        <pt x="174" y="601" on="0"/>
        <pt x="255" y="634" on="0"/>
        <pt x="298" y="634" on="1"/>
        <pt x="341" y="634" on="0"/>
        <pt x="413" y="601" on="0"/>
        <pt x="462" y="545" on="0"/>
        <pt x="484" y="470" on="0"/>
      </contour>
    </TTGlyph>
    <TTGlyph name="ntilde" xMin="103" yMin="0" xMax="498" yMax="536">
      <component glyphName="n" x="0" y="0" flags="0x4"/>
      <component glyphName="asciitilde" x="69" y="-9" flags="0x4"/>
    </TTGlyph>
    <TTGlyph name="numbersign" xMin="11" yMin="0" xMax="525" yMax="643">
      <contour>
        <pt x="208" y="393" on="1"/>
        <pt x="199" y="357" on="0"/>
        <pt x="181" y="286" on="0"/>
        <pt x="171" y="251" on="1"/>
        <pt x="313" y="251" on="1"/>
        <pt x="323" y="286" on="0"/>
        <pt x="341" y="357" on="0"/>
        <pt x="350" y="393" on="1"/>
      </contour>
      <contour>
        <pt x="248" y="0" on="1"/>
        <pt x="302" y="210" on="1"/>
        <pt x="160" y="210" on="1"/>
        <pt x="106" y="0" on="1"/>
        <pt x="64" y="0" on="1"/>
        <pt x="118" y="210" on="1"/>
        <pt x="11" y="210" on="1"/>
        <pt x="14" y="221" on="0"/>
        <pt x="19" y="240" on="0"/>
        <pt x="22" y="251" on="1"/>
        <pt x="129" y="251" on="1"/>
        <pt x="139" y="286" on="0"/>
        <pt x="157" y="357" on="0"/>
        <pt x="166" y="393" on="1"/>
        <pt x="60" y="393" on="1"/>
        <pt x="62" y="403" on="0"/>
        <pt x="67" y="423" on="0"/>
        <pt x="69" y="433" on="1"/>
        <pt x="176" y="433" on="1"/>
        <pt x="190" y="486" on="0"/>
        <pt x="218" y="590" on="0"/>
        <pt x="232" y="643" on="1"/>
        <pt x="274" y="643" on="1"/>
        <pt x="260" y="590" on="0"/>
        <pt x="232" y="486" on="0"/>
        <pt x="218" y="433" on="1"/>
        <pt x="360" y="433" on="1"/>
        <pt x="374" y="486" on="0"/>
        <pt x="402" y="590" on="0"/>
        <pt x="416" y="643" on="1"/>
        <pt x="458" y="643" on="1"/>
        <pt x="444" y="590" on="0"/>
        <pt x="416" y="486" on="0"/>
        <pt x="402" y="433" on="1"/>
        <pt x="525" y="433" on="1"/>
        <pt x="523" y="423" on="0"/>
        <pt x="517" y="403" on="0"/>
        <pt x="515" y="393" on="1"/>
        <pt x="392" y="393" on="1"/>
        <pt x="383" y="357" on="0"/>
        <pt x="365" y="286" on="0"/>
        <pt x="355" y="251" on="1"/>
        <pt x="477" y="251" on="1"/>
        <pt x="475" y="240" on="0"/>
        <pt x="469" y="221" on="0"/>
        <pt x="467" y="210" on="1"/>
        <pt x="344" y="210" on="1"/>
        <pt x="290" y="0" on="1"/>
      </contour>
    </TTGlyph>
    <TTGlyph name="o" xMin="56" yMin="-7" xMax="462" yMax="384">
      <contour>
        <pt x="62" y="188" on="1"/>
        <pt x="68" y="233" on="0"/>
        <pt x="107" y="306" on="0"/>
        <pt x="167" y="357" on="0"/>
        <pt x="243" y="384" on="0"/>
        <pt x="285" y="384" on="1"/>
        <pt x="326" y="384" on="0"/>
        <pt x="394" y="353" on="0"/>
        <pt x="441" y="300" on="0"/>
        <pt x="462" y="228" on="0"/>
        <pt x="456" y="188" on="1"/>
        <pt x="450" y="143" on="0"/>
        <pt x="410" y="70" on="0"/>
        <pt x="350" y="20" on="0"/>
        <pt x="273" y="-7" on="0"/>
        <pt x="231" y="-7" on="1"/>
        <pt x="190" y="-7" on="0"/>
        <pt x="123" y="24" on="0"/>
        <pt x="77" y="76" on="0"/>
        <pt x="56" y="147" on="0"/>
      </contour>
      <contour>
        <pt x="104" y="188" on="1"/>
        <pt x="99" y="156" on="0"/>
        <pt x="116" y="100" on="0"/>
        <pt x="152" y="58" on="0"/>
        <pt x="204" y="34" on="0"/>
        <pt x="236" y="34" on="1"/>
        <pt x="268" y="34" on="0"/>
        <pt x="328" y="57" on="0"/>
        <pt x="376" y="97" on="0"/>
        <pt x="408" y="154" on="0"/>
        <pt x="413" y="188" on="1"/>
        <pt x="417" y="220" on="0"/>
        <pt x="401" y="276" on="0"/>
        <pt x="365" y="318" on="0"/>
        <pt x="311" y="343" on="0"/>
        <pt x="279" y="343" on="1"/>
        <pt x="246" y="343" on="0"/>
        <pt x="186" y="320" on="0"/>
        <pt x="139" y="279" on="0"/>
        <pt x="108" y="222" on="0"/>
      </contour>
    </TTGlyph>
    <TTGlyph name="oacute" xMin="56" yMin="-7" xMax="462" yMax="612">
      <component glyphName="o" x="0" y="0" flags="0x4"/>
      <component glyphName="acute" x="205" y="0" flags="0x4"/>
    </TTGlyph>
    <TTGlyph name="ocircumflex" xMin="56" yMin="-7" xMax="462" yMax="660">
      <component glyphName="o" x="0" y="0" flags="0x4"/>
      <component glyphName="asciicircum" x="75" y="0" flags="0x4"/>
    </TTGlyph>
    <TTGlyph name="odieresis" xMin="56" yMin="-7" xMax="462" yMax="541">
      <component glyphName="o" x="0" y="0" flags="0x4"/>
      <component glyphName="dieresis" x="110" y="0" flags="0x4"/>
    </TTGlyph>
    <TTGlyph name="ograve" xMin="56" yMin="-7" xMax="462" yMax="612">
      <component glyphName="o" x="0" y="0" flags="0x4"/>
      <component glyphName="grave" x="213" y="0" flags="0x4"/>
    </TTGlyph>
    <TTGlyph name="one" xMin="73" yMin="0" xMax="216" yMax="650">
      <contour>
        <pt x="73" y="609" on="1"/>
        <pt x="79" y="650" on="1"/>
        <pt x="216" y="650" on="1"/>
        <pt x="125" y="0" on="1"/>
        <pt x="83" y="0" on="1"/>
        <pt x="168" y="609" on="1"/>
      </contour>
    </TTGlyph>
    <TTGlyph name="onehalf" xMin="148" yMin="-19" xMax="854" yMax="736">
      <component glyphName="one" x="97" y="234" scalex="0.709899902344" scaley="0.709716796875" flags="0x4"/>
      <component glyphName="two" x="536" y="0" scalex="0.707397460938" scaley="0.707885742188" flags="0x4"/>
      <component glyphName="slash" x="262" y="0" scalex="1.0" scaley="0.999206542969" flags="0x4"/>
    </TTGlyph>
    <TTGlyph name="onequarter" xMin="158" yMin="-19" xMax="835" yMax="736">
      <component glyphName="slash" x="262" y="0" scalex="1.0" scaley="0.999206542969" flags="0x4"/>
      <component glyphName="four" x="474" y="0" scalex="0.742980957031" scaley="0.744689941406" flags="0x4"/>
      <component glyphName="one" x="107" y="234" scalex="0.709228515625" scaley="0.709411621094" flags="0x4"/>
    </TTGlyph>
    <TTGlyph name="onesuperior" xMin="82" yMin="401" xMax="149" yMax="700">
      <component glyphName="one" x="49" y="401" scalex="0.458740234375" scaley="0.460021972656" flags="0x4"/>
    </TTGlyph>
    <TTGlyph name="ordfeminine" xMin="107" yMin="300" xMax="416" yMax="583">
      <component glyphName="a" x="58" y="306" scalex="0.721374511719" scaley="0.721252441406" flags="0x4"/>
    </TTGlyph>
    <TTGlyph name="ordmasculine" xMin="105" yMin="300" xMax="399" yMax="583">
      <component glyphName="o" x="65" y="306" scale="0.721252441406" flags="0x4"/>
    </TTGlyph>
    <TTGlyph name="oslash" xMin="23" yMin="-15" xMax="435" yMax="390">
      <contour>
        <pt x="78" y="188" on="1"/>
        <pt x="73" y="158" on="0"/>
        <pt x="86" y="105" on="0"/>
        <pt x="102" y="85" on="1"/>
        <pt x="160" y="144" on="0"/>
        <pt x="274" y="260" on="0"/>
        <pt x="332" y="319" on="1"/>
        <pt x="316" y="330" on="0"/>
        <pt x="277" y="343" on="0"/>
        <pt x="254" y="343" on="1"/>
        <pt x="221" y="343" on="0"/>
        <pt x="161" y="319" on="0"/>
        <pt x="114" y="277" on="0"/>
        <pt x="82" y="220" on="0"/>
      </contour>
      <contour>
        <pt x="210" y="34" on="1"/>
        <pt x="243" y="34" on="0"/>
        <pt x="303" y="58" on="0"/>
        <pt x="351" y="100" on="0"/>
        <pt x="383" y="156" on="0"/>
        <pt x="388" y="188" on="1"/>
        <pt x="392" y="221" on="0"/>
        <pt x="374" y="279" on="0"/>
        <pt x="354" y="300" on="1"/>
        <pt x="296" y="240" on="0"/>
        <pt x="180" y="123" on="0"/>
        <pt x="122" y="64" on="1"/>
        <pt x="158" y="34" on="0"/>
      </contour>
      <contour>
        <pt x="36" y="188" on="1"/>
        <pt x="42" y="228" on="0"/>
        <pt x="82" y="300" on="0"/>
        <pt x="142" y="352" on="0"/>
        <pt x="218" y="383" on="0"/>
        <pt x="259" y="383" on="1"/>
        <pt x="290" y="383" on="0"/>
        <pt x="343" y="366" on="0"/>
        <pt x="364" y="351" on="1"/>
        <pt x="373" y="361" on="0"/>
        <pt x="393" y="380" on="0"/>
        <pt x="403" y="390" on="1"/>
        <pt x="408" y="385" on="0"/>
        <pt x="418" y="374" on="0"/>
        <pt x="423" y="369" on="1"/>
        <pt x="414" y="360" on="0"/>
        <pt x="395" y="341" on="0"/>
        <pt x="386" y="331" on="1"/>
        <pt x="412" y="305" on="0"/>
        <pt x="435" y="230" on="0"/>
        <pt x="430" y="188" on="1"/>
        <pt x="424" y="147" on="0"/>
        <pt x="383" y="76" on="0"/>
        <pt x="322" y="24" on="0"/>
        <pt x="245" y="-7" on="0"/>
        <pt x="204" y="-7" on="1"/>
        <pt x="170" y="-7" on="0"/>
        <pt x="114" y="14" on="0"/>
        <pt x="91" y="33" on="1"/>
        <pt x="79" y="21" on="0"/>
        <pt x="56" y="-3" on="0"/>
        <pt x="44" y="-15" on="1"/>
        <pt x="39" y="-10" on="0"/>
        <pt x="28" y="0" on="0"/>
        <pt x="23" y="5" on="1"/>
        <pt x="34" y="17" on="0"/>
        <pt x="59" y="41" on="0"/>
        <pt x="71" y="53" on="1"/>
        <pt x="49" y="79" on="0"/>
        <pt x="30" y="148" on="0"/>
      </contour>
    </TTGlyph>
    <TTGlyph name="otilde" xMin="56" yMin="-7" xMax="462" yMax="545">
      <component glyphName="o" x="0" y="0" flags="0x4"/>
      <component glyphName="asciitilde" x="19" y="0" flags="0x4"/>
    </TTGlyph>
    <TTGlyph name="p" xMin="31" yMin="-250" xMax="493" yMax="382">
      <contour>
        <pt x="445" y="187" on="1"/>
        <pt x="449" y="220" on="0"/>
        <pt x="433" y="276" on="0"/>
        <pt x="397" y="317" on="0"/>
        <pt x="344" y="341" on="0"/>
        <pt x="311" y="341" on="1"/>
        <pt x="278" y="341" on="0"/>
        <pt x="219" y="317" on="0"/>
        <pt x="171" y="276" on="0"/>
        <pt x="139" y="220" on="0"/>
        <pt x="135" y="187" on="1"/>
        <pt x="130" y="155" on="0"/>
        <pt x="146" y="98" on="0"/>
        <pt x="182" y="56" on="0"/>
        <pt x="235" y="32" on="0"/>
        <pt x="268" y="32" on="1"/>
        <pt x="301" y="32" on="0"/>
        <pt x="361" y="56" on="0"/>
        <pt x="409" y="98" on="0"/>
        <pt x="440" y="155" on="0"/>
      </contour>
      <contour>
        <pt x="487" y="187" on="1"/>
        <pt x="481" y="143" on="0"/>
        <pt x="441" y="72" on="0"/>
        <pt x="380" y="20" on="0"/>
        <pt x="303" y="-8" on="0"/>
        <pt x="262" y="-8" on="1"/>
        <pt x="231" y="-8" on="0"/>
        <pt x="181" y="8" on="0"/>
        <pt x="144" y="34" on="0"/>
        <pt x="120" y="68" on="0"/>
        <pt x="116" y="85" on="1"/>
        <pt x="115" y="75" on="0"/>
        <pt x="116" y="55" on="0"/>
        <pt x="115" y="44" on="1"/>
        <pt x="73" y="-250" on="1"/>
        <pt x="31" y="-250" on="1"/>
        <pt x="119" y="375" on="1"/>
        <pt x="155" y="375" on="1"/>
        <pt x="152" y="352" on="0"/>
        <pt x="146" y="308" on="0"/>
        <pt x="144" y="285" on="1"/>
        <pt x="153" y="303" on="0"/>
        <pt x="187" y="337" on="0"/>
        <pt x="233" y="365" on="0"/>
        <pt x="288" y="382" on="0"/>
        <pt x="317" y="382" on="1"/>
        <pt x="358" y="382" on="0"/>
        <pt x="426" y="351" on="0"/>
        <pt x="472" y="299" on="0"/>
        <pt x="493" y="227" on="0"/>
      </contour>
    </TTGlyph>
    <TTGlyph name="paragraph" xMin="62" yMin="0" xMax="458" yMax="750">
      <contour>
        <pt x="190" y="0" on="1"/>
        <pt x="148" y="0" on="1"/>
        <pt x="207" y="423" on="1"/>
        <pt x="173" y="423" on="0"/>
        <pt x="117" y="448" on="0"/>
        <pt x="79" y="492" on="0"/>
        <pt x="62" y="552" on="0"/>
        <pt x="67" y="586" on="1"/>
        <pt x="72" y="620" on="0"/>
        <pt x="106" y="680" on="0"/>
        <pt x="156" y="724" on="0"/>
        <pt x="219" y="750" on="0"/>
        <pt x="253" y="750" on="1"/>
        <pt x="458" y="750" on="1"/>
        <pt x="353" y="0" on="1"/>
        <pt x="311" y="0" on="1"/>
        <pt x="410" y="709" on="1"/>
        <pt x="289" y="709" on="1"/>
      </contour>
    </TTGlyph>
    <TTGlyph name="parenleft" xMin="123" yMin="-163" xMax="390" yMax="747">
      <contour>
        <pt x="134" y="292" on="1"/>
        <pt x="144" y="367" on="0"/>
        <pt x="191" y="503" on="0"/>
        <pt x="254" y="619" on="0"/>
        <pt x="326" y="714" on="0"/>
        <pt x="362" y="747" on="1"/>
        <pt x="369" y="741" on="0"/>
        <pt x="383" y="730" on="0"/>
        <pt x="390" y="724" on="1"/>
        <pt x="357" y="691" on="0"/>
        <pt x="289" y="601" on="0"/>
        <pt x="230" y="491" on="0"/>
        <pt x="186" y="363" on="0"/>
        <pt x="176" y="292" on="1"/>
        <pt x="166" y="221" on="0"/>
        <pt x="174" y="93" on="0"/>
        <pt x="202" y="-17" on="0"/>
        <pt x="245" y="-107" on="0"/>
        <pt x="269" y="-140" on="1"/>
        <pt x="261" y="-146" on="0"/>
        <pt x="243" y="-157" on="0"/>
        <pt x="235" y="-163" on="1"/>
        <pt x="208" y="-130" on="0"/>
        <pt x="162" y="-35" on="0"/>
        <pt x="132" y="81" on="0"/>
        <pt x="123" y="217" on="0"/>
      </contour>
    </TTGlyph>
    <TTGlyph name="parenright" xMin="35" yMin="-165" xMax="302" yMax="745">
      <contour>
        <pt x="292" y="290" on="1"/>
        <pt x="281" y="215" on="0"/>
        <pt x="234" y="79" on="0"/>
        <pt x="171" y="-37" on="0"/>
        <pt x="99" y="-132" on="0"/>
        <pt x="63" y="-165" on="1"/>
        <pt x="56" y="-159" on="0"/>
        <pt x="42" y="-148" on="0"/>
        <pt x="35" y="-142" on="1"/>
        <pt x="68" y="-109" on="0"/>
        <pt x="136" y="-19" on="0"/>
        <pt x="195" y="91" on="0"/>
        <pt x="240" y="219" on="0"/>
        <pt x="250" y="290" on="1"/>
        <pt x="260" y="361" on="0"/>
        <pt x="251" y="489" on="0"/>
        <pt x="223" y="599" on="0"/>
        <pt x="180" y="689" on="0"/>
        <pt x="156" y="722" on="1"/>
        <pt x="164" y="728" on="0"/>
        <pt x="182" y="739" on="0"/>
        <pt x="190" y="745" on="1"/>
        <pt x="217" y="712" on="0"/>
        <pt x="263" y="617" on="0"/>
        <pt x="293" y="501" on="0"/>
        <pt x="302" y="365" on="0"/>
      </contour>
    </TTGlyph>
    <TTGlyph name="percent" xMin="116" yMin="-4" xMax="623" yMax="504">
      <contour>
        <pt x="427" y="112" on="1"/>
        <pt x="422" y="80" on="0"/>
        <pt x="460" y="37" on="0"/>
        <pt x="492" y="37" on="1"/>
        <pt x="524" y="37" on="0"/>
        <pt x="572" y="80" on="0"/>
        <pt x="577" y="112" on="1"/>
        <pt x="582" y="143" on="0"/>
        <pt x="544" y="187" on="0"/>
        <pt x="512" y="187" on="1"/>
        <pt x="480" y="187" on="0"/>
        <pt x="432" y="143" on="0"/>
      </contour>
      <contour>
        <pt x="486" y="-4" on="1"/>
        <pt x="462" y="-4" on="0"/>
        <pt x="422" y="14" on="0"/>
        <pt x="394" y="45" on="0"/>
        <pt x="382" y="88" on="0"/>
        <pt x="385" y="112" on="1"/>
        <pt x="388" y="136" on="0"/>
        <pt x="413" y="178" on="0"/>
        <pt x="449" y="209" on="0"/>
        <pt x="494" y="227" on="0"/>
        <pt x="518" y="227" on="1"/>
        <pt x="542" y="227" on="0"/>
        <pt x="582" y="209" on="0"/>
        <pt x="610" y="178" on="0"/>
        <pt x="623" y="136" on="0"/>
        <pt x="619" y="112" on="1"/>
        <pt x="616" y="88" on="0"/>
        <pt x="591" y="45" on="0"/>
        <pt x="555" y="14" on="0"/>
        <pt x="510" y="-4" on="0"/>
      </contour>
      <contour>
        <pt x="162" y="388" on="1"/>
        <pt x="157" y="357" on="0"/>
        <pt x="195" y="314" on="0"/>
        <pt x="227" y="314" on="1"/>
        <pt x="259" y="314" on="0"/>
        <pt x="307" y="357" on="0"/>
        <pt x="312" y="388" on="1"/>
        <pt x="317" y="420" on="0"/>
        <pt x="279" y="463" on="0"/>
        <pt x="247" y="463" on="1"/>
        <pt x="215" y="463" on="0"/>
        <pt x="167" y="420" on="0"/>
      </contour>
      <contour>
        <pt x="221" y="273" on="1"/>
        <pt x="197" y="273" on="0"/>
        <pt x="157" y="291" on="0"/>
        <pt x="129" y="322" on="0"/>
        <pt x="116" y="365" on="0"/>
        <pt x="120" y="389" on="1"/>
        <pt x="123" y="413" on="0"/>
        <pt x="148" y="455" on="0"/>
        <pt x="184" y="486" on="0"/>
        <pt x="229" y="504" on="0"/>
        <pt x="253" y="504" on="1"/>
        <pt x="277" y="504" on="0"/>
        <pt x="317" y="486" on="0"/>
        <pt x="344" y="455" on="0"/>
        <pt x="357" y="413" on="0"/>
        <pt x="354" y="389" on="1"/>
        <pt x="351" y="365" on="0"/>
        <pt x="326" y="322" on="0"/>
        <pt x="290" y="291" on="0"/>
        <pt x="245" y="273" on="0"/>
      </contour>
      <contour>
        <pt x="158" y="0" on="1"/>
        <pt x="251" y="126" on="0"/>
        <pt x="434" y="374" on="0"/>
        <pt x="527" y="500" on="1"/>
        <pt x="573" y="500" on="1"/>
        <pt x="480" y="374" on="0"/>
        <pt x="297" y="126" on="0"/>
        <pt x="204" y="0" on="1"/>
      </contour>
    </TTGlyph>
    <TTGlyph name="period" xMin="50" yMin="0" xMax="120" yMax="66">
      <contour>
        <pt x="52" y="33" on="1"/>
        <pt x="54" y="47" on="0"/>
        <pt x="77" y="66" on="0"/>
        <pt x="90" y="66" on="1"/>
        <pt x="102" y="66" on="0"/>
        <pt x="120" y="47" on="0"/>
        <pt x="118" y="33" on="1"/>
        <pt x="116" y="19" on="0"/>
        <pt x="93" y="0" on="0"/>
        <pt x="81" y="0" on="1"/>
        <pt x="68" y="0" on="0"/>
        <pt x="50" y="19" on="0"/>
      </contour>
    </TTGlyph>
    <TTGlyph name="periodcentered" xMin="50" yMin="248" xMax="120" yMax="314">
      <component glyphName="period" x="0" y="248" flags="0x4"/>
    </TTGlyph>
    <TTGlyph name="plus" xMin="83" yMin="51" xMax="449" yMax="411">
      <contour>
        <pt x="219" y="51" on="1"/>
        <pt x="242" y="211" on="1"/>
        <pt x="83" y="211" on="1"/>
        <pt x="89" y="252" on="1"/>
        <pt x="248" y="252" on="1"/>
        <pt x="270" y="411" on="1"/>
        <pt x="312" y="411" on="1"/>
        <pt x="290" y="252" on="1"/>
        <pt x="449" y="252" on="1"/>
        <pt x="443" y="211" on="1"/>
        <pt x="284" y="211" on="1"/>
        <pt x="261" y="51" on="1"/>
      </contour>
    </TTGlyph>
    <TTGlyph name="plusminus" xMin="54" yMin="122" xMax="455" yMax="571">
      <contour>
        <pt x="225" y="211" on="1"/>
        <pt x="248" y="371" on="1"/>
        <pt x="89" y="371" on="1"/>
        <pt x="95" y="412" on="1"/>
        <pt x="254" y="412" on="1"/>
        <pt x="276" y="571" on="1"/>
        <pt x="318" y="571" on="1"/>
        <pt x="296" y="412" on="1"/>
        <pt x="455" y="412" on="1"/>
        <pt x="449" y="371" on="1"/>
        <pt x="290" y="371" on="1"/>
        <pt x="267" y="211" on="1"/>
      </contour>
      <contour>
        <pt x="414" y="122" on="1"/>
        <pt x="54" y="122" on="1"/>
        <pt x="60" y="162" on="1"/>
        <pt x="420" y="162" on="1"/>
      </contour>
    </TTGlyph>
    <TTGlyph name="q" xMin="71" yMin="-250" xMax="497" yMax="382">
      <contour>
        <pt x="119" y="187" on="1"/>
        <pt x="114" y="155" on="0"/>
        <pt x="130" y="98" on="0"/>
        <pt x="166" y="56" on="0"/>
        <pt x="219" y="32" on="0"/>
        <pt x="252" y="32" on="1"/>
        <pt x="285" y="32" on="0"/>
        <pt x="345" y="56" on="0"/>
        <pt x="393" y="98" on="0"/>
        <pt x="425" y="155" on="0"/>
        <pt x="430" y="187" on="1"/>
        <pt x="434" y="220" on="0"/>
        <pt x="418" y="276" on="0"/>
        <pt x="382" y="317" on="0"/>
        <pt x="329" y="341" on="0"/>
        <pt x="296" y="341" on="1"/>
        <pt x="263" y="341" on="0"/>
        <pt x="203" y="317" on="0"/>
        <pt x="155" y="276" on="0"/>
        <pt x="123" y="220" on="0"/>
      </contour>
      <contour>
        <pt x="77" y="187" on="1"/>
        <pt x="83" y="231" on="0"/>
        <pt x="123" y="303" on="0"/>
        <pt x="184" y="354" on="0"/>
        <pt x="260" y="382" on="0"/>
        <pt x="301" y="382" on="1"/>
        <pt x="330" y="382" on="0"/>
        <pt x="380" y="365" on="0"/>
        <pt x="419" y="337" on="0"/>
        <pt x="444" y="303" on="0"/>
        <pt x="448" y="285" on="1"/>
        <pt x="451" y="308" on="0"/>
        <pt x="458" y="352" on="0"/>
        <pt x="461" y="375" on="1"/>
        <pt x="497" y="375" on="1"/>
        <pt x="409" y="-250" on="1"/>
        <pt x="367" y="-250" on="1"/>
        <pt x="409" y="44" on="1"/>
        <pt x="411" y="55" on="0"/>
        <pt x="417" y="75" on="0"/>
        <pt x="419" y="85" on="1"/>
        <pt x="410" y="67" on="0"/>
        <pt x="377" y="34" on="0"/>
        <pt x="332" y="8" on="0"/>
        <pt x="277" y="-8" on="0"/>
        <pt x="246" y="-8" on="1"/>
        <pt x="205" y="-8" on="0"/>
        <pt x="137" y="23" on="0"/>
        <pt x="92" y="76" on="0"/>
        <pt x="71" y="147" on="0"/>
      </contour>
    </TTGlyph>
    <TTGlyph name="question" xMin="65" yMin="15" xMax="451" yMax="732">
      <contour>
        <pt x="100" y="578" on="1"/>
        <pt x="92" y="582" on="0"/>
        <pt x="73" y="588" on="0"/>
        <pt x="65" y="591" on="1"/>
        <pt x="77" y="617" on="0"/>
        <pt x="117" y="667" on="0"/>
        <pt x="170" y="707" on="0"/>
        <pt x="236" y="732" on="0"/>
        <pt x="276" y="732" on="1"/>
        <pt x="317" y="732" on="0"/>
        <pt x="385" y="701" on="0"/>
        <pt x="430" y="648" on="0"/>
        <pt x="451" y="577" on="0"/>
        <pt x="445" y="537" on="1"/>
        <pt x="437" y="483" on="0"/>
        <pt x="373" y="400" on="0"/>
        <pt x="322" y="368" on="1"/>
        <pt x="303" y="355" on="0"/>
        <pt x="268" y="335" on="0"/>
        <pt x="239" y="310" on="0"/>
        <pt x="217" y="272" on="0"/>
        <pt x="213" y="242" on="1"/>
        <pt x="202" y="164" on="1"/>
        <pt x="160" y="164" on="1"/>
        <pt x="174" y="261" on="1"/>
        <pt x="178" y="292" on="0"/>
        <pt x="206" y="331" on="0"/>
        <pt x="245" y="361" on="0"/>
        <pt x="294" y="388" on="0"/>
        <pt x="321" y="408" on="1"/>
        <pt x="358" y="435" on="0"/>
        <pt x="397" y="500" on="0"/>
        <pt x="402" y="537" on="1"/>
        <pt x="406" y="570" on="0"/>
        <pt x="391" y="626" on="0"/>
        <pt x="356" y="668" on="0"/>
        <pt x="303" y="691" on="0"/>
        <pt x="270" y="691" on="1"/>
        <pt x="212" y="691" on="0"/>
        <pt x="124" y="631" on="0"/>
      </contour>
      <contour>
        <pt x="160" y="15" on="1"/>
        <pt x="148" y="15" on="0"/>
        <pt x="130" y="34" on="0"/>
        <pt x="132" y="48" on="1"/>
        <pt x="134" y="62" on="0"/>
        <pt x="157" y="81" on="0"/>
        <pt x="169" y="81" on="1"/>
        <pt x="181" y="81" on="0"/>
        <pt x="199" y="62" on="0"/>
        <pt x="197" y="48" on="1"/>
        <pt x="195" y="34" on="0"/>
        <pt x="172" y="15" on="0"/>
      </contour>
    </TTGlyph>
    <TTGlyph name="questiondown" xMin="6" yMin="-193" xMax="393" yMax="525">
      <component glyphName="question" x="457" y="539" scale="-1.0" flags="0x4"/>
    </TTGlyph>
    <TTGlyph name="quotedbl" xMin="45" yMin="472" xMax="257" yMax="720">
      <contour>
        <pt x="178" y="472" on="1"/>
        <pt x="213" y="720" on="1"/>
        <pt x="257" y="720" on="1"/>
        <pt x="247" y="657" on="0"/>
        <pt x="228" y="535" on="0"/>
        <pt x="218" y="472" on="1"/>
      </contour>
      <contour>
        <pt x="45" y="472" on="1"/>
        <pt x="80" y="720" on="1"/>
        <pt x="124" y="720" on="1"/>
        <pt x="114" y="657" on="0"/>
        <pt x="95" y="535" on="0"/>
        <pt x="85" y="472" on="1"/>
      </contour>
    </TTGlyph>
    <TTGlyph name="quotedblbase" xMin="12" yMin="-49" xMax="201" yMax="92">
      <contour>
        <pt x="29" y="-49" on="1"/>
        <pt x="24" y="-44" on="0"/>
        <pt x="17" y="-34" on="0"/>
        <pt x="12" y="-29" on="1"/>
        <pt x="36" y="-9" on="0"/>
        <pt x="63" y="50" on="0"/>
        <pt x="61" y="85" on="1"/>
        <pt x="69" y="87" on="0"/>
        <pt x="86" y="90" on="0"/>
        <pt x="94" y="92" on="1"/>
        <pt x="97" y="51" on="0"/>
        <pt x="62" y="-23" on="0"/>
      </contour>
      <contour>
        <pt x="133" y="-49" on="1"/>
        <pt x="128" y="-44" on="0"/>
        <pt x="121" y="-34" on="0"/>
        <pt x="116" y="-29" on="1"/>
        <pt x="140" y="-9" on="0"/>
        <pt x="167" y="50" on="0"/>
        <pt x="165" y="85" on="1"/>
        <pt x="173" y="87" on="0"/>
        <pt x="190" y="90" on="0"/>
        <pt x="198" y="92" on="1"/>
        <pt x="201" y="51" on="0"/>
        <pt x="166" y="-23" on="0"/>
      </contour>
    </TTGlyph>
    <TTGlyph name="quotedblleft" xMin="26" yMin="570" xMax="193" yMax="711">
      <contour>
        <pt x="193" y="590" on="1"/>
        <pt x="187" y="585" on="0"/>
        <pt x="176" y="575" on="0"/>
        <pt x="170" y="570" on="1"/>
        <pt x="145" y="596" on="0"/>
        <pt x="130" y="670" on="0"/>
        <pt x="144" y="711" on="1"/>
        <pt x="152" y="709" on="0"/>
        <pt x="168" y="706" on="0"/>
        <pt x="176" y="704" on="1"/>
        <pt x="164" y="669" on="0"/>
        <pt x="174" y="610" on="0"/>
      </contour>
      <contour>
        <pt x="89" y="590" on="1"/>
        <pt x="83" y="585" on="0"/>
        <pt x="72" y="575" on="0"/>
        <pt x="66" y="570" on="1"/>
        <pt x="41" y="596" on="0"/>
        <pt x="26" y="670" on="0"/>
        <pt x="40" y="711" on="1"/>
        <pt x="48" y="709" on="0"/>
        <pt x="64" y="706" on="0"/>
        <pt x="72" y="704" on="1"/>
        <pt x="60" y="669" on="0"/>
        <pt x="70" y="610" on="0"/>
      </contour>
    </TTGlyph>
    <TTGlyph name="quotedblright" xMin="23" yMin="570" xMax="212" yMax="711">
      <contour>
        <pt x="40" y="570" on="1"/>
        <pt x="36" y="575" on="0"/>
        <pt x="28" y="585" on="0"/>
        <pt x="23" y="590" on="1"/>
        <pt x="47" y="610" on="0"/>
        <pt x="74" y="669" on="0"/>
        <pt x="72" y="704" on="1"/>
        <pt x="80" y="706" on="0"/>
        <pt x="97" y="709" on="0"/>
        <pt x="105" y="711" on="1"/>
        <pt x="108" y="670" on="0"/>
        <pt x="73" y="596" on="0"/>
      </contour>
      <contour>
        <pt x="144" y="570" on="1"/>
        <pt x="140" y="575" on="0"/>
        <pt x="132" y="585" on="0"/>
        <pt x="127" y="590" on="1"/>
        <pt x="151" y="610" on="0"/>
        <pt x="178" y="669" on="0"/>
        <pt x="176" y="704" on="1"/>
        <pt x="184" y="706" on="0"/>
        <pt x="201" y="709" on="0"/>
        <pt x="209" y="711" on="1"/>
        <pt x="212" y="670" on="0"/>
        <pt x="177" y="596" on="0"/>
      </contour>
    </TTGlyph>
    <TTGlyph name="quoteleft" xMin="32" yMin="570" xMax="94" yMax="711">
      <contour>
        <pt x="94" y="590" on="1"/>
        <pt x="88" y="585" on="0"/>
        <pt x="77" y="575" on="0"/>
        <pt x="71" y="570" on="1"/>
        <pt x="46" y="596" on="0"/>
        <pt x="32" y="670" on="0"/>
        <pt x="46" y="711" on="1"/>
        <pt x="54" y="709" on="0"/>
        <pt x="69" y="706" on="0"/>
        <pt x="77" y="704" on="1"/>
        <pt x="66" y="669" on="0"/>
        <pt x="76" y="610" on="0"/>
      </contour>
    </TTGlyph>
    <TTGlyph name="quoteright" xMin="42" yMin="570" xMax="127" yMax="711">
      <contour>
        <pt x="59" y="570" on="1"/>
        <pt x="54" y="575" on="0"/>
        <pt x="47" y="585" on="0"/>
        <pt x="42" y="590" on="1"/>
        <pt x="65" y="610" on="0"/>
        <pt x="93" y="669" on="0"/>
        <pt x="91" y="704" on="1"/>
        <pt x="99" y="706" on="0"/>
        <pt x="116" y="709" on="0"/>
        <pt x="124" y="711" on="1"/>
        <pt x="127" y="670" on="0"/>
        <pt x="92" y="596" on="0"/>
      </contour>
    </TTGlyph>
    <TTGlyph name="quotesinglbase" xMin="12" yMin="-49" xMax="97" yMax="92">
      <contour>
        <pt x="29" y="-49" on="1"/>
        <pt x="24" y="-44" on="0"/>
        <pt x="17" y="-34" on="0"/>
        <pt x="12" y="-29" on="1"/>
        <pt x="36" y="-9" on="0"/>
        <pt x="63" y="50" on="0"/>
        <pt x="61" y="85" on="1"/>
        <pt x="69" y="87" on="0"/>
        <pt x="86" y="90" on="0"/>
        <pt x="94" y="92" on="1"/>
        <pt x="97" y="51" on="0"/>
        <pt x="62" y="-23" on="0"/>
      </contour>
    </TTGlyph>
    <TTGlyph name="quotesingle" xMin="39" yMin="472" xMax="118" yMax="720">
      <contour>
        <pt x="39" y="472" on="1"/>
        <pt x="74" y="720" on="1"/>
        <pt x="118" y="720" on="1"/>
        <pt x="108" y="657" on="0"/>
        <pt x="89" y="535" on="0"/>
        <pt x="79" y="472" on="1"/>
      </contour>
    </TTGlyph>
    <TTGlyph name="r" xMin="103" yMin="0" xMax="352" yMax="383">
      <contour>
        <pt x="344" y="342" on="1"/>
        <pt x="312" y="341" on="0"/>
        <pt x="254" y="320" on="0"/>
        <pt x="208" y="284" on="0"/>
        <pt x="177" y="234" on="0"/>
        <pt x="173" y="205" on="1"/>
        <pt x="145" y="0" on="1"/>
        <pt x="103" y="0" on="1"/>
        <pt x="155" y="375" on="1"/>
        <pt x="193" y="375" on="1"/>
        <pt x="188" y="340" on="1"/>
        <pt x="186" y="323" on="0"/>
        <pt x="182" y="295" on="0"/>
        <pt x="180" y="278" on="1"/>
        <pt x="195" y="302" on="0"/>
        <pt x="235" y="341" on="0"/>
        <pt x="281" y="368" on="0"/>
        <pt x="329" y="383" on="0"/>
        <pt x="352" y="383" on="1"/>
      </contour>
    </TTGlyph>
    <TTGlyph name="registered" xMin="133" yMin="115" xMax="665" yMax="630">
      <contour>
        <pt x="366" y="138" on="1"/>
        <pt x="415" y="138" on="0"/>
        <pt x="505" y="173" on="0"/>
        <pt x="577" y="236" on="0"/>
        <pt x="626" y="321" on="0"/>
        <pt x="633" y="371" on="1"/>
        <pt x="640" y="422" on="0"/>
        <pt x="616" y="508" on="0"/>
        <pt x="561" y="571" on="0"/>
        <pt x="481" y="607" on="0"/>
        <pt x="432" y="607" on="1"/>
        <pt x="384" y="607" on="0"/>
        <pt x="294" y="571" on="0"/>
        <pt x="222" y="508" on="0"/>
        <pt x="172" y="422" on="0"/>
        <pt x="165" y="371" on="1"/>
        <pt x="158" y="321" on="0"/>
        <pt x="183" y="236" on="0"/>
        <pt x="238" y="173" on="0"/>
        <pt x="318" y="138" on="0"/>
      </contour>
      <contour>
        <pt x="364" y="115" on="1"/>
        <pt x="310" y="115" on="0"/>
        <pt x="221" y="154" on="0"/>
        <pt x="160" y="223" on="0"/>
        <pt x="133" y="317" on="0"/>
        <pt x="141" y="372" on="1"/>
        <pt x="149" y="428" on="0"/>
        <pt x="202" y="522" on="0"/>
        <pt x="282" y="591" on="0"/>
        <pt x="381" y="630" on="0"/>
        <pt x="435" y="630" on="1"/>
        <pt x="489" y="630" on="0"/>
        <pt x="578" y="591" on="0"/>
        <pt x="638" y="522" on="0"/>
        <pt x="665" y="428" on="0"/>
        <pt x="657" y="372" on="1"/>
        <pt x="649" y="317" on="0"/>
        <pt x="597" y="223" on="0"/>
        <pt x="517" y="154" on="0"/>
        <pt x="418" y="115" on="0"/>
      </contour>
      <contour>
        <pt x="349" y="385" on="1"/>
        <pt x="398" y="385" on="1"/>
        <pt x="423" y="385" on="0"/>
        <pt x="458" y="398" on="0"/>
        <pt x="480" y="419" on="0"/>
        <pt x="491" y="443" on="0"/>
        <pt x="493" y="454" on="1"/>
        <pt x="496" y="481" on="0"/>
        <pt x="454" y="522" on="0"/>
        <pt x="418" y="522" on="1"/>
        <pt x="369" y="522" on="1"/>
      </contour>
      <contour>
        <pt x="305" y="210" on="1"/>
        <pt x="352" y="541" on="1"/>
        <pt x="423" y="541" on="1"/>
        <pt x="438" y="541" on="0"/>
        <pt x="472" y="531" on="0"/>
        <pt x="499" y="510" on="0"/>
        <pt x="515" y="477" on="0"/>
        <pt x="512" y="454" on="1"/>
        <pt x="507" y="421" on="0"/>
        <pt x="464" y="376" on="0"/>
        <pt x="429" y="368" on="1"/>
        <pt x="443" y="328" on="0"/>
        <pt x="468" y="249" on="0"/>
        <pt x="481" y="210" on="1"/>
        <pt x="460" y="210" on="1"/>
        <pt x="447" y="249" on="0"/>
        <pt x="421" y="328" on="0"/>
        <pt x="408" y="367" on="1"/>
        <pt x="404" y="366" on="0"/>
        <pt x="396" y="366" on="0"/>
        <pt x="391" y="366" on="1"/>
        <pt x="347" y="366" on="1"/>
        <pt x="325" y="210" on="1"/>
      </contour>
    </TTGlyph>
    <TTGlyph name="s" xMin="84" yMin="-8" xMax="351" yMax="381">
      <contour>
        <pt x="351" y="338" on="1"/>
        <pt x="343" y="330" on="0"/>
        <pt x="329" y="316" on="0"/>
        <pt x="322" y="308" on="1"/>
        <pt x="312" y="322" on="0"/>
        <pt x="271" y="340" on="0"/>
        <pt x="249" y="340" on="1"/>
        <pt x="225" y="340" on="0"/>
        <pt x="177" y="312" on="0"/>
        <pt x="173" y="278" on="1"/>
        <pt x="170" y="256" on="0"/>
        <pt x="195" y="231" on="0"/>
        <pt x="233" y="214" on="0"/>
        <pt x="278" y="199" on="0"/>
        <pt x="315" y="175" on="0"/>
        <pt x="337" y="137" on="0"/>
        <pt x="333" y="105" on="1"/>
        <pt x="331" y="88" on="0"/>
        <pt x="312" y="49" on="0"/>
        <pt x="279" y="15" on="0"/>
        <pt x="229" y="-8" on="0"/>
        <pt x="195" y="-8" on="1"/>
        <pt x="165" y="-8" on="0"/>
        <pt x="101" y="14" on="0"/>
        <pt x="84" y="39" on="1"/>
        <pt x="92" y="47" on="0"/>
        <pt x="107" y="61" on="0"/>
        <pt x="115" y="69" on="1"/>
        <pt x="129" y="52" on="0"/>
        <pt x="179" y="33" on="0"/>
        <pt x="204" y="33" on="1"/>
        <pt x="213" y="33" on="0"/>
        <pt x="240" y="40" on="0"/>
        <pt x="267" y="57" on="0"/>
        <pt x="287" y="83" on="0"/>
        <pt x="290" y="102" on="1"/>
        <pt x="294" y="128" on="0"/>
        <pt x="271" y="156" on="0"/>
        <pt x="233" y="173" on="0"/>
        <pt x="187" y="186" on="0"/>
        <pt x="149" y="208" on="0"/>
        <pt x="126" y="244" on="0"/>
        <pt x="131" y="277" on="1"/>
        <pt x="135" y="303" on="0"/>
        <pt x="160" y="342" on="0"/>
        <pt x="195" y="368" on="0"/>
        <pt x="235" y="381" on="0"/>
        <pt x="253" y="381" on="1"/>
        <pt x="274" y="381" on="0"/>
        <pt x="333" y="362" on="0"/>
      </contour>
    </TTGlyph>
    <TTGlyph name="section" xMin="133" yMin="-26" xMax="382" yMax="743">
      <contour>
        <pt x="177" y="331" on="1"/>
        <pt x="182" y="304" on="0"/>
        <pt x="224" y="274" on="0"/>
        <pt x="253" y="276" on="1"/>
        <pt x="271" y="277" on="0"/>
        <pt x="302" y="293" on="0"/>
        <pt x="326" y="319" on="0"/>
        <pt x="341" y="350" on="0"/>
        <pt x="342" y="367" on="1"/>
        <pt x="343" y="404" on="0"/>
        <pt x="294" y="446" on="0"/>
        <pt x="261" y="445" on="1"/>
        <pt x="238" y="443" on="0"/>
        <pt x="203" y="421" on="0"/>
        <pt x="180" y="388" on="0"/>
        <pt x="172" y="349" on="0"/>
      </contour>
      <contour>
        <pt x="206" y="152" on="1"/>
        <pt x="192" y="181" on="0"/>
        <pt x="173" y="224" on="0"/>
        <pt x="158" y="257" on="0"/>
        <pt x="147" y="283" on="0"/>
        <pt x="143" y="295" on="1"/>
        <pt x="133" y="316" on="0"/>
        <pt x="133" y="364" on="0"/>
        <pt x="149" y="411" on="0"/>
        <pt x="180" y="451" on="0"/>
        <pt x="202" y="465" on="1"/>
        <pt x="226" y="479" on="0"/>
        <pt x="277" y="482" on="0"/>
        <pt x="300" y="474" on="1"/>
        <pt x="289" y="497" on="0"/>
        <pt x="269" y="543" on="0"/>
        <pt x="258" y="567" on="1"/>
        <pt x="246" y="595" on="0"/>
        <pt x="239" y="636" on="0"/>
        <pt x="244" y="666" on="0"/>
        <pt x="258" y="687" on="0"/>
        <pt x="269" y="696" on="1"/>
        <pt x="284" y="710" on="0"/>
        <pt x="330" y="733" on="0"/>
        <pt x="349" y="743" on="1"/>
        <pt x="353" y="734" on="0"/>
        <pt x="360" y="716" on="0"/>
        <pt x="365" y="708" on="1"/>
        <pt x="352" y="701" on="0"/>
        <pt x="328" y="688" on="0"/>
        <pt x="316" y="681" on="1"/>
        <pt x="288" y="666" on="0"/>
        <pt x="284" y="619" on="0"/>
        <pt x="305" y="572" on="1"/>
        <pt x="322" y="534" on="0"/>
        <pt x="355" y="459" on="0"/>
        <pt x="372" y="421" on="1"/>
        <pt x="382" y="400" on="0"/>
        <pt x="382" y="352" on="0"/>
        <pt x="365" y="307" on="0"/>
        <pt x="333" y="268" on="0"/>
        <pt x="311" y="254" on="1"/>
        <pt x="287" y="240" on="0"/>
        <pt x="236" y="236" on="0"/>
        <pt x="214" y="244" on="1"/>
        <pt x="224" y="221" on="0"/>
        <pt x="245" y="173" on="0"/>
        <pt x="256" y="150" on="1"/>
        <pt x="268" y="122" on="0"/>
        <pt x="275" y="81" on="0"/>
        <pt x="271" y="51" on="0"/>
        <pt x="255" y="30" on="0"/>
        <pt x="245" y="21" on="1"/>
        <pt x="230" y="6" on="0"/>
        <pt x="185" y="-16" on="0"/>
        <pt x="166" y="-26" on="1"/>
        <pt x="162" y="-17" on="0"/>
        <pt x="155" y="1" on="0"/>
        <pt x="150" y="9" on="1"/>
        <pt x="163" y="16" on="0"/>
        <pt x="187" y="29" on="0"/>
        <pt x="200" y="36" on="1"/>
        <pt x="227" y="50" on="0"/>
        <pt x="229" y="100" on="0"/>
      </contour>
    </TTGlyph>
    <TTGlyph name="semicolon" xMin="-28" yMin="-120" xMax="171" yMax="316">
      <contour>
        <pt x="104" y="283" on="1"/>
        <pt x="106" y="297" on="0"/>
        <pt x="128" y="316" on="0"/>
        <pt x="141" y="316" on="1"/>
        <pt x="154" y="316" on="0"/>
        <pt x="171" y="297" on="0"/>
        <pt x="169" y="283" on="1"/>
        <pt x="167" y="269" on="0"/>
        <pt x="145" y="250" on="0"/>
        <pt x="132" y="250" on="1"/>
        <pt x="119" y="250" on="0"/>
        <pt x="102" y="269" on="0"/>
      </contour>
      <contour>
        <pt x="125" y="86" on="1"/>
        <pt x="96" y="34" on="0"/>
        <pt x="39" y="-68" on="0"/>
        <pt x="10" y="-120" on="1"/>
        <pt x="-28" y="-120" on="1"/>
        <pt x="-2" y="-68" on="0"/>
        <pt x="50" y="34" on="0"/>
        <pt x="77" y="86" on="1"/>
      </contour>
    </TTGlyph>
    <TTGlyph name="seven" xMin="33" yMin="0" xMax="465" yMax="650">
      <contour>
        <pt x="53" y="609" on="1"/>
        <pt x="59" y="650" on="1"/>
        <pt x="465" y="650" on="1"/>
        <pt x="369" y="486" on="0"/>
        <pt x="178" y="164" on="0"/>
        <pt x="82" y="0" on="1"/>
        <pt x="33" y="0" on="1"/>
        <pt x="393" y="609" on="1"/>
      </contour>
    </TTGlyph>
    <TTGlyph name="six" xMin="27" yMin="-8" xMax="458" yMax="635">
      <contour>
        <pt x="75" y="199" on="1"/>
        <pt x="70" y="164" on="0"/>
        <pt x="88" y="104" on="0"/>
        <pt x="127" y="59" on="0"/>
        <pt x="183" y="33" on="0"/>
        <pt x="218" y="33" on="1"/>
        <pt x="252" y="33" on="0"/>
        <pt x="317" y="59" on="0"/>
        <pt x="370" y="104" on="0"/>
        <pt x="406" y="164" on="0"/>
        <pt x="411" y="199" on="1"/>
        <pt x="415" y="233" on="0"/>
        <pt x="397" y="294" on="0"/>
        <pt x="357" y="340" on="0"/>
        <pt x="299" y="366" on="0"/>
        <pt x="265" y="366" on="1"/>
        <pt x="230" y="366" on="0"/>
        <pt x="166" y="340" on="0"/>
        <pt x="115" y="294" on="0"/>
        <pt x="80" y="233" on="0"/>
      </contour>
      <contour>
        <pt x="32" y="195" on="1"/>
        <pt x="42" y="267" on="0"/>
        <pt x="121" y="392" on="0"/>
        <pt x="233" y="501" on="0"/>
        <pt x="364" y="594" on="0"/>
        <pt x="426" y="635" on="1"/>
        <pt x="431" y="627" on="0"/>
        <pt x="442" y="609" on="0"/>
        <pt x="448" y="601" on="1"/>
        <pt x="331" y="531" on="0"/>
        <pt x="191" y="404" on="0"/>
        <pt x="158" y="358" on="1"/>
        <pt x="180" y="380" on="0"/>
        <pt x="239" y="407" on="0"/>
        <pt x="271" y="407" on="1"/>
        <pt x="314" y="407" on="0"/>
        <pt x="386" y="374" on="0"/>
        <pt x="435" y="318" on="0"/>
        <pt x="458" y="242" on="0"/>
        <pt x="452" y="199" on="1"/>
        <pt x="446" y="156" on="0"/>
        <pt x="402" y="81" on="0"/>
        <pt x="337" y="25" on="0"/>
        <pt x="255" y="-8" on="0"/>
        <pt x="212" y="-8" on="1"/>
        <pt x="170" y="-8" on="0"/>
        <pt x="99" y="24" on="0"/>
        <pt x="50" y="79" on="0"/>
        <pt x="27" y="153" on="0"/>
      </contour>
    </TTGlyph>
    <TTGlyph name="slash" xMin="-36" yMin="-19" xMax="390" yMax="736">
      <contour>
        <pt x="-36" y="-19" on="1"/>
        <pt x="61" y="171" on="0"/>
        <pt x="251" y="546" on="0"/>
        <pt x="348" y="736" on="1"/>
        <pt x="390" y="736" on="1"/>
        <pt x="293" y="546" on="0"/>
        <pt x="103" y="171" on="0"/>
        <pt x="6" y="-19" on="1"/>
      </contour>
    </TTGlyph>
    <TTGlyph name="sterling" xMin="-17" yMin="0" xMax="499" yMax="634">
      <contour>
        <pt x="104" y="41" on="1"/>
        <pt x="296" y="41" on="1"/>
        <pt x="321" y="41" on="1"/>
        <pt x="352" y="41" on="0"/>
        <pt x="394" y="46" on="0"/>
        <pt x="420" y="58" on="0"/>
        <pt x="434" y="78" on="0"/>
        <pt x="436" y="93" on="1"/>
        <pt x="444" y="145" on="1"/>
        <pt x="486" y="145" on="1"/>
        <pt x="477" y="86" on="1"/>
        <pt x="475" y="69" on="0"/>
        <pt x="466" y="38" on="0"/>
        <pt x="439" y="14" on="0"/>
        <pt x="390" y="0" on="0"/>
        <pt x="347" y="0" on="1"/>
        <pt x="-17" y="0" on="1"/>
        <pt x="-11" y="41" on="1"/>
        <pt x="32" y="41" on="1"/>
        <pt x="49" y="41" on="0"/>
        <pt x="71" y="53" on="0"/>
        <pt x="86" y="82" on="0"/>
        <pt x="97" y="132" on="0"/>
        <pt x="102" y="171" on="1"/>
        <pt x="120" y="296" on="1"/>
        <pt x="55" y="296" on="1"/>
        <pt x="61" y="337" on="1"/>
        <pt x="126" y="337" on="1"/>
        <pt x="148" y="500" on="1"/>
        <pt x="158" y="570" on="0"/>
        <pt x="266" y="634" on="0"/>
        <pt x="351" y="634" on="1"/>
        <pt x="384" y="634" on="0"/>
        <pt x="434" y="620" on="0"/>
        <pt x="469" y="595" on="0"/>
        <pt x="492" y="561" on="0"/>
        <pt x="499" y="541" on="1"/>
        <pt x="490" y="536" on="0"/>
        <pt x="473" y="527" on="0"/>
        <pt x="465" y="522" on="1"/>
        <pt x="457" y="539" on="0"/>
        <pt x="440" y="565" on="0"/>
        <pt x="413" y="583" on="0"/>
        <pt x="374" y="593" on="0"/>
        <pt x="345" y="593" on="1"/>
        <pt x="267" y="593" on="0"/>
        <pt x="196" y="540" on="0"/>
        <pt x="190" y="494" on="1"/>
        <pt x="168" y="337" on="1"/>
        <pt x="292" y="337" on="1"/>
        <pt x="286" y="296" on="1"/>
        <pt x="162" y="296" on="1"/>
        <pt x="142" y="155" on="1"/>
        <pt x="138" y="131" on="1"/>
        <pt x="134" y="102" on="0"/>
        <pt x="121" y="55" on="0"/>
      </contour>
    </TTGlyph>
    <TTGlyph name="t" xMin="83" yMin="0" xMax="333" yMax="619">
      <contour>
        <pt x="210" y="619" on="1"/>
        <pt x="252" y="619" on="1"/>
        <pt x="218" y="374" on="1"/>
        <pt x="333" y="374" on="1"/>
        <pt x="327" y="333" on="1"/>
        <pt x="212" y="333" on="1"/>
        <pt x="166" y="0" on="1"/>
        <pt x="124" y="0" on="1"/>
        <pt x="170" y="333" on="1"/>
        <pt x="83" y="333" on="1"/>
        <pt x="89" y="374" on="1"/>
        <pt x="176" y="374" on="1"/>
      </contour>
    </TTGlyph>
    <TTGlyph name="thorn" xMin="-3" yMin="-250" xMax="457" yMax="750">
      <contour>
        <pt x="410" y="187" on="1"/>
        <pt x="414" y="220" on="0"/>
        <pt x="398" y="276" on="0"/>
        <pt x="362" y="317" on="0"/>
        <pt x="309" y="341" on="0"/>
        <pt x="276" y="341" on="1"/>
        <pt x="243" y="341" on="0"/>
        <pt x="184" y="317" on="0"/>
        <pt x="136" y="276" on="0"/>
        <pt x="104" y="220" on="0"/>
        <pt x="100" y="187" on="1"/>
        <pt x="95" y="155" on="0"/>
        <pt x="111" y="98" on="0"/>
        <pt x="147" y="56" on="0"/>
        <pt x="200" y="32" on="0"/>
        <pt x="233" y="32" on="1"/>
        <pt x="266" y="32" on="0"/>
        <pt x="326" y="56" on="0"/>
        <pt x="374" y="98" on="0"/>
        <pt x="405" y="155" on="0"/>
      </contour>
      <contour>
        <pt x="452" y="187" on="1"/>
        <pt x="446" y="147" on="0"/>
        <pt x="405" y="76" on="0"/>
        <pt x="344" y="23" on="0"/>
        <pt x="268" y="-8" on="0"/>
        <pt x="227" y="-8" on="1"/>
        <pt x="196" y="-8" on="0"/>
        <pt x="146" y="8" on="0"/>
        <pt x="108" y="34" on="0"/>
        <pt x="85" y="68" on="0"/>
        <pt x="81" y="85" on="1"/>
        <pt x="80" y="75" on="0"/>
        <pt x="80" y="55" on="0"/>
        <pt x="80" y="44" on="1"/>
        <pt x="38" y="-250" on="1"/>
        <pt x="-3" y="-250" on="1"/>
        <pt x="137" y="750" on="1"/>
        <pt x="179" y="750" on="1"/>
        <pt x="120" y="337" on="1"/>
        <pt x="118" y="324" on="0"/>
        <pt x="111" y="298" on="0"/>
        <pt x="108" y="285" on="1"/>
        <pt x="117" y="303" on="0"/>
        <pt x="152" y="337" on="0"/>
        <pt x="198" y="364" on="0"/>
        <pt x="253" y="381" on="0"/>
        <pt x="282" y="381" on="1"/>
        <pt x="323" y="381" on="0"/>
        <pt x="391" y="350" on="0"/>
        <pt x="436" y="298" on="0"/>
        <pt x="457" y="227" on="0"/>
      </contour>
    </TTGlyph>
    <TTGlyph name="three" xMin="42" yMin="-8" xMax="472" yMax="650">
      <contour>
        <pt x="171" y="347" on="1"/>
        <pt x="227" y="413" on="0"/>
        <pt x="336" y="543" on="0"/>
        <pt x="391" y="609" on="1"/>
        <pt x="143" y="609" on="1"/>
        <pt x="149" y="650" on="1"/>
        <pt x="472" y="650" on="1"/>
        <pt x="419" y="588" on="0"/>
        <pt x="314" y="466" on="0"/>
        <pt x="260" y="404" on="1"/>
        <pt x="300" y="401" on="0"/>
        <pt x="366" y="368" on="0"/>
        <pt x="411" y="314" on="0"/>
        <pt x="432" y="243" on="0"/>
        <pt x="426" y="201" on="1"/>
        <pt x="420" y="158" on="0"/>
        <pt x="375" y="82" on="0"/>
        <pt x="310" y="25" on="0"/>
        <pt x="229" y="-8" on="0"/>
        <pt x="186" y="-8" on="1"/>
        <pt x="140" y="-8" on="0"/>
        <pt x="67" y="29" on="0"/>
        <pt x="42" y="60" on="1"/>
        <pt x="50" y="68" on="0"/>
        <pt x="69" y="83" on="0"/>
        <pt x="77" y="91" on="1"/>
        <pt x="95" y="65" on="0"/>
        <pt x="153" y="33" on="0"/>
        <pt x="190" y="33" on="1"/>
        <pt x="225" y="33" on="0"/>
        <pt x="291" y="60" on="0"/>
        <pt x="343" y="106" on="0"/>
        <pt x="379" y="167" on="0"/>
        <pt x="384" y="201" on="1"/>
        <pt x="389" y="235" on="0"/>
        <pt x="370" y="296" on="0"/>
        <pt x="330" y="342" on="0"/>
        <pt x="272" y="368" on="0"/>
        <pt x="237" y="368" on="1"/>
        <pt x="220" y="368" on="0"/>
        <pt x="187" y="357" on="0"/>
      </contour>
    </TTGlyph>
    <TTGlyph name="threequarters" xMin="118" yMin="-19" xMax="1033" yMax="736">
      <component glyphName="three" x="86" y="206" scalex="0.771606445312" scaley="0.772644042969" flags="0x4"/>
      <component glyphName="slash" x="437" y="0" flags="0x4"/>
      <component glyphName="four" x="672" y="0" scalex="0.744262695312" scaley="0.744689941406" flags="0x4"/>
    </TTGlyph>
    <TTGlyph name="threesuperior" xMin="67" yMin="376" xMax="279" yMax="701">
      <component glyphName="three" x="47" y="380" scalex="0.490661621094" scaley="0.492431640625" flags="0x4"/>
    </TTGlyph>
    <TTGlyph name="two" xMin="6" yMin="0" xMax="449" yMax="658">
      <contour>
        <pt x="114" y="41" on="1"/>
        <pt x="427" y="41" on="1"/>
        <pt x="421" y="0" on="1"/>
        <pt x="6" y="0" on="1"/>
        <pt x="78" y="62" on="0"/>
        <pt x="214" y="181" on="0"/>
        <pt x="322" y="294" on="0"/>
        <pt x="393" y="399" on="0"/>
        <pt x="400" y="446" on="1"/>
        <pt x="407" y="495" on="0"/>
        <pt x="387" y="560" on="0"/>
        <pt x="349" y="600" on="0"/>
        <pt x="300" y="617" on="0"/>
        <pt x="278" y="617" on="1"/>
        <pt x="233" y="617" on="0"/>
        <pt x="171" y="585" on="0"/>
        <pt x="131" y="539" on="0"/>
        <pt x="111" y="485" on="0"/>
        <pt x="108" y="463" on="1"/>
        <pt x="98" y="396" on="0"/>
        <pt x="132" y="353" on="1"/>
        <pt x="124" y="347" on="0"/>
        <pt x="111" y="335" on="0"/>
        <pt x="103" y="328" on="1"/>
        <pt x="80" y="351" on="0"/>
        <pt x="61" y="424" on="0"/>
        <pt x="66" y="463" on="1"/>
        <pt x="72" y="503" on="0"/>
        <pt x="107" y="574" on="0"/>
        <pt x="162" y="627" on="0"/>
        <pt x="238" y="658" on="0"/>
        <pt x="284" y="658" on="1"/>
        <pt x="326" y="658" on="0"/>
        <pt x="391" y="627" on="0"/>
        <pt x="432" y="573" on="0"/>
        <pt x="449" y="500" on="0"/>
        <pt x="443" y="458" on="1"/>
        <pt x="435" y="404" on="0"/>
        <pt x="371" y="297" on="0"/>
        <pt x="279" y="193" on="0"/>
        <pt x="168" y="91" on="0"/>
      </contour>
    </TTGlyph>
    <TTGlyph name="twosuperior" xMin="79" yMin="375" xMax="300" yMax="700">
      <component glyphName="two" x="77" y="375" scalex="0.494689941406" scaley="0.493896484375" flags="0x4"/>
    </TTGlyph>
    <TTGlyph name="u" xMin="112" yMin="-8" xMax="479" yMax="375">
      <contour>
        <pt x="426" y="-4" on="1"/>
        <pt x="385" y="-4" on="1"/>
        <pt x="392" y="52" on="1"/>
        <pt x="401" y="97" on="1"/>
        <pt x="374" y="49" on="0"/>
        <pt x="278" y="-8" on="0"/>
        <pt x="223" y="-8" on="1"/>
        <pt x="168" y="-8" on="0"/>
        <pt x="112" y="54" on="0"/>
        <pt x="117" y="104" on="1"/>
        <pt x="155" y="375" on="1"/>
        <pt x="197" y="375" on="1"/>
        <pt x="160" y="115" on="1"/>
        <pt x="157" y="83" on="0"/>
        <pt x="194" y="35" on="0"/>
        <pt x="236" y="33" on="1"/>
        <pt x="266" y="33" on="0"/>
        <pt x="325" y="54" on="0"/>
        <pt x="373" y="90" on="0"/>
        <pt x="405" y="140" on="0"/>
        <pt x="409" y="170" on="1"/>
        <pt x="437" y="375" on="1"/>
        <pt x="479" y="375" on="1"/>
      </contour>
    </TTGlyph>
    <TTGlyph name="uacute" xMin="112" yMin="-8" xMax="479" yMax="612">
      <component glyphName="u" x="0" y="0" flags="0x204"/>
      <component glyphName="acute" x="204" y="0" flags="0x4"/>
    </TTGlyph>
    <TTGlyph name="ucircumflex" xMin="112" yMin="-8" xMax="479" yMax="660">
      <component glyphName="u" x="0" y="0" flags="0x204"/>
      <component glyphName="asciicircum" x="106" y="0" flags="0x4"/>
    </TTGlyph>
    <TTGlyph name="udieresis" xMin="112" yMin="-8" xMax="479" yMax="541">
      <component glyphName="u" x="0" y="0" flags="0x204"/>
      <component glyphName="dieresis" x="143" y="0" flags="0x4"/>
    </TTGlyph>
    <TTGlyph name="ugrave" xMin="112" yMin="-8" xMax="479" yMax="612">
      <component glyphName="u" x="0" y="0" flags="0x204"/>
      <component glyphName="grave" x="247" y="0" flags="0x4"/>
    </TTGlyph>
    <TTGlyph name="underscore" xMin="97" yMin="0" xMax="502" yMax="41">
      <contour>
        <pt x="497" y="0" on="1"/>
        <pt x="97" y="0" on="1"/>
        <pt x="102" y="41" on="1"/>
        <pt x="502" y="41" on="1"/>
      </contour>
    </TTGlyph>
    <TTGlyph name="v" xMin="106" yMin="-23" xMax="516" yMax="375">
      <contour>
        <pt x="255" y="-23" on="1"/>
        <pt x="218" y="77" on="0"/>
        <pt x="144" y="275" on="0"/>
        <pt x="106" y="375" on="1"/>
        <pt x="148" y="375" on="1"/>
        <pt x="178" y="296" on="0"/>
        <pt x="241" y="134" on="0"/>
        <pt x="266" y="53" on="1"/>
        <pt x="314" y="134" on="0"/>
        <pt x="422" y="295" on="0"/>
        <pt x="474" y="375" on="1"/>
        <pt x="516" y="375" on="1"/>
        <pt x="451" y="275" on="0"/>
        <pt x="321" y="77" on="0"/>
      </contour>
    </TTGlyph>
    <TTGlyph name="w" xMin="108" yMin="-23" xMax="778" yMax="375">
      <contour>
        <pt x="410" y="291" on="1"/>
        <pt x="380" y="375" on="1"/>
        <pt x="422" y="375" on="1"/>
        <pt x="450" y="295" on="0"/>
        <pt x="509" y="134" on="0"/>
        <pt x="534" y="53" on="1"/>
        <pt x="582" y="134" on="0"/>
        <pt x="685" y="295" on="0"/>
        <pt x="736" y="375" on="1"/>
        <pt x="778" y="375" on="1"/>
        <pt x="715" y="275" on="0"/>
        <pt x="587" y="77" on="0"/>
        <pt x="523" y="-23" on="1"/>
        <pt x="499" y="46" on="0"/>
        <pt x="450" y="180" on="0"/>
        <pt x="426" y="249" on="1"/>
        <pt x="382" y="180" on="0"/>
        <pt x="295" y="46" on="0"/>
        <pt x="251" y="-23" on="1"/>
        <pt x="216" y="77" on="0"/>
        <pt x="144" y="275" on="0"/>
        <pt x="108" y="375" on="1"/>
        <pt x="150" y="375" on="1"/>
        <pt x="178" y="295" on="0"/>
        <pt x="237" y="134" on="0"/>
        <pt x="262" y="53" on="1"/>
        <pt x="297" y="113" on="0"/>
        <pt x="373" y="231" on="0"/>
      </contour>
    </TTGlyph>
    <TTGlyph name="x" xMin="36" yMin="0" xMax="428" yMax="375">
      <contour>
        <pt x="202" y="193" on="1"/>
        <pt x="176" y="239" on="0"/>
        <pt x="121" y="329" on="0"/>
        <pt x="94" y="375" on="1"/>
        <pt x="146" y="375" on="1"/>
        <pt x="169" y="335" on="0"/>
        <pt x="217" y="256" on="0"/>
        <pt x="240" y="216" on="1"/>
        <pt x="275" y="256" on="0"/>
        <pt x="343" y="334" on="0"/>
        <pt x="377" y="374" on="1"/>
        <pt x="428" y="374" on="1"/>
        <pt x="386" y="326" on="0"/>
        <pt x="303" y="229" on="0"/>
        <pt x="261" y="181" on="1"/>
        <pt x="289" y="135" on="0"/>
        <pt x="342" y="45" on="0"/>
        <pt x="370" y="0" on="1"/>
        <pt x="318" y="0" on="1"/>
        <pt x="294" y="39" on="0"/>
        <pt x="247" y="119" on="0"/>
        <pt x="223" y="158" on="1"/>
        <pt x="189" y="119" on="0"/>
        <pt x="122" y="39" on="0"/>
        <pt x="88" y="0" on="1"/>
        <pt x="36" y="0" on="1"/>
        <pt x="78" y="48" on="0"/>
        <pt x="160" y="145" on="0"/>
      </contour>
    </TTGlyph>
    <TTGlyph name="y" xMin="67" yMin="-250" xMax="512" yMax="375">
      <contour>
        <pt x="111" y="-250" on="1"/>
        <pt x="67" y="-250" on="1"/>
        <pt x="107" y="-188" on="0"/>
        <pt x="186" y="-65" on="0"/>
        <pt x="226" y="-2" on="1"/>
        <pt x="192" y="92" on="0"/>
        <pt x="124" y="280" on="0"/>
        <pt x="90" y="375" on="1"/>
        <pt x="134" y="375" on="1"/>
        <pt x="143" y="349" on="0"/>
        <pt x="176" y="257" on="0"/>
        <pt x="211" y="157" on="0"/>
        <pt x="244" y="65" on="0"/>
        <pt x="254" y="38" on="1"/>
        <pt x="271" y="65" on="0"/>
        <pt x="330" y="157" on="0"/>
        <pt x="393" y="257" on="0"/>
        <pt x="451" y="349" on="0"/>
        <pt x="468" y="375" on="1"/>
        <pt x="512" y="375" on="1"/>
        <pt x="412" y="218" on="0"/>
        <pt x="213" y="-93" on="0"/>
      </contour>
    </TTGlyph>
    <TTGlyph name="yacute" xMin="67" yMin="-250" xMax="512" yMax="612">
      <component glyphName="y" x="0" y="0" flags="0x4"/>
      <component glyphName="acute" x="205" y="0" flags="0x4"/>
    </TTGlyph>
    <TTGlyph name="ydieresis" xMin="67" yMin="-250" xMax="512" yMax="541">
      <component glyphName="y" x="0" y="0" flags="0x4"/>
      <component glyphName="dieresis" x="131" y="0" flags="0x4"/>
    </TTGlyph>
    <TTGlyph name="yen" xMin="83" yMin="0" xMax="650" yMax="700">
      <contour>
        <pt x="453" y="141" on="1"/>
        <pt x="447" y="100" on="1"/>
        <pt x="307" y="100" on="1"/>
        <pt x="293" y="0" on="1"/>
        <pt x="243" y="0" on="1"/>
        <pt x="257" y="100" on="1"/>
        <pt x="114" y="100" on="1"/>
        <pt x="120" y="141" on="1"/>
        <pt x="263" y="141" on="1"/>
        <pt x="280" y="263" on="1"/>
        <pt x="137" y="263" on="1"/>
        <pt x="143" y="304" on="1"/>
        <pt x="263" y="304" on="1"/>
        <pt x="83" y="700" on="1"/>
        <pt x="134" y="700" on="1"/>
        <pt x="176" y="606" on="0"/>
        <pt x="260" y="423" on="0"/>
        <pt x="302" y="330" on="1"/>
        <pt x="304" y="322" on="0"/>
        <pt x="309" y="309" on="0"/>
        <pt x="311" y="302" on="1"/>
        <pt x="312" y="302" on="1"/>
        <pt x="316" y="309" on="0"/>
        <pt x="322" y="322" on="0"/>
        <pt x="326" y="330" on="1"/>
        <pt x="395" y="423" on="0"/>
        <pt x="530" y="606" on="0"/>
        <pt x="599" y="700" on="1"/>
        <pt x="650" y="700" on="1"/>
        <pt x="577" y="600" on="0"/>
        <pt x="431" y="404" on="0"/>
        <pt x="358" y="304" on="1"/>
        <pt x="476" y="304" on="1"/>
        <pt x="470" y="263" on="1"/>
        <pt x="330" y="263" on="1"/>
        <pt x="313" y="141" on="1"/>
      </contour>
    </TTGlyph>
    <TTGlyph name="z" xMin="42" yMin="0" xMax="436" yMax="410">
      <contour>
        <pt x="185" y="375" on="1"/>
        <pt x="436" y="375" on="1"/>
        <pt x="430" y="334" on="1"/>
        <pt x="387" y="297" on="0"/>
        <pt x="307" y="224" on="0"/>
        <pt x="228" y="151" on="0"/>
        <pt x="148" y="78" on="0"/>
        <pt x="105" y="41" on="1"/>
        <pt x="408" y="41" on="1"/>
        <pt x="403" y="0" on="1"/>
        <pt x="42" y="0" on="1"/>
        <pt x="47" y="41" on="1"/>
        <pt x="90" y="78" on="0"/>
        <pt x="170" y="151" on="0"/>
        <pt x="250" y="224" on="0"/>
        <pt x="330" y="297" on="0"/>
        <pt x="373" y="335" on="1"/>
        <pt x="173" y="335" on="1"/>
        <pt x="142" y="335" on="0"/>
        <pt x="110" y="359" on="0"/>
        <pt x="115" y="388" on="1"/>
        <pt x="118" y="410" on="1"/>
        <pt x="160" y="410" on="1"/>
        <pt x="158" y="398" on="1"/>
        <pt x="157" y="386" on="0"/>
        <pt x="168" y="375" on="0"/>
      </contour>
    </TTGlyph>
    <TTGlyph name="zero" xMin="25" yMin="-7" xMax="581" yMax="658">
      <contour>
        <pt x="36" y="327" on="1"/>
        <pt x="45" y="386" on="0"/>
        <pt x="95" y="505" on="0"/>
        <pt x="176" y="599" on="0"/>
        <pt x="286" y="658" on="0"/>
        <pt x="354" y="658" on="1"/>
        <pt x="421" y="658" on="0"/>
        <pt x="512" y="598" on="0"/>
        <pt x="565" y="502" on="0"/>
        <pt x="581" y="383" on="0"/>
        <pt x="572" y="324" on="1"/>
        <pt x="561" y="252" on="0"/>
        <pt x="500" y="130" on="0"/>
        <pt x="413" y="42" on="0"/>
        <pt x="308" y="-7" on="0"/>
        <pt x="255" y="-7" on="1"/>
        <pt x="202" y="-7" on="0"/>
        <pt x="112" y="44" on="0"/>
        <pt x="51" y="133" on="0"/>
        <pt x="25" y="255" on="0"/>
      </contour>
      <contour>
        <pt x="79" y="327" on="1"/>
        <pt x="70" y="262" on="0"/>
        <pt x="91" y="154" on="0"/>
        <pt x="142" y="77" on="0"/>
        <pt x="218" y="33" on="0"/>
        <pt x="262" y="33" on="1"/>
        <pt x="305" y="33" on="0"/>
        <pt x="393" y="75" on="0"/>
        <pt x="467" y="151" on="0"/>
        <pt x="521" y="258" on="0"/>
        <pt x="530" y="323" on="1"/>
        <pt x="539" y="382" on="0"/>
        <pt x="523" y="488" on="0"/>
        <pt x="477" y="569" on="0"/>
        <pt x="400" y="617" on="0"/>
        <pt x="347" y="617" on="1"/>
        <pt x="294" y="617" on="0"/>
        <pt x="204" y="571" on="0"/>
        <pt x="134" y="491" on="0"/>
        <pt x="87" y="385" on="0"/>
      </contour>
    </TTGlyph>
</ttFont>
